<svg width="40" height="40" viewBox="0 0 40 40" fill="none" xmlns="http://www.w3.org/2000/svg">
<path d="M28.3871 25.1613H11.6129V26.4516H28.3871V25.1613Z" fill="#1D2C39"/>
<path d="M28.3871 27.7419H11.6129V29.0323H28.3871V27.7419Z" fill="#1D2C39"/>
<path d="M38.0645 16.7742H35.4839C35.3128 16.7742 35.1487 16.8422 35.0277 16.9632C34.9067 17.0841 34.8387 17.2482 34.8387 17.4193V18.0645H34.0903C33.8055 16.1863 32.9255 14.449 31.5798 13.1083C30.234 11.7675 28.4935 10.8939 26.6142 10.6161C25.2478 10.4209 23.8693 10.3228 22.489 10.3226H20.9329C20.583 8.93901 19.9778 7.63297 19.1484 6.47161C18.4416 5.48601 18.0624 4.30317 18.0645 3.09031C18.065 2.82188 18.1086 2.55527 18.1936 2.30064L18.6774 0.849024C18.7153 0.735416 18.7207 0.61352 18.6932 0.496978C18.6657 0.380436 18.6063 0.273848 18.5217 0.189144C18.4371 0.104439 18.3305 0.0449609 18.214 0.0173657C18.0975 -0.0102295 17.9756 -0.00485256 17.8619 0.0328948L17.7136 0.081927C16.6982 0.419067 15.7715 0.979884 15.0018 1.723C14.2321 2.46612 13.639 3.37257 13.2665 4.37548C12.5144 3.56941 11.573 2.9638 10.5277 2.61354C10.4307 2.58098 10.3273 2.57199 10.226 2.58732C10.1248 2.60264 10.0287 2.64183 9.9456 2.70165C9.86252 2.76147 9.79486 2.84021 9.74823 2.93135C9.7016 3.02249 9.67733 3.12342 9.67742 3.2258V5.20773C9.67794 6.38973 9.4873 7.56402 9.1129 8.68515C8.63446 10.1187 8.38941 11.6197 8.3871 13.131C7.05651 14.4695 6.1881 16.198 5.90839 18.0645H5.16129V17.4193C5.16129 17.2482 5.09332 17.0841 4.97233 16.9632C4.85134 16.8422 4.68724 16.7742 4.51613 16.7742H1.93548C1.42216 16.7742 0.929864 16.9781 0.56689 17.3411C0.203916 17.7041 0 18.1964 0 18.7097C0 19.223 0.203916 19.7153 0.56689 20.0783C0.929864 20.4412 1.42216 20.6452 1.93548 20.6452H4.24839L4.13871 20.7548C3.14406 21.7543 2.58413 23.106 2.58065 24.5161V31.6129C2.58117 32.2808 2.76107 32.9363 3.10154 33.5109C3.44201 34.0855 3.93056 34.5581 4.51613 34.8794V38.0645C4.51613 38.5778 4.72005 39.0701 5.08302 39.4331C5.44599 39.7961 5.93829 40 6.45161 40H9.03226C9.54558 40 10.0379 39.7961 10.4009 39.4331C10.7638 39.0701 10.9677 38.5778 10.9677 38.0645V35.9645C12.2955 36.0671 13.6271 36.129 14.9555 36.129H25.0452C26.3736 36.129 27.7045 36.0645 29.0323 35.9645V38.0645C29.0323 38.5778 29.2362 39.0701 29.5992 39.4331C29.9621 39.7961 30.4544 40 30.9677 40H33.5484C34.0617 40 34.554 39.7961 34.917 39.4331C35.28 39.0701 35.4839 38.5778 35.4839 38.0645V34.8794C36.0694 34.5581 36.558 34.0855 36.8985 33.5109C37.2389 32.9363 37.4188 32.2808 37.4194 31.6129V24.5161C37.4156 23.1059 36.8558 21.7541 35.8613 20.7542L35.7523 20.6452H38.0645C38.5778 20.6452 39.0701 20.4412 39.4331 20.0783C39.7961 19.7153 40 19.223 40 18.7097C40 18.1964 39.7961 17.7041 39.4331 17.3411C39.0701 16.9781 38.5778 16.7742 38.0645 16.7742ZM21.2903 13.1561C21.2882 12.6398 21.2516 12.1243 21.1806 11.6129H22.489C23.8082 11.6132 25.1257 11.7068 26.4316 11.8929C28.1415 12.1449 29.7138 12.9742 30.8874 14.2431C32.061 15.5119 32.7652 17.144 32.8832 18.8684L32.5084 18.9703C32.0929 19.0832 31.6755 19.1871 31.2574 19.289C30.8052 18.0641 29.9532 17.0273 28.8392 16.3462C27.7251 15.6651 26.414 15.3794 25.1176 15.5352C23.8212 15.6909 22.6151 16.2792 21.6941 17.2048C20.7732 18.1305 20.1911 19.3396 20.0419 20.6368C15.8037 20.6418 11.5838 20.0805 7.49419 18.9677L7.12194 18.8664C7.21893 17.4009 7.7406 15.9953 8.62323 14.8213C8.98104 16.1268 9.75873 17.2781 10.8362 18.0975C11.9136 18.9169 13.2309 19.3588 14.5845 19.3548H15.0916C16.7356 19.3547 18.3121 18.7015 19.4746 17.5391C20.637 16.3766 21.2902 14.8001 21.2903 13.1561ZM29.98 19.5781C27.1398 20.1863 24.2499 20.5334 21.3465 20.6148C21.4928 19.6381 21.9558 18.7365 22.6642 18.0484C23.3727 17.3603 24.2875 16.9238 25.2681 16.8061C26.2487 16.6883 27.2408 16.8958 28.092 17.3966C28.9433 17.8973 29.6066 18.6638 29.98 19.5781ZM14.5161 17.4193C13.9173 17.4193 13.3429 17.1814 12.9194 16.758C12.496 16.3345 12.2581 15.7602 12.2581 15.1613C12.2592 13.8502 12.713 12.5797 13.5426 11.5645L14.7348 10.1084L15.6148 11.3987C16.3717 12.5074 16.7758 13.8189 16.7742 15.1613C16.7742 15.7602 16.5363 16.3345 16.1128 16.758C15.6894 17.1814 15.115 17.4193 14.5161 17.4193ZM10.3368 9.0929C10.7552 7.84032 10.9682 6.52833 10.9677 5.20773V4.20709C11.7263 4.61903 12.3733 5.20934 12.8529 5.92709L13.0116 6.16451C13.0834 6.27205 13.1858 6.35554 13.3057 6.40416C13.4255 6.45277 13.5571 6.46426 13.6835 6.43714C13.81 6.41002 13.9253 6.34554 14.0147 6.25206C14.104 6.15858 14.1632 6.04042 14.1845 5.9129C14.3244 5.06649 14.6484 4.26113 15.1337 3.55368C15.619 2.84624 16.2536 2.25397 16.9929 1.8187L16.9684 1.89354C16.8396 2.27941 16.7741 2.68354 16.7742 3.09031C16.7721 4.57135 17.2352 6.01565 18.0981 7.21935C19.3389 8.94986 20.0043 11.0267 20 13.1561C20.0012 14.114 19.7209 15.0511 19.194 15.8511C18.6671 16.651 17.9167 17.2784 17.0361 17.6555C17.6951 16.9927 18.0648 16.0959 18.0645 15.1613C18.0666 13.56 17.5842 11.9956 16.6806 10.6735L15.3148 8.66903C15.2585 8.58604 15.1835 8.51735 15.0959 8.4684C15.0083 8.41946 14.9106 8.39162 14.8103 8.38709C14.7102 8.38391 14.6107 8.40352 14.5193 8.44442C14.4279 8.48533 14.3469 8.54646 14.2826 8.62322L12.5445 10.7464C11.5261 11.9925 10.9691 13.552 10.9677 15.1613C10.9679 15.7743 11.1277 16.3767 11.4316 16.909C10.8806 16.4518 10.4375 15.8784 10.1342 15.2297C9.83094 14.5811 9.67494 13.8734 9.67742 13.1574C9.67716 11.7759 9.89981 10.4035 10.3368 9.0929ZM3.87097 19.3548H1.93548C1.76438 19.3548 1.60028 19.2869 1.47929 19.1659C1.35829 19.0449 1.29032 18.8808 1.29032 18.7097C1.29032 18.5386 1.35829 18.3745 1.47929 18.2535C1.60028 18.1325 1.76438 18.0645 1.93548 18.0645H3.87097V19.3548ZM5.16129 19.3548H5.53871L5.16129 19.7323V19.3548ZM9.67742 38.0645C9.67742 38.2356 9.60945 38.3997 9.48846 38.5207C9.36747 38.6417 9.20337 38.7097 9.03226 38.7097H6.45161C6.28051 38.7097 6.11641 38.6417 5.99542 38.5207C5.87442 38.3997 5.80645 38.2356 5.80645 38.0645V35.3148C7.08645 35.5432 8.37936 35.7174 9.67742 35.8497V38.0645ZM15.8258 34.8387L16.6084 32.2581H23.3923L24.1748 34.8387H15.8258ZM33.5484 38.7097H30.9677C30.7966 38.7097 30.6325 38.6417 30.5115 38.5207C30.3906 38.3997 30.3226 38.2356 30.3226 38.0645V35.8503C31.62 35.7174 32.9123 35.5439 34.1936 35.3148V38.0645C34.1936 38.2356 34.1256 38.3997 34.0046 38.5207C33.8836 38.6417 33.7195 38.7097 33.5484 38.7097ZM36.129 24.5161V24.549C36.0229 24.5273 35.9148 24.5162 35.8065 24.5161H31.6129C31.0996 24.5161 30.6073 24.72 30.2443 25.083C29.8813 25.446 29.6774 25.9383 29.6774 26.4516V27.4194C29.6774 28.0182 29.9153 28.5926 30.3388 29.016C30.7623 29.4395 31.3366 29.6774 31.9355 29.6774C33.4739 29.6727 34.9605 29.1206 36.129 28.12V31.6129C36.1292 32.186 35.928 32.741 35.5607 33.1809C35.1934 33.6208 34.6833 33.9178 34.1194 34.02C31.281 34.5328 28.4042 34.8031 25.52 34.8277L24.4877 31.4258C24.4476 31.2934 24.366 31.1774 24.255 31.095C24.1439 31.0125 24.0093 30.9679 23.871 30.9677H16.129C15.9906 30.9677 15.8558 31.0123 15.7446 31.0948C15.6335 31.1772 15.5518 31.2933 15.5116 31.4258L14.4794 34.8277C11.595 34.803 8.71791 34.5328 5.87936 34.02C5.31567 33.9175 4.80585 33.6204 4.4388 33.1805C4.07176 32.7406 3.8708 32.1858 3.87097 31.6129V28.12C5.03971 29.1203 6.52614 29.6724 8.06452 29.6774C8.66339 29.6774 9.23774 29.4395 9.66121 29.016C10.0847 28.5926 10.3226 28.0182 10.3226 27.4194V26.4516C10.3226 25.9383 10.1187 25.446 9.75569 25.083C9.39272 24.72 8.90042 24.5161 8.3871 24.5161H4.19355C4.08519 24.5162 3.97712 24.5273 3.87097 24.549V24.5161C3.8736 23.4481 4.29766 22.4242 5.05097 21.6671L6.64516 20.0755L7.15613 20.2148C11.3419 21.3567 15.6613 21.9353 20 21.9355C24.3394 21.9355 28.6594 21.3568 32.8458 20.2148L33.3568 20.0755L34.949 21.6671C35.7024 22.4242 36.1264 23.4481 36.129 24.5161ZM36.129 26.129C36.129 26.1988 36.1064 26.2667 36.0645 26.3226C35.5825 26.9622 34.9588 27.4815 34.2424 27.8397C33.5261 28.1979 32.7364 28.3853 31.9355 28.3871C31.6788 28.3871 31.4327 28.2851 31.2512 28.1036C31.0697 27.9222 30.9677 27.676 30.9677 27.4194V26.4516C30.9677 26.2805 31.0357 26.1164 31.1567 25.9954C31.2777 25.8744 31.4418 25.8064 31.6129 25.8064H35.8065C35.892 25.8064 35.9741 25.8404 36.0346 25.9009C36.0951 25.9614 36.129 26.0435 36.129 26.129ZM3.87097 26.129C3.87097 26.0435 3.90495 25.9614 3.96545 25.9009C4.02595 25.8404 4.108 25.8064 4.19355 25.8064H8.3871C8.55821 25.8064 8.7223 25.8744 8.8433 25.9954C8.96429 26.1164 9.03226 26.2805 9.03226 26.4516V27.4194C9.03226 27.676 8.9303 27.9222 8.74881 28.1036C8.56733 28.2851 8.32118 28.3871 8.06452 28.3871C7.26357 28.3853 6.47393 28.198 5.75754 27.8398C5.04115 27.4816 4.41749 26.9623 3.93548 26.3226C3.89361 26.2667 3.87097 26.1988 3.87097 26.129ZM34.4613 19.3548H34.8387V19.7323L34.4613 19.3548ZM38.0645 19.3548H36.129V18.0645H38.0645C38.2356 18.0645 38.3997 18.1325 38.5207 18.2535C38.6417 18.3745 38.7097 18.5386 38.7097 18.7097C38.7097 18.8808 38.6417 19.0449 38.5207 19.1659C38.3997 19.2869 38.2356 19.3548 38.0645 19.3548Z" fill="#1D2C39"/>
</svg>
