<svg width="40" height="34" viewBox="0 0 40 34" fill="none" xmlns="http://www.w3.org/2000/svg">
<path d="M3.33333 2.58533C3.7015 2.58533 4 2.28683 4 1.91867V0.975334C4 0.607167 3.7015 0.308667 3.33333 0.308667C2.96517 0.308667 2.66667 0.607167 2.66667 0.975334V1.91867C2.66667 2.28683 2.96517 2.58533 3.33333 2.58533Z" fill="#1D2C39"/>
<path d="M3.33333 6.358C3.7015 6.358 4 6.0595 4 5.69133V4.748C4 4.37983 3.7015 4.08133 3.33333 4.08133C2.96517 4.08133 2.66667 4.37983 2.66667 4.748V5.69133C2.66667 6.0595 2.96517 6.358 3.33333 6.358Z" fill="#1D2C39"/>
<path d="M0.975333 4H1.91867C2.28683 4 2.58533 3.7015 2.58533 3.33333C2.58533 2.96517 2.28683 2.66667 1.91867 2.66667H0.975333C0.607167 2.66667 0.308666 2.96517 0.308666 3.33333C0.308666 3.7015 0.607167 4 0.975333 4Z" fill="#1D2C39"/>
<path d="M4.748 4H5.69133C6.0595 4 6.358 3.7015 6.358 3.33333C6.358 2.96517 6.0595 2.66667 5.69133 2.66667H4.748C4.37983 2.66667 4.08133 2.96517 4.08133 3.33333C4.08133 3.7015 4.37983 4 4.748 4Z" fill="#1D2C39"/>
<path d="M39.3333 32H35.9417C35.9762 31.8627 36 31.7213 36 31.5735V30.8835C36.4037 30.5408 36.6657 30.0365 36.6657 29.467V22C36.6657 21.318 36.1933 20.5918 35.6748 20H37.3333C37.7015 20 38 19.7015 38 19.3333V17.359C38 16.2422 37.0908 15.3333 35.9733 15.3333H32.5217L31.6703 11.7015C31.377 10.3295 30.1485 9.33333 28.7492 9.33333H11.251C9.85167 9.33333 8.623 10.3295 8.33267 11.6888L7.47883 15.3333H4.22233C2.997 15.3333 2 16.3298 2 17.5543V19.3333C2 19.7015 2.2985 20 2.66667 20H4.29917C3.78067 20.5918 3.30833 21.318 3.30833 22V29.4672C3.30833 30.0488 3.5815 30.5627 4 30.9052V31.5737C4 31.7215 4.02383 31.8628 4.05833 32.0002H0.666667C0.2985 32.0002 0 32.2987 0 32.6668C0 33.035 0.2985 33.3335 0.666667 33.3335H39.3333C39.7015 33.3335 40 33.035 40 32.6668C40 32.2987 39.7015 32 39.3333 32ZM11.3333 31.3333H28.6667V31.5735C28.6667 31.7213 28.6905 31.8627 28.725 32H11.275C11.3095 31.8627 11.3333 31.7213 11.3333 31.5735V31.3333ZM5.1755 30C4.88117 30 4.64167 29.761 4.64167 29.4672V25.9623C5.20483 26.3973 5.90167 26.6667 6.66667 26.6667H11.3333C11.7015 26.6667 12 26.3682 12 26V24H27.3333V26C27.3333 26.3682 27.6318 26.6667 28 26.6667H32.6667C33.7603 26.6667 34.7242 26.13 35.3323 25.3138V29.467C35.3323 29.761 35.0927 29.9998 34.7985 29.9998H5.1755V30ZM8.031 18.8187L8.22983 17.9705L20 17.3343L31.7708 17.9707L31.9768 18.8493L33.0638 22.6667H6.936L8.031 18.8187ZM33.6695 19.9263C34.3927 20.5098 35.3323 21.5098 35.3323 22V22.6667H34.4503L33.6695 19.9263ZM34.5523 24C34.2773 24.776 33.5357 25.3333 32.6667 25.3333H28.6667V24H34.5523ZM10.6667 24V25.3333H6.66667C5.7975 25.3333 5.056 24.776 4.781 24H10.6667ZM5.54967 22.6667H4.64167V22C4.64167 21.5452 5.50933 20.5593 6.33767 19.8993L5.54967 22.6667ZM35.9733 16.6667C36.3555 16.6667 36.6667 16.9772 36.6667 17.359V18.6667H33.9977C33.7472 18.6667 33.5275 18.8115 33.4137 19.0288L33.2672 18.5147L32.834 16.6667H35.9733ZM9.63383 11.9802C9.79633 11.2192 10.4767 10.6667 11.251 10.6667H28.749C29.5233 10.6667 30.2038 11.219 30.3692 11.9928L31.4537 16.6182L20.0362 16.001C20.012 15.9997 19.988 15.9997 19.9638 16.001L8.54667 16.6182L9.63383 11.9802ZM3.33333 18.6667V17.5543C3.33333 17.0647 3.73217 16.6667 4.22233 16.6667H7.16633L6.7405 18.484L6.5765 19.06C6.46883 18.8247 6.23883 18.6667 5.97617 18.6667H3.33333ZM5.75983 32C5.52483 32 5.33333 31.8087 5.33333 31.5735V31.3333H10V31.5735C10 31.8085 9.80867 32 9.5735 32H5.75983ZM30.4265 32C30.1915 32 30 31.8087 30 31.5735V31.3333H34.6667V31.5735C34.6667 31.8085 34.4753 32 34.2402 32H30.4265Z" fill="#1D2C39"/>
<path d="M25.3333 24.6667H14.6667C14.2985 24.6667 14 24.9652 14 25.3333V28.6667C14 29.0348 14.2985 29.3333 14.6667 29.3333H25.3333C25.7015 29.3333 26 29.0348 26 28.6667V25.3333C26 24.9652 25.7015 24.6667 25.3333 24.6667ZM24.6667 28H15.3333V26H24.6667V28Z" fill="#1D2C39"/>
<path d="M34 28H31.3333C30.9652 28 30.6667 28.2985 30.6667 28.6667C30.6667 29.0348 30.9652 29.3333 31.3333 29.3333H34C34.3682 29.3333 34.6667 29.0348 34.6667 28.6667C34.6667 28.2985 34.3682 28 34 28Z" fill="#1D2C39"/>
<path d="M8.66667 28H6C5.63183 28 5.33333 28.2985 5.33333 28.6667C5.33333 29.0348 5.63183 29.3333 6 29.3333H8.66667C9.03483 29.3333 9.33333 29.0348 9.33333 28.6667C9.33333 28.2985 9.03483 28 8.66667 28Z" fill="#1D2C39"/>
<path d="M8.94817 4.66667C8.72317 4.66667 8.51334 4.78033 8.39017 4.9685C8.267 5.15667 8.24733 5.39467 8.3375 5.60067C8.97534 7.05833 10.4128 8 12 8C13.4368 8 14.7517 7.22783 15.461 6H24.5395C25.2485 7.22783 26.563 8 28.0002 8C29.587 8 31.0248 7.05833 31.663 5.60067C31.7532 5.39467 31.7333 5.157 31.6103 4.9685C31.4873 4.78033 31.2773 4.66667 31.0523 4.66667H29.3333V3.33333H31.052C31.277 3.33333 31.4868 3.21967 31.61 3.0315C31.733 2.843 31.7528 2.60533 31.6627 2.39933C31.0247 0.941667 29.5868 0 28 0C26.5628 0 25.2483 0.772167 24.5393 2H15.4608C14.7517 0.772167 13.4368 0 12 0C10.4128 0 8.97534 0.941667 8.3375 2.39933C8.24733 2.60533 8.26717 2.84333 8.39017 3.0315C8.51317 3.21967 8.72334 3.33333 8.94817 3.33333H10.6667V4.66667H8.94817ZM11.3333 2H10.2397C10.7172 1.57883 11.3393 1.33333 12 1.33333C13.0573 1.33333 14.0157 1.96167 14.4413 2.934C14.5475 3.1765 14.787 3.33333 15.052 3.33333H24.9482C25.2132 3.33333 25.4527 3.1765 25.5588 2.934C25.9843 1.96167 26.9423 1.33333 28 1.33333C28.6608 1.33333 29.2828 1.57883 29.7603 2H28.6667C28.2985 2 28 2.2985 28 2.66667V5.33333C28 5.7015 28.2985 6 28.6667 6H29.7603C29.2828 6.42117 28.6607 6.66667 28 6.66667C26.9423 6.66667 25.9843 6.03833 25.559 5.066C25.4528 4.8235 25.2133 4.66667 24.9483 4.66667H15.0522C14.7872 4.66667 14.5477 4.8235 14.4415 5.066C14.0157 6.03833 13.0573 6.66667 12 6.66667C11.3392 6.66667 10.7172 6.42117 10.2397 6H11.3333C11.7015 6 12 5.7015 12 5.33333V2.66667C12 2.2985 11.7015 2 11.3333 2Z" fill="#1D2C39"/>
<path d="M35.6667 2.4215C36.0835 2.4215 36.4217 2.0835 36.4217 1.66667C36.4217 1.24967 36.0837 0.911667 35.6667 0.911667C35.2497 0.911667 34.9117 1.24967 34.9117 1.66667C34.9117 2.0835 35.2498 2.4215 35.6667 2.4215Z" fill="#1D2C39"/>
<path d="M37 11.7548C37.4168 11.7548 37.755 11.4168 37.755 11C37.755 10.583 37.417 10.245 37 10.245C36.583 10.245 36.245 10.583 36.245 11C36.245 11.4168 36.5832 11.7548 37 11.7548Z" fill="#1D2C39"/>
</svg>
