<svg width="30" height="40" viewBox="0 0 30 40" fill="none" xmlns="http://www.w3.org/2000/svg">
<path d="M26.132 0H2.92969C1.31422 0 0 1.31422 0 2.92969V16.2105C0 17.826 1.31422 19.1402 2.92969 19.1402H7.08336C6.23086 19.6652 5.65555 20.6185 5.65555 21.6909V26.4623C5.65555 28.2253 6.07773 29.8979 6.91047 31.4336C7.33859 32.223 7.56484 33.137 7.56484 34.0763V39.4141C7.56484 39.7377 7.82719 40 8.15078 40C8.47438 40 8.73672 39.7377 8.73672 39.4141V34.0764C8.73672 32.9425 8.46141 31.8355 7.94063 30.875C7.20188 29.5127 6.82734 28.0281 6.82734 26.4624V21.691C6.82734 20.721 7.59352 19.9109 8.53531 19.8851C9.52367 19.8564 10.343 20.6496 10.343 21.6422V26.4624C10.343 26.7861 10.6053 27.0484 10.9289 27.0484C13.183 27.0484 15.0305 28.8836 15.0305 31.1499C15.0305 31.4736 15.2927 31.7359 15.6164 31.7359C15.9401 31.7359 16.2023 31.4736 16.2023 31.1499C16.2023 28.4323 14.1374 26.199 11.5148 25.9087V21.6422C11.5148 20.8445 11.1999 20.0987 10.628 19.5423C10.4407 19.36 10.2336 19.2063 10.012 19.0821C10.1442 18.6808 10.2915 18.2816 10.4535 17.8905C11.4511 15.4822 12.7396 13.7913 14.3735 12.157C14.7055 11.825 15.1469 11.6422 15.6164 11.6422C16.0859 11.6422 16.5273 11.825 16.8593 12.1571C17.5447 12.8424 17.5447 13.9576 16.8593 14.6429C14.0143 17.4879 12.6867 20.7341 12.6867 24.3375C12.6867 24.6612 12.9491 24.9234 13.2727 24.9234C13.5963 24.9234 13.8586 24.6612 13.8586 24.3375C13.8586 22.5102 14.259 20.7444 15.0182 19.1403H16.4288C15.5016 20.8223 15.0305 22.5662 15.0305 24.3375C15.0305 24.6612 15.2927 24.9234 15.6164 24.9234C15.9401 24.9234 16.2023 24.6612 16.2023 24.3375C16.2023 22.5706 16.7359 20.8237 17.7868 19.1403H19.1951C17.9862 20.8298 17.3742 22.5735 17.3742 24.3375C17.3742 24.6612 17.6365 24.9234 17.9602 24.9234C18.2838 24.9234 18.5461 24.6612 18.5461 24.3375C18.5461 22.5927 19.2622 20.8453 20.6745 19.1403H21.8684C21.7995 19.4848 21.6226 19.837 21.3427 20.18C21.3394 20.1841 21.3361 20.1882 21.3329 20.1924C20.2612 21.5799 19.718 22.9745 19.718 24.3376V28.2488C19.718 30.7412 19.0819 32.6678 17.8274 33.9749C17.0314 34.8044 16.593 35.9038 16.593 37.0708V39.4141C16.593 39.7377 16.8552 40 17.1789 40C17.5026 40 17.7648 39.7377 17.7648 39.4141V37.0707C17.7648 36.2077 18.0873 35.3964 18.6729 34.7863C20.1439 33.2536 20.8898 31.0541 20.8898 28.2488V24.3375C20.8898 23.2417 21.3494 22.0901 22.2556 20.9147C22.7145 20.3505 22.9841 19.7472 23.0547 19.1403H26.1321C27.7476 19.1403 29.0618 17.8261 29.0618 16.2106V2.92969C29.0617 1.31422 27.7475 0 26.132 0ZM27.8898 16.2105C27.8898 17.1798 27.1012 17.9684 26.132 17.9684H17.4635C17.4612 17.9684 17.4589 17.9684 17.4566 17.9684H15.6557C16.3589 16.8291 17.0209 16.1387 17.688 15.4716C18.2413 14.9182 18.546 14.1825 18.546 13.3999C18.546 12.6173 18.2413 11.8816 17.688 11.3284C17.1347 10.7749 16.3989 10.4702 15.6163 10.4702C14.8338 10.4702 14.098 10.7749 13.5448 11.3283C11.7888 13.0842 10.4223 14.9033 9.3707 17.442C9.29867 17.6159 9.23 17.7918 9.16328 17.9683H2.92961C1.96031 17.9683 1.1718 17.1797 1.1718 16.2105V2.92969C1.1718 1.96047 1.96031 1.17188 2.92961 1.17188H26.132C27.1012 1.17188 27.8898 1.96047 27.8898 2.92969V16.2105Z" fill="#1D2C39"/>
<path d="M10.3913 4.49234H5.70383C4.73453 4.49234 3.94602 5.28094 3.94602 6.25016V8.59391C3.94602 9.56312 4.73453 10.3517 5.70383 10.3517H10.3913C11.3606 10.3517 12.1491 9.56312 12.1491 8.59391V6.25016C12.1491 5.28094 11.3606 4.49234 10.3913 4.49234ZM10.9773 6.25016V6.83609H9.80547C9.80547 6.51242 9.54313 6.25016 9.21953 6.25016C8.89594 6.25016 8.63359 6.51242 8.63359 6.83609H7.4618V5.66422H10.3913C10.7145 5.66422 10.9773 5.92703 10.9773 6.25016ZM5.11789 8.59391V6.25016C5.11789 5.92703 5.3807 5.66422 5.70383 5.66422H6.28992V9.17984H5.70383C5.3807 9.17984 5.11789 8.91703 5.11789 8.59391ZM10.3913 9.17984H7.4618V8.00797H8.63359C8.63359 8.33164 8.89594 8.59391 9.21953 8.59391C9.54313 8.59391 9.80547 8.33164 9.80547 8.00797H10.9773V8.59391C10.9773 8.91703 10.7145 9.17984 10.3913 9.17984Z" fill="#1D2C39"/>
<path d="M5.62563 13.2417H4.06313C3.73953 13.2417 3.47719 13.504 3.47719 13.8277C3.47719 14.1513 3.73953 14.4136 4.06313 14.4136H5.62563C5.94922 14.4136 6.21156 14.1513 6.21156 13.8277C6.21156 13.504 5.94922 13.2417 5.62563 13.2417Z" fill="#1D2C39"/>
<path d="M10.3132 13.2417H7.96945C7.64586 13.2417 7.38352 13.504 7.38352 13.8277C7.38352 14.1513 7.64586 14.4136 7.96945 14.4136H10.3132C10.6368 14.4136 10.8991 14.1513 10.8991 13.8277C10.8991 13.504 10.6368 13.2417 10.3132 13.2417Z" fill="#1D2C39"/>
<path d="M21.7701 2.95836C19.7239 2.95836 18.0591 4.62312 18.0591 6.6693C18.0591 8.71547 19.7239 10.3802 21.7701 10.3802C22.4227 10.3802 23.0645 10.2083 23.6266 9.88305C23.9066 9.72094 24.0023 9.3625 23.8402 9.08242C23.678 8.80227 23.3195 8.70672 23.0395 8.86883C22.6557 9.09094 22.2167 9.20836 21.7701 9.20836C20.37 9.20836 19.231 8.0693 19.231 6.6693C19.231 5.2693 20.37 4.13023 21.7701 4.13023C23.1702 4.13023 24.3091 5.2693 24.3091 6.6693C24.3091 6.91953 24.2729 7.16648 24.2015 7.40344C24.1081 7.71328 24.2835 8.04016 24.5934 8.13359C24.9032 8.22695 25.2301 8.05156 25.3235 7.74172C25.428 7.395 25.4811 7.03414 25.4811 6.6693C25.481 4.62312 23.8162 2.95836 21.7701 2.95836Z" fill="#1D2C39"/>
</svg>
