<svg width="37" height="40" viewBox="0 0 37 40" fill="none" xmlns="http://www.w3.org/2000/svg">
<path d="M34 28V27.3334C34 26.4423 33.7571 25.6139 33.3334 24.9098V3.33336C33.3334 2.2 32.4667 1.33336 31.3334 1.33336H22.6667C22.6667 0.6 22.0667 0 21.3334 0H12C11.2666 0 10.6666 0.6 10.6666 1.33336H2C0.866641 1.33336 0 2.2 0 3.33336V38C0 39.1334 0.866641 40 2 40H36.6666V28H34ZM22.0001 28V36H4.00008V5.33336H10.6667C10.6667 6.06672 11.2667 6.66672 12.0001 6.66672H21.3334C22.0667 6.66672 22.6667 6.06672 22.6667 5.33336H29.3334V22.6667C26.7334 22.6667 24.6667 24.7334 24.6667 27.3334V28H22.0001ZM26 27.3334C26 25.4667 27.4666 24 29.3334 24C29.3984 24 29.4627 24.0022 29.5268 24.0057C29.549 24.007 29.5709 24.009 29.5929 24.0106C29.6184 24.0125 29.6437 24.0151 29.6691 24.0175C29.7305 24.0273 29.7941 24.0425 29.8666 24.0667C29.9455 24.093 30.0241 24.0979 30.0989 24.0869C30.913 24.2744 31.6216 24.7658 32.1334 25.5334C32.1591 25.585 32.1925 25.6288 32.2313 25.6659C32.5085 26.1541 32.6666 26.722 32.6666 27.3334V28.0001H26V27.3334ZM31.3334 2.66664C31.7334 2.66664 32 2.93328 32 3.33328V23.4913C31.6748 23.2666 31.3195 23.0817 30.9399 22.9449C30.8499 22.9109 30.7588 22.8803 30.6667 22.8527V5.33336C30.6667 4.6 30.0667 4 29.3334 4H22.6667V2.66664H31.3334ZM12 1.33336H21.3334V5.33328H12V1.33336ZM2 38.6666C1.6 38.6666 1.33336 38.4 1.33336 38V3.33336C1.33336 2.93336 1.6 2.66672 2 2.66672H10.6666V4H4C3.26664 4 2.66664 4.6 2.66664 5.33336V36C2.66664 36.7334 3.26664 37.3334 4 37.3334H22V38.6667L2 38.6666ZM35.3334 38.6666H23.3334V29.3333H35.3334V38.6666Z" fill="#1D2C39"/>
<path d="M29.3334 30.6666C27.8667 30.6666 26.6667 31.8666 26.6667 33.3333C26.6667 34.5699 27.5199 35.617 28.6667 35.915V36.6666C28.6667 37.0666 28.9334 37.3333 29.3334 37.3333C29.7334 37.3333 30 37.0666 30 36.6666V35.915C31.1468 35.617 32 34.57 32 33.3333C32 31.8666 30.8 30.6666 29.3334 30.6666ZM29.3334 34.6666C28.6 34.6666 28 34.0666 28 33.3333C28 32.5999 28.6 31.9999 29.3334 31.9999C30.0667 31.9999 30.6667 32.5999 30.6667 33.3333C30.6667 34.0666 30.0667 34.6666 29.3334 34.6666Z" fill="#1D2C39"/>
<path d="M25.6 20C26.6 20 27.3334 19.2666 27.4 18.2666V15.6666C27.4 14.6666 26.6 13.9333 25.6666 13.9333H24.2466L21.6666 10.3333C21.2666 9.73328 20.6 9.39992 19.8666 9.39992H16.9819C16.8905 9.35695 16.7846 9.33328 16.6666 9.33328C16.5487 9.33328 16.4428 9.35703 16.3514 9.39992H13.4666C12.7333 9.39992 12.0666 9.73328 11.6666 10.3333L9.08664 13.9333H7.73336C6.73336 13.9333 6 14.7333 6 15.6666V18.2666C6 19.2666 6.73336 20 7.73336 20H8.75164C9.04961 21.1468 10.0966 22 11.3334 22C12.57 22 13.6171 21.1468 13.9151 20H19.4184C19.7163 21.1468 20.7634 22 22.0001 22C23.2367 22 24.2838 21.1468 24.5818 20H25.6ZM20.5334 11L22.6193 13.9334H17.3334V10.6667H19.8C20.1334 10.6666 20.4 10.8 20.5334 11ZM12.6667 11C12.8667 10.8 13.1334 10.6666 13.4001 10.6666H16.0001V13.9333H10.646L12.6667 11ZM11.3334 20.6666C10.6 20.6666 10 20.0666 10 19.3333C10 18.5999 10.6 17.9999 11.3334 17.9999C12.0667 17.9999 12.6667 18.5999 12.6667 19.3333C12.6667 20.0666 12.0667 20.6666 11.3334 20.6666ZM11.4 16.6666C11.3878 16.6666 11.3759 16.6673 11.3637 16.6674C11.3536 16.6673 11.3436 16.6666 11.3334 16.6666C10.0966 16.6666 9.04961 17.5198 8.75164 18.6666H7.73336C7.53336 18.6666 7.33336 18.4666 7.33336 18.2666V15.6666C7.33336 15.4666 7.53336 15.2666 7.73336 15.2666H9.03352C9.12195 15.3087 9.22141 15.3333 9.33336 15.3333H24C24.112 15.3333 24.2114 15.3087 24.2998 15.2666H25.6666C25.8666 15.2666 26.0666 15.4666 26.0666 15.6666V18.2666C26.0666 18.4666 25.8666 18.6666 25.6666 18.6666H24.6C24.2666 17.5333 23.4 16.6666 22.1334 16.6666C22.1091 16.6666 22.0849 16.6676 22.0608 16.6682C22.0405 16.6677 22.0204 16.6666 22 16.6666C20.7633 16.6666 19.7162 17.5198 19.4183 18.6666H14C13.6667 17.5334 12.6667 16.6666 11.4 16.6666ZM22 20.6666C21.2666 20.6666 20.6666 20.0666 20.6666 19.3333C20.6666 18.5999 21.2666 17.9999 22 17.9999C22.7334 17.9999 23.3334 18.6 23.3334 19.3334C23.3334 20.0667 22.7334 20.6666 22 20.6666Z" fill="#1D2C39"/>
<path d="M16.6667 25.3334H6.66672C6.26672 25.3334 6.00008 25.6 6.00008 26C6.00008 26.4 6.26672 26.6666 6.66672 26.6666H16.6667C17.0667 26.6666 17.3334 26.4 17.3334 26C17.3334 25.6 17.0667 25.3334 16.6667 25.3334Z" fill="#1D2C39"/>
<path d="M16.6667 28.6666H6.66672C6.26672 28.6666 6.00008 28.9333 6.00008 29.3333C6.00008 29.7333 6.26672 29.9999 6.66672 29.9999H16.6667C17.0667 29.9999 17.3334 29.7333 17.3334 29.3333C17.3334 28.9333 17.0667 28.6666 16.6667 28.6666Z" fill="#1D2C39"/>
<path d="M16.6667 32H6.66672C6.26672 32 6.00008 32.2666 6.00008 32.6666C6.00008 33.0666 6.26672 33.3333 6.66672 33.3333H16.6667C17.0667 33.3333 17.3334 33.0666 17.3334 32.6666C17.3334 32.2666 17.0667 32 16.6667 32Z" fill="#1D2C39"/>
</svg>
