<svg width="40" height="32" viewBox="0 0 40 32" fill="none" xmlns="http://www.w3.org/2000/svg">
<path d="M37.8967 19.1671L34.7546 17.7307L31.9817 13.2742C31.1747 11.9589 29.741 11.1541 28.2043 11.1628H16.4C15.0093 11.1714 13.6958 11.8204 12.8544 12.9367L9.96132 16.7701L4.44979 12.8156C3.4196 12.0714 2.01167 12.1406 1.05874 12.9886L0.294681 13.6549C-0.0658864 13.9665 -0.100226 14.5203 0.217416 14.8751C0.535059 15.2299 1.07591 15.2731 1.42789 14.9529L2.19195 14.2866C2.54393 13.9751 3.06761 13.9492 3.45394 14.2261L8.51905 17.8605L3.30799 19.2969C1.7627 19.7209 0.681003 21.1401 0.672418 22.7582V25.06C0.681003 27.0416 2.28639 28.6425 4.25234 28.6425H4.72451C5.2396 30.5462 6.99951 32 9.07707 32C11.1546 32 12.9059 30.5462 13.4296 28.6425H26.7964C27.3115 30.5462 29.0714 32 31.1489 32C33.2265 32 34.9778 30.5462 35.5015 28.6425H36.4201C38.386 28.6425 39.9914 27.0416 40 25.06V22.4294C39.9829 21.0276 39.1673 19.7469 37.8967 19.1671ZM22.5641 12.8935H28.2044C29.1487 12.8935 30.0244 13.3867 30.5309 14.1915L32.5741 17.4797H22.5641V12.8935ZM14.2109 13.9838C14.7346 13.3002 15.5416 12.8935 16.3915 12.8935H20.8471V17.4797H11.5754L14.2109 13.9838ZM9.06857 30.278C7.53187 30.278 6.27847 29.0233 6.27847 27.4657C6.27847 25.9167 7.52328 24.6533 9.06857 24.6533C10.6053 24.6533 11.8587 25.9081 11.8587 27.4657C11.8587 29.0146 10.6139 30.278 9.06857 30.278ZM31.1404 30.278C29.6037 30.278 28.3503 29.0146 28.3503 27.4657C28.3503 25.9167 29.6037 24.6533 31.1404 24.6533C32.6771 24.6533 33.9305 25.9167 33.9305 27.4657C33.9305 29.0146 32.6857 30.278 31.1404 30.278ZM38.2745 25.06C38.2659 26.0898 37.4332 26.9118 36.4116 26.9118H35.6132C35.3127 24.4197 33.072 22.6458 30.5996 22.9486C28.5392 23.1996 26.9166 24.835 26.6677 26.9118H13.5413C13.2408 24.4197 11.0002 22.6458 8.52772 22.9486C6.46733 23.1996 4.84478 24.835 4.59582 26.9118H4.25242C3.23081 26.9118 2.39808 26.0898 2.38949 25.06V22.7582C2.39808 21.9189 2.9561 21.1833 3.7545 20.967L10.0129 19.245C10.0473 19.2363 10.0816 19.2277 10.1159 19.2104H33.8361L37.1842 20.742C37.8453 21.0449 38.2659 21.7025 38.2745 22.4381V25.06Z" fill="#1D2C39"/>
<path d="M8.87112 5.3218C8.87112 4.50838 8.58781 4.06706 8.38177 3.73824C8.23583 3.5046 8.16715 3.3921 8.16715 3.08924C8.16715 2.78637 8.23583 2.68253 8.38177 2.44024C8.58781 2.11141 8.87112 1.67009 8.87112 0.865333C8.87112 0.3894 8.48479 0 8.01262 0C7.54045 0 7.15413 0.3894 7.15413 0.865333C7.15413 1.1682 7.08545 1.27204 6.93951 1.51433C6.73347 1.84316 6.45016 2.28448 6.45016 3.08924C6.45016 3.894 6.73347 4.34397 6.93951 4.6728C7.08545 4.90644 7.15413 5.01893 7.15413 5.3218C7.15413 5.62466 7.08545 5.73716 6.93951 5.9708C6.73347 6.29962 6.45016 6.74094 6.45016 7.55435C6.45016 8.36777 6.73347 8.80909 6.93951 9.13791C7.08545 9.37155 7.15413 9.48405 7.15413 9.78691C7.15413 10.2628 7.54045 10.6522 8.01262 10.6522C8.48479 10.6522 8.87112 10.2628 8.87112 9.78691C8.87112 8.9735 8.58781 8.53218 8.38177 8.20335C8.23583 7.96971 8.16715 7.85722 8.16715 7.55435C8.16715 7.25149 8.23583 7.13899 8.38177 6.90535C8.58781 6.57653 8.87112 6.13521 8.87112 5.3218Z" fill="#1D2C39"/>
<path d="M11.3865 7.55435C11.3865 7.25149 11.4552 7.13899 11.6011 6.90535C11.8072 6.57653 12.0905 6.13521 12.0905 5.3218C12.0905 4.50838 11.8072 4.06706 11.6011 3.73824C11.4552 3.5046 11.3865 3.3921 11.3865 3.08924C11.3865 2.6133 11.0002 2.2239 10.528 2.2239C10.0558 2.2239 9.66951 2.6133 9.66951 3.08924C9.66951 3.90265 9.95282 4.34397 10.1589 4.6728C10.3048 4.90644 10.3735 5.01893 10.3735 5.3218C10.3735 5.62466 10.3048 5.73716 10.1589 5.9708C9.95282 6.29962 9.66951 6.74094 9.66951 7.55435C9.66951 8.36777 9.95282 8.80909 10.1589 9.13791C10.3048 9.37155 10.3735 9.48405 10.3735 9.78691C10.3735 10.2628 10.7598 10.6522 11.232 10.6522C11.7041 10.6522 12.0905 10.2628 12.0905 9.78691C12.0905 8.9735 11.8072 8.53218 11.6011 8.20335C11.4552 7.96971 11.3865 7.85722 11.3865 7.55435Z" fill="#1D2C39"/>
<path d="M4.95639 7.55435C4.95639 7.25149 5.02507 7.13899 5.17101 6.90535C5.37705 6.57653 5.66035 6.13521 5.66035 5.3218C5.66035 4.50838 5.37705 4.06706 5.17101 3.73824C5.02507 3.5046 4.95639 3.3921 4.95639 3.08924C4.95639 2.6133 4.57006 2.2239 4.09789 2.2239C3.62572 2.2239 3.2394 2.6133 3.2394 3.08924C3.2394 3.90265 3.5227 4.34397 3.72874 4.6728C3.87468 4.90644 3.94336 5.01893 3.94336 5.3218C3.94336 5.62466 3.87468 5.73716 3.72874 5.9708C3.5227 6.29962 3.2394 6.74094 3.2394 7.55435C3.2394 8.36777 3.5227 8.80909 3.72874 9.13791C3.87468 9.37155 3.94336 9.48405 3.94336 9.78691C3.94336 10.2628 4.32969 10.6522 4.80186 10.6522C5.27403 10.6522 5.66035 10.2628 5.66035 9.78691C5.66035 8.9735 5.37705 8.53218 5.17101 8.20335C5.02507 7.96971 4.95639 7.85722 4.95639 7.55435Z" fill="#1D2C39"/>
</svg>
