<svg width="40" height="40" viewBox="0 0 40 40" fill="none" xmlns="http://www.w3.org/2000/svg">
<path d="M38.4617 37.1625H37.2738V30.1959H38.4617C38.7853 30.1959 39.0476 29.9335 39.0476 29.6099C39.0476 29.2863 38.7853 29.024 38.4617 29.024H26.737V27.4686C26.737 26.4072 25.8734 25.5436 24.8119 25.5436H23.7617V24.3348C23.7617 23.1708 22.8311 22.2208 21.6749 22.188V12.7344C21.6749 12.4108 21.4126 12.1485 21.089 12.1485C20.7654 12.1485 20.503 12.4108 20.503 12.7344V22.1863H18.5447V8.64245H20.503V10C20.503 10.3236 20.7654 10.586 21.089 10.586C21.4126 10.586 21.6749 10.3236 21.6749 10V8.44713C21.6749 7.90862 21.2369 7.47057 20.6983 7.47057H20.1097V5.4833C21.1693 5.25447 22.0051 4.41861 22.234 3.35907H29.4152V4.42775L23.686 15.3136C23.4276 15.3414 23.1938 15.4902 23.0623 15.7179C22.9162 15.9709 22.9162 16.2852 23.0623 16.5383L24.4695 18.9756C24.6155 19.2286 24.8878 19.3858 25.18 19.3858H30.6957C31.0193 19.3858 31.2817 19.1235 31.2817 18.7999C31.2817 18.4763 31.0193 18.214 30.6957 18.214H25.383L24.3817 16.4796H35.6209L34.6196 18.214H33.4301C33.1065 18.214 32.8442 18.4763 32.8442 18.7999C32.8442 19.1235 33.1065 19.3858 33.4301 19.3858H34.8224C35.1146 19.3858 35.3867 19.2287 35.5328 18.9757L36.9402 16.5381C37.0862 16.2851 37.0862 15.9707 36.9401 15.7178C36.8086 15.49 36.5747 15.3411 36.3164 15.3135L30.5872 4.42775V3.35899H32.7805C33.1041 3.35899 33.3664 3.09665 33.3664 2.77306C33.3664 2.44946 33.1041 2.18712 32.7805 2.18712H22.234C21.9643 0.938597 20.8519 0 19.5238 0C18.1958 0 17.0833 0.938597 16.8136 2.18712H6.26713C5.94353 2.18712 5.68119 2.44946 5.68119 2.77306C5.68119 3.09665 5.94353 3.35899 6.26713 3.35899H8.46041V4.42767L2.73126 15.3136C2.4729 15.3414 2.23907 15.4902 2.10751 15.7179C1.96141 15.9709 1.96141 16.2852 2.10743 16.5383V16.5383L3.51478 18.9759C3.66087 19.2289 3.93306 19.386 4.22517 19.386H13.8676C14.1597 19.386 14.4319 19.2289 14.578 18.9758L15.9853 16.5383C16.1314 16.2854 16.1314 15.971 15.9853 15.718C15.8539 15.4903 15.62 15.3414 15.3615 15.3136L9.63229 4.42775V3.35899H16.8136C17.0425 4.41853 17.8783 5.25439 18.9378 5.48322V7.47049H18.3493C17.8108 7.47049 17.3727 7.90854 17.3727 8.44706V22.1879C16.2165 22.2207 15.2859 23.1708 15.2859 24.3348V25.5435H14.2357C13.1743 25.5435 12.3107 26.4071 12.3107 27.4685V29.0239H4.65525C2.08837 29.0239 0 31.1122 0 33.6792C0 36.246 2.08829 38.3343 4.65525 38.3343H7.94096V39.1793C7.94096 39.4854 8.1094 39.7638 8.38049 39.9059C8.65159 40.0479 8.97635 40.0281 9.22807 39.8538L10.6604 38.8625L12.0927 39.8538C12.2328 39.9507 12.3957 40 12.5593 40C12.6895 40 12.8201 39.9688 12.9403 39.9058C13.2114 39.7637 13.3798 39.4853 13.3798 39.1792V38.3343H38.4617C38.7853 38.3343 39.0476 38.0719 39.0476 37.7483C39.0476 37.4247 38.7853 37.1625 38.4617 37.1625ZM29.4153 15.3078H25.0134L29.4153 6.94385V15.3078ZM30.5872 6.94385L34.9891 15.3078H30.5872V6.94385ZM8.46041 6.94385V15.3078H4.05853L8.46041 6.94385ZM13.6646 18.214H4.42814L3.42681 16.4797H14.666L13.6646 18.214ZM14.0343 15.3078H9.63237V6.94385L14.0343 15.3078ZM17.9226 2.77306C17.9226 1.89016 18.6409 1.17188 19.5238 1.17188C20.4067 1.17188 21.125 1.89016 21.125 2.77306C21.125 3.65595 20.4067 4.37423 19.5238 4.37423C18.6409 4.37423 17.9226 3.65595 17.9226 2.77306ZM16.4578 24.3348C16.4578 23.7962 16.8958 23.3582 17.4343 23.3582H21.6132C22.1517 23.3582 22.5898 23.7962 22.5898 24.3348V25.5435H16.4578V24.3348ZM4.65525 37.1625C2.73454 37.1625 1.17188 35.5999 1.17188 33.6792C1.17188 31.7585 2.73446 30.1959 4.65525 30.1959H5.47088C5.17923 30.624 5.00845 31.1407 5.00845 31.6967V35.6617C5.00845 36.2177 5.17923 36.7344 5.47095 37.1625H4.65525ZM12.2078 38.5085L10.9938 37.6684C10.7932 37.5296 10.5275 37.5295 10.3269 37.6684L9.11276 38.5085V32.8043H12.2078V38.5085ZM36.1019 31.6325H23.4366C23.113 31.6325 22.8507 31.8949 22.8507 32.2185C22.8507 32.542 23.113 32.8044 23.4366 32.8044H36.102V34.5541H23.4366C23.113 34.5541 22.8507 34.8164 22.8507 35.14C22.8507 35.4636 23.113 35.726 23.4366 35.726H36.102V37.1626H13.3797V32.8044H18.3239C18.6475 32.8044 18.9098 32.542 18.9098 32.2185C18.9098 31.8949 18.6475 31.6325 18.3239 31.6325H7.68112C7.35752 31.6325 7.09518 31.8949 7.09518 32.2185C7.09518 32.542 7.35752 32.8044 7.68112 32.8044H7.94096V37.1626H7.68112C6.85354 37.1626 6.18025 36.4893 6.18025 35.6617V31.6968C6.18025 30.8692 6.85354 30.1959 7.68112 30.1959H17.1019C17.4255 30.1959 17.6879 29.9336 17.6879 29.61C17.6879 29.2864 17.4255 29.0241 17.1019 29.0241H13.4825V27.4687C13.4825 27.0534 13.8204 26.7155 14.2357 26.7155H24.8119C25.2272 26.7155 25.5651 27.0534 25.5651 27.4687V29.0241H19.8363C19.5127 29.0241 19.2504 29.2864 19.2504 29.61C19.2504 29.9336 19.5127 30.1959 19.8363 30.1959H36.1019V31.6325Z" fill="#1D2C39"/>
</svg>
