<svg width="41" height="40" viewBox="0 0 41 40" fill="none" xmlns="http://www.w3.org/2000/svg">
<path d="M29.0463 37.4181C30.1138 37.4181 30.9827 36.5492 30.9827 35.4817C30.9827 34.4142 30.1138 33.5453 29.0463 33.5453C27.9788 33.5453 27.1099 34.4142 27.1099 35.4817C27.1099 36.5492 27.9788 37.4181 29.0463 37.4181ZM29.0463 34.8362C29.4024 34.8362 29.6917 35.1262 29.6917 35.4817C29.6917 35.8375 29.4024 36.1272 29.0463 36.1272C28.6901 36.1272 28.4008 35.8375 28.4008 35.4817C28.4008 35.1262 28.6901 34.8362 29.0463 34.8362Z" fill="#1D2C39"/>
<path d="M34.2101 19.3449C34.0383 19.3449 33.8744 19.4126 33.7537 19.534L29.5647 23.7232L26.7613 22.3217L28.9379 19.0571C29.0778 18.8466 29.0831 18.5743 28.9501 18.3593C28.8171 18.1444 28.5757 18.0243 28.3207 18.0583L23.8825 18.6137V15.472C23.8825 15.2114 23.7255 14.9756 23.4841 14.8757C23.2427 14.7761 22.9653 14.831 22.7806 15.0157L20.0097 17.7867L17.2387 15.0157C17.0546 14.831 16.7772 14.7761 16.5352 14.8757C16.2938 14.9756 16.1368 15.2114 16.1368 15.472V18.6137L11.6986 18.059C11.4442 18.0256 11.2015 18.1456 11.0692 18.36C10.9362 18.5749 10.9415 18.8472 11.0815 19.0578L13.258 22.3223L10.4546 23.7239L6.26562 19.5346C6.14491 19.4126 5.98102 19.3449 5.80925 19.3449H0V20.6358H5.54199L13.0986 28.1924C13.2193 28.3137 13.3832 28.3815 13.5549 28.3815H15.4913V31.6089C15.4913 31.9653 15.7797 32.2543 16.1368 32.2543H18.0732V34.8362H15.4397C15.1248 32.6499 13.2445 30.9634 10.973 30.9634C8.70159 30.9634 6.82127 32.6499 6.50642 34.8362H0V36.1272H6.50642C6.82127 38.3135 8.70159 40 10.973 40C13.2445 40 15.1248 38.3135 15.4397 36.1272H18.7187C19.0758 36.1272 19.3642 35.8382 19.3642 35.4817V29.027C19.3642 27.9595 18.4953 27.0905 17.4278 27.0905H16.4041L17.8841 25.6105C18.0364 25.4583 18.1029 25.2392 18.0603 25.0277L17.7007 23.2313L19.6771 24.4169C19.8811 24.5395 20.1376 24.5395 20.3415 24.4169L22.318 23.2313L21.9584 25.0277C21.9164 25.2392 21.9823 25.4583 22.1345 25.6105L23.6152 27.0905H22.5915C21.5241 27.0905 20.6551 27.9595 20.6551 29.027V35.4817C20.6551 35.8382 20.9435 36.1272 21.3006 36.1272H24.5797C24.8945 38.3135 26.7748 40 29.0463 40C31.3177 40 33.198 38.3135 33.5129 36.1272H40.0193V34.8362H33.5129C33.198 32.6499 31.3177 30.9634 29.0463 30.9634C26.7748 30.9634 24.8945 32.6499 24.5797 34.8362H21.9461V32.2543H23.8825C24.2396 32.2543 24.528 31.9653 24.528 31.6089V28.3815H26.4644C26.6362 28.3815 26.8 28.3137 26.9207 28.1924L34.4773 20.6358H40.0193V19.3449H34.2101ZM10.973 38.7091C9.19357 38.7091 7.74567 37.2612 7.74567 35.4817C7.74567 33.7022 9.19357 32.2543 10.973 32.2543C12.7525 32.2543 14.2004 33.7022 14.2004 35.4817C14.2004 37.2612 12.7525 38.7091 10.973 38.7091ZM29.0463 32.2543C30.8257 32.2543 32.2736 33.7022 32.2736 35.4817C32.2736 37.2612 30.8257 38.7091 29.0463 38.7091C27.2668 38.7091 25.8189 37.2612 25.8189 35.4817C25.8189 33.7022 27.2668 32.2543 29.0463 32.2543ZM18.0732 29.027V30.9634H16.7823V28.3815H17.4278C17.7839 28.3815 18.0732 28.6714 18.0732 29.027ZM23.237 30.9634H21.9461V29.027C21.9461 28.6714 22.2354 28.3815 22.5915 28.3815H23.237V30.9634ZM26.1971 27.0905H25.4407L23.2925 24.9417L23.8702 22.0532C23.9206 21.8029 23.8179 21.546 23.6096 21.3989C23.4009 21.251 23.1248 21.2413 22.9051 21.373L20.0097 23.1106L17.1148 21.3736C16.8945 21.2425 16.619 21.2523 16.4104 21.3995C16.2021 21.5467 16.0993 21.8029 16.1497 22.0541L16.7275 24.9423L14.5786 27.0905H13.8222L11.4171 24.6855L14.4888 23.1493C14.6549 23.0667 14.7762 22.9164 14.8244 22.7374C14.8717 22.5587 14.8402 22.3677 14.7375 22.2133L12.9378 19.5141L16.7022 19.9847C16.8863 20.0099 17.0707 19.951 17.2097 19.8277C17.3483 19.7064 17.4278 19.5302 17.4278 19.3449V17.0303L19.5533 19.1558C19.8057 19.4082 20.2136 19.4082 20.466 19.1558L22.5915 17.0303V19.3449C22.5915 19.5302 22.671 19.7064 22.8096 19.829C22.9486 19.9516 23.1343 20.0105 23.3171 19.9859L27.0815 19.5154L25.2819 22.2145C25.1791 22.369 25.1476 22.5593 25.1949 22.7386C25.2425 22.9177 25.3644 23.0674 25.5305 23.1506L28.6022 24.6867L26.1971 27.0905Z" fill="#1D2C39"/>
<path d="M35.0446 22.1159L31.8173 25.3432C31.6959 25.4639 31.6282 25.6285 31.6282 25.7996V27.736C31.6282 28.0925 31.9165 28.3815 32.2736 28.3815H40.0193V27.0905H32.9191V26.0669L35.7683 23.2177H40.0193V21.9268H35.501C35.3292 21.9268 35.1653 21.9945 35.0446 22.1159Z" fill="#1D2C39"/>
<path d="M37.4374 29.6724H40.0193V30.9634H37.4374V29.6724Z" fill="#1D2C39"/>
<path d="M10.973 33.5453C9.90555 33.5453 9.03662 34.4142 9.03662 35.4817C9.03662 36.5492 9.90555 37.4181 10.973 37.4181C12.0405 37.4181 12.9095 36.5492 12.9095 35.4817C12.9095 34.4142 12.0405 33.5453 10.973 33.5453ZM10.973 36.1272C10.6169 36.1272 10.3276 35.8375 10.3276 35.4817C10.3276 35.1262 10.6169 34.8362 10.973 34.8362C11.3292 34.8362 11.6185 35.1262 11.6185 35.4817C11.6185 35.8375 11.3292 36.1272 10.973 36.1272Z" fill="#1D2C39"/>
<path d="M8.39114 27.736V25.7996C8.39114 25.6285 8.32338 25.4639 8.20204 25.3432L4.97468 22.1159C4.85397 21.9945 4.69008 21.9268 4.51831 21.9268H0V23.2177H4.25104L7.1002 26.0669V27.0905H0V28.3815H7.74567C8.10276 28.3815 8.39114 28.0925 8.39114 27.736Z" fill="#1D2C39"/>
<path d="M0 29.6724H2.58189V30.9634H0V29.6724Z" fill="#1D2C39"/>
<path d="M11.6185 14.1811H28.4008C28.6378 14.1811 28.8553 14.0512 28.9681 13.8435C29.0813 13.6358 29.0709 13.3828 28.9423 13.1839L20.5511 0.274436C20.3132 -0.0914787 19.7061 -0.0914787 19.4682 0.274436L11.077 13.1839C10.9485 13.3828 10.9381 13.6358 11.0512 13.8435C11.164 14.0512 11.3815 14.1811 11.6185 14.1811ZM20.0097 1.81059L27.2113 12.8901H12.808L20.0097 1.81059Z" fill="#1D2C39"/>
<path d="M19.3642 10.3083H20.6551V11.5992H19.3642V10.3083Z" fill="#1D2C39"/>
<path d="M19.3642 5.14448H20.6551V9.01731H19.3642V5.14448Z" fill="#1D2C39"/>
</svg>
