<svg width="37" height="40" viewBox="0 0 37 40" fill="none" xmlns="http://www.w3.org/2000/svg">
<path d="M33.3334 24.4933V3.33336C33.3334 2.2 32.4667 1.33336 31.3334 1.33336H22.6667C22.6667 0.6 22.0667 0 21.3334 0H12C11.2666 0 10.6666 0.6 10.6666 1.33336H2C0.866641 1.33336 0 2.2 0 3.33336V38C0 39.1334 0.866641 40 2 40H28C32.8 40 36.6666 36.1334 36.6666 31.3334C36.6667 28.5479 35.3644 26.077 33.3334 24.4933ZM31.3334 2.66664C31.7334 2.66664 32 2.93328 32 3.33328V23.6377C31.5752 23.4173 31.1295 23.231 30.6666 23.0823V5.33336C30.6666 4.6 30.0666 4 29.3333 4H22.6666V2.66664H31.3334ZM19.338 31.6046C19.3384 31.6178 19.339 31.631 19.3395 31.6441C19.3955 33.2465 19.8823 34.7358 20.6887 36H4V5.33336H10.6666C10.6666 6.06672 11.2666 6.66672 12 6.66672H21.3334C22.0667 6.66672 22.6667 6.06672 22.6667 5.33336H29.3334V22.768C29.2403 22.7537 29.1466 22.7413 29.0526 22.73C29.046 22.7292 29.0394 22.7285 29.0328 22.7277C28.9593 22.7191 28.8855 22.7113 28.8115 22.7045C28.7928 22.7028 28.7742 22.7012 28.7555 22.6996C28.6928 22.6942 28.6299 22.6895 28.5668 22.6855C28.5438 22.6841 28.5208 22.6825 28.4978 22.6812C28.4367 22.6777 28.3755 22.6752 28.3141 22.673C28.2916 22.6722 28.2693 22.6711 28.2469 22.6705C28.1648 22.6682 28.0827 22.6668 28.0001 22.6668C23.2001 22.6668 19.3334 26.5334 19.3334 31.3334C19.3334 31.4241 19.3352 31.5145 19.338 31.6046ZM12 1.33336H21.3334V5.33328H12V1.33336ZM2 38.6666C1.6 38.6666 1.33336 38.4 1.33336 38V3.33336C1.33336 2.93336 1.6 2.66672 2 2.66672H10.6666V4H4C3.26664 4 2.66664 4.6 2.66664 5.33336V36C2.66664 36.7334 3.26664 37.3334 4 37.3334H21.7365C22.223 37.8412 22.771 38.2894 23.3687 38.6667L2 38.6666ZM28 38.6666C25.8814 38.6666 23.9802 37.7797 22.6447 36.3553C22.6179 36.3003 22.5816 36.2482 22.5334 36.2C21.4092 34.9509 20.7532 33.3509 20.6748 31.6738C20.6746 31.6697 20.6745 31.6656 20.6743 31.6615C20.6694 31.5523 20.6667 31.443 20.6667 31.3333C20.6667 27.2666 23.9334 23.9999 28.0001 23.9999C28.0859 23.9999 28.1715 24.0019 28.2569 24.0048C28.2647 24.0051 28.2724 24.0055 28.2802 24.0057C28.2995 24.0064 28.3188 24.0075 28.3381 24.0084C28.3949 24.0109 28.4516 24.0143 28.5081 24.0181C28.5596 24.0218 28.6112 24.0255 28.6627 24.0305C28.6698 24.0312 28.677 24.032 28.6841 24.0327C29.0561 24.0701 29.4281 24.1426 29.8001 24.2666C29.8778 24.2926 29.9556 24.2978 30.0334 24.2873C30.7336 24.4899 31.4116 24.7993 32.0598 25.2167C34.0364 26.5269 35.3334 28.7711 35.3334 31.3333C35.3334 35.4 32.0667 38.6666 28 38.6666Z" fill="#1D2C39"/>
<path d="M31.3334 28C31.0667 27.7334 30.6667 27.7334 30.4 28L28 30.4L25.6 28C25.3334 27.7334 24.9334 27.7334 24.6666 28C24.4 28.2666 24.4 28.6666 24.6666 28.9334L27.0666 31.3334L24.7333 33.6667C24.4666 33.9334 24.4666 34.3334 24.7333 34.6001C24.8666 34.7334 24.9999 34.8001 25.1999 34.8001C25.3333 34.8001 25.5333 34.7334 25.6666 34.6001L27.9999 32.2667L30.3334 34.6C30.4667 34.7334 30.6 34.8 30.8 34.8C31 34.8 31.2 34.7334 31.2666 34.6C31.5333 34.3334 31.5333 33.9334 31.2666 33.6666L28.9333 31.3333L31.3333 28.9333C31.6 28.6666 31.6 28.2666 31.3334 28Z" fill="#1D2C39"/>
<path d="M22 22C23.2366 22 24.2838 21.1468 24.5817 20H25.6C26.6 20 27.3334 19.2666 27.4 18.2666V15.6666C27.4 14.6666 26.6 13.9333 25.6666 13.9333H24.2466L21.6666 10.3333C21.2666 9.73328 20.6 9.39992 19.8666 9.39992H16.9819C16.8905 9.35695 16.7846 9.33328 16.6666 9.33328C16.5487 9.33328 16.4428 9.35703 16.3514 9.39992H13.4666C12.7333 9.39992 12.0666 9.73328 11.6666 10.3333L9.08664 13.9333H7.73336C6.73336 13.9333 6 14.7333 6 15.6666V18.2666C6 19.2666 6.73336 20 7.73336 20H8.75164C9.04961 21.1468 10.0966 22 11.3334 22C12.57 22 13.6171 21.1468 13.9151 20H19.4184C19.7163 21.1468 20.7634 22 22 22ZM22 20.6666C21.2666 20.6666 20.6666 20.0666 20.6666 19.3333C20.6666 18.5999 21.2666 17.9999 22 17.9999C22.7334 17.9999 23.3334 18.6 23.3334 19.3334C23.3334 20.0667 22.7334 20.6666 22 20.6666ZM20.5334 11L22.6193 13.9334H17.3334V10.6667H19.8C20.1334 10.6666 20.4 10.8 20.5334 11ZM12.6667 11C12.8667 10.8 13.1334 10.6666 13.4001 10.6666H16.0001V13.9333H10.646L12.6667 11ZM11.3334 20.6666C10.6 20.6666 10 20.0666 10 19.3333C10 18.5999 10.6 17.9999 11.3334 17.9999C12.0667 17.9999 12.6667 18.5999 12.6667 19.3333C12.6667 20.0666 12.0667 20.6666 11.3334 20.6666ZM11.4 16.6666C11.3878 16.6666 11.3759 16.6673 11.3637 16.6674C11.3536 16.6673 11.3436 16.6666 11.3334 16.6666C10.0966 16.6666 9.04961 17.5198 8.75164 18.6666H7.73336C7.53336 18.6666 7.33336 18.4666 7.33336 18.2666V15.6666C7.33336 15.4666 7.53336 15.2666 7.73336 15.2666H9.03352C9.12195 15.3087 9.22141 15.3333 9.33336 15.3333H24C24.112 15.3333 24.2114 15.3087 24.2998 15.2666H25.6666C25.8666 15.2666 26.0666 15.4666 26.0666 15.6666V18.2666C26.0666 18.4666 25.8666 18.6666 25.6666 18.6666H24.6C24.2666 17.5333 23.4 16.6666 22.1334 16.6666C22.1091 16.6666 22.0849 16.6676 22.0608 16.6682C22.0405 16.6677 22.0204 16.6666 22 16.6666C20.7633 16.6666 19.7162 17.5198 19.4183 18.6666H14C13.6667 17.5334 12.6667 16.6666 11.4 16.6666Z" fill="#1D2C39"/>
<path d="M16.6667 25.3334H6.66672C6.26672 25.3334 6.00008 25.6 6.00008 26C6.00008 26.4 6.26672 26.6666 6.66672 26.6666H16.6667C17.0667 26.6666 17.3334 26.4 17.3334 26C17.3334 25.6 17.0667 25.3334 16.6667 25.3334Z" fill="#1D2C39"/>
<path d="M16.6667 28.6666H6.66672C6.26672 28.6666 6.00008 28.9333 6.00008 29.3333C6.00008 29.7333 6.26672 29.9999 6.66672 29.9999H16.6667C17.0667 29.9999 17.3334 29.7333 17.3334 29.3333C17.3334 28.9333 17.0667 28.6666 16.6667 28.6666Z" fill="#1D2C39"/>
<path d="M16.6667 32H6.66672C6.26672 32 6.00008 32.2666 6.00008 32.6666C6.00008 33.0666 6.26672 33.3333 6.66672 33.3333H16.6667C17.0667 33.3333 17.3334 33.0666 17.3334 32.6666C17.3334 32.2666 17.0667 32 16.6667 32Z" fill="#1D2C39"/>
</svg>
