<svg width="40" height="40" viewBox="0 0 40 40" fill="none" xmlns="http://www.w3.org/2000/svg">
<path d="M39.3548 24.5161C39.7111 24.5161 40 24.2273 40 23.871V0.645161C40 0.288871 39.7111 0 39.3548 0H35.4839C35.3127 0 35.1487 0.0680645 35.0277 0.189032L24.8942 10.3226H19.3548V5.80645C19.3548 5.63532 19.2868 5.47129 19.1658 5.35032L14.0045 0.189032C13.7525 -0.0629032 13.344 -0.0628226 13.0921 0.189194C12.9712 0.310161 12.9033 0.474113 12.9032 0.645161V7.09677H6.45161V0.645161C6.45153 0.288871 6.16266 8.06451e-05 5.80629 0.00016129C5.63524 0.00016129 5.47129 0.0681452 5.35032 0.189032L0.189032 5.35032C0.0680645 5.47129 0 5.63532 0 5.80645V10.9677C0 11.1389 0.0680645 11.3029 0.189032 11.4239L5.16129 16.3961V39.3548C5.16129 39.7111 5.45016 40 5.80645 40H13.5484C13.9047 40 14.1935 39.7111 14.1935 39.3548V20.6452H16.129C16.4853 20.6452 16.7742 20.3563 16.7742 20C16.7742 17.5058 18.7961 15.4839 21.2903 15.4839C23.7845 15.4839 25.8064 17.5058 25.8064 20C25.8064 20.3563 26.0953 20.6452 26.4516 20.6452H27.0968V23.871C27.0968 24.2273 27.3856 24.5161 27.7419 24.5161H34.8387V28.3871H34.1935C33.8372 28.3871 33.5484 28.676 33.5484 29.0323V39.3548C33.5484 39.7111 33.8372 40 34.1935 40H39.3548C39.7111 40 40 39.7111 40 39.3548V29.0323C40 28.676 39.7111 28.3871 39.3548 28.3871H38.7097V24.5161H39.3548ZM38.7097 10.3226H33.5484V7.36387L37.0413 3.87097H38.7097V10.3226ZM12.9032 38.7097H9.03226V14.8387C9.03226 14.6676 8.96419 14.5035 8.84322 14.3826L4.97226 10.5116L4.06 11.4239L7.74193 15.1058V38.7097H6.45161V16.129C6.45161 15.9579 6.38355 15.7939 6.26258 15.6729L1.29032 10.7006V6.07355L5.16129 2.20258V7.74193C5.16129 8.09822 5.45016 8.38709 5.80645 8.38709H13.5484C13.9047 8.38709 14.1935 8.09822 14.1935 7.74193V2.20258L18.0645 6.07355V10.3226H16.129C15.9579 10.3226 15.7939 10.3906 15.6729 10.5116L11.8019 14.3826C11.681 14.5035 11.6129 14.6676 11.6129 14.8387V20C11.6129 20.3563 11.9018 20.6452 12.2581 20.6452H12.9032V38.7097ZM27.0606 19.3548C26.7287 16.4178 24.246 14.1972 21.2903 14.1935C18.3346 14.1972 15.8519 16.4178 15.52 19.3548H12.9032V15.1058L16.3961 11.6129H25.1613C25.3324 11.6129 25.4964 11.5448 25.6174 11.4239L35.751 1.29032H38.7097V2.58064H36.7742C36.6031 2.58064 36.439 2.64871 36.3181 2.76968L32.4471 6.64064C32.3261 6.76161 32.2581 6.92564 32.2581 7.09677V10.9677C32.2581 11.324 32.5469 11.6129 32.9032 11.6129H38.7097V19.3548H27.0606ZM34.8387 29.6774H36.5071L34.8387 31.3458V29.6774ZM36.129 28.3871V24.5161H37.4193V28.3871H36.129ZM38.7097 38.7097H37.0413L38.7097 37.0413V38.7097ZM38.7097 35.2168L35.2168 38.7097H34.8387V37.0413L38.7097 33.1703V35.2168ZM38.7097 31.3458L34.8387 35.2168V33.1703L38.3316 29.6774H38.7097V31.3458ZM28.3871 23.2258V20.6452H38.7097V23.2258H28.3871Z" fill="#1D2C39"/>
<path d="M23.2258 18.7097C23.2258 17.6407 22.3593 16.7742 21.2903 16.7742C20.2214 16.7742 19.3548 17.6407 19.3548 18.7097C19.3548 19.7786 20.2214 20.6452 21.2903 20.6452C22.3593 20.6452 23.2258 19.7786 23.2258 18.7097ZM20.6452 18.7097C20.6452 18.3534 20.934 18.0645 21.2903 18.0645C21.6466 18.0645 21.9355 18.3534 21.9355 18.7097C21.9355 19.066 21.6466 19.3548 21.2903 19.3548C20.934 19.3548 20.6452 19.066 20.6452 18.7097Z" fill="#1D2C39"/>
<path d="M24.7052 27.6639C24.3431 27.2995 23.8504 27.0953 23.3368 27.0968H23.1148C22.6771 27.0985 22.2531 27.2501 21.9135 27.5264C21.8064 26.5496 20.9827 25.8091 20 25.8064H17.4194C16.3504 25.8064 15.4839 26.673 15.4839 27.7419V38.0645C15.4839 39.1335 16.3504 40 17.4194 40H20C21.0689 40 21.9355 39.1335 21.9355 38.0645V34.4606L26.9077 39.4329C27.2698 39.7972 27.7625 40.0014 28.2761 40H28.4981C29.0117 40.0014 29.5044 39.7972 29.8664 39.4329L31.691 37.6084C32.0555 37.2462 32.2597 36.7531 32.2581 36.2393V36.0187C32.2597 35.5049 32.0555 35.0118 31.691 34.6497L24.7052 27.6639ZM20.6452 31.3458L19.5439 32.4471L20.4561 33.3593L20.6452 33.1703V35.2168L19.5439 36.3181L20.4561 37.2303L20.6452 37.0413V38.0645C20.6452 38.4208 20.3563 38.7097 20 38.7097H17.4194C17.0631 38.7097 16.7742 38.4208 16.7742 38.0645V37.0413L16.9632 37.2303L17.8755 36.3181L16.7742 35.2168V33.1703L16.9632 33.3593L17.8755 32.4471L16.7742 31.3458V29.2993L16.9632 29.4884L17.8755 28.5761L16.8194 27.52C16.9106 27.2669 17.1503 27.0979 17.4194 27.0968H20C20.269 27.0979 20.5087 27.2669 20.6 27.52L19.5439 28.5761L20.4561 29.4884L20.6452 29.2993V31.3458ZM30.9677 36.2393C30.9679 36.4106 30.8998 36.575 30.7787 36.6961L28.9542 38.5206C28.8329 38.6411 28.669 38.709 28.4981 38.7097H28.2761C28.1052 38.709 27.9413 38.6411 27.82 38.5206L27.3639 38.0645H28.3871V36.7742H26.0735L24.7832 35.4839H25.8064V34.1935H23.4929L22.2026 32.9032H23.2258V31.6129H21.9355V29.2993L22.6587 28.5761C22.78 28.4556 22.9439 28.3877 23.1148 28.3871H23.3368C23.5077 28.3877 23.6716 28.4556 23.7929 28.5761L23.871 28.6542V30.9677H25.1613V29.9445L26.4516 31.2348V33.5484H27.7419V32.5252L29.0323 33.8155V36.129H30.3226V35.1058L30.7787 35.5619C30.8998 35.6831 30.9679 35.8474 30.9677 36.0187V36.2393Z" fill="#1D2C39"/>
</svg>
