<svg width="40" height="27" viewBox="0 0 40 27" fill="none" xmlns="http://www.w3.org/2000/svg">
<path d="M0.666682 26.6667H39.3333C39.5101 26.6667 39.6797 26.5946 39.8047 26.4663C39.9298 26.3381 40 26.1641 40 25.9827V15.0391C40 14.8577 39.9298 14.6837 39.8047 14.5554C39.6797 14.4272 39.5101 14.3551 39.3333 14.3551C37.6068 14.3551 36.7897 13.7773 35.8434 13.108C35.2569 12.6929 34.6184 12.2485 33.7507 11.9538L33.5277 10.7838C33.506 10.6701 33.4566 10.5639 33.384 10.4752C33.3114 10.3864 33.2181 10.318 33.1127 10.2765L26.3535 7.61032L22.7507 2.19143C22.651 2.04153 22.4974 1.93836 22.3236 1.90459L12.4971 0.0033079C12.466 0.00145483 12.4348 0.00182625 12.4037 0.0044194C12.2604 -0.00679525 12.1174 0.0304744 11.9968 0.110522L6.6736 3.8364L2.65043 4.39606C2.51167 4.41532 2.38235 4.47891 2.2808 4.57781C2.17925 4.67672 2.11063 4.80592 2.08468 4.94709L1.34477 8.98255C1.32567 9.08679 1.33046 9.19416 1.35876 9.29617C1.38706 9.39818 1.4381 9.49205 1.50785 9.57034L3.55193 11.8666C3.53968 11.9949 3.53018 12.1218 3.52951 12.2496C2.80201 11.8891 1.9096 11.6192 0.666682 11.6192C0.489871 11.6192 0.320302 11.6913 0.195278 11.8195C0.0702533 11.9478 1.54972e-05 12.1218 1.54972e-05 12.3032V25.9827C1.54972e-05 26.1641 0.0702533 26.3381 0.195278 26.4663C0.320302 26.5946 0.489871 26.6667 0.666682 26.6667ZM31.5973 17.091C33.3236 17.091 34.1407 17.6688 35.0866 18.3381C35.9655 18.9595 36.9489 19.6552 38.6667 19.8001V22.5286C37.3805 22.3984 36.6583 21.8923 35.8434 21.316C34.8571 20.6178 33.7386 19.8269 31.5973 19.8269C29.4561 19.8269 28.3373 20.6178 27.3506 21.3158C26.4046 21.985 25.5876 22.5628 23.8613 22.5628C22.1351 22.5628 21.3197 21.985 20.3743 21.3158C19.3883 20.6178 18.2708 19.8269 16.1305 19.8269C13.9902 19.8269 12.8714 20.6178 11.8851 21.3158C10.9394 21.985 10.1228 22.5628 8.39718 22.5628C6.6716 22.5628 5.85551 21.985 4.91051 21.3158C4.03335 20.695 3.04693 20.0036 1.33335 19.858V17.1231C2.6201 17.2527 3.33885 17.7613 4.15335 18.3381C5.13935 19.0357 6.25685 19.8269 8.39718 19.8269C10.5375 19.8269 11.6559 19.0361 12.6423 18.3381C13.5879 17.6688 14.4046 17.091 16.1305 17.091C17.8564 17.091 18.6722 17.6688 19.6172 18.3381C20.6032 19.0357 21.7207 19.8269 23.8613 19.8269C26.002 19.8269 27.1211 19.0361 28.1074 18.3381C29.0538 17.6688 29.8708 17.091 31.5973 17.091ZM38.6667 25.2987H1.33335V21.2269C2.6201 21.3565 3.33885 21.8652 4.15335 22.4419C5.13935 23.1396 6.25685 23.9308 8.39718 23.9308C10.5375 23.9308 11.6559 23.1399 12.6423 22.4419C13.5879 21.7726 14.4046 21.1949 16.1305 21.1949C17.8564 21.1949 18.6722 21.7726 19.6172 22.4419C20.6032 23.1396 21.7207 23.9308 23.8613 23.9308C26.002 23.9308 27.1211 23.1399 28.1074 22.4419C29.0538 21.7726 29.8708 21.1949 31.5973 21.1949C33.3239 21.1949 34.1407 21.7726 35.0866 22.4419C35.9655 23.0634 36.9489 23.7591 38.6667 23.9039V25.2987ZM32.3348 11.6534C32.1027 11.6315 31.8582 11.6192 31.5973 11.6192C30.4787 11.6192 29.6428 11.837 28.9557 12.1427C28.8296 12.1064 28.6973 12.0622 28.5846 12.0416C27.7139 11.8769 26.8147 12.0131 26.0275 12.4288C25.2404 12.8446 24.6098 13.5163 24.2346 14.339C24.1122 14.3456 23.9942 14.3551 23.8615 14.3551C22.1365 14.3551 21.3198 13.7773 20.3745 13.108C19.4428 12.4485 18.3828 11.7144 16.4643 11.6348L17.2809 7.1954L25.7463 8.83609L32.2903 11.4175L32.3348 11.6534ZM12.5208 1.4005L16.8353 2.23675L16.2173 5.59729L8.62634 4.12597L12.5208 1.4005ZM18.1453 2.49067L21.8037 3.1997L24.4605 7.19506L17.5277 5.85131L18.1453 2.49067ZM3.30601 5.68518L6.90476 5.18443L15.9702 6.94148L15.0958 11.6956C14.2389 11.8092 13.4153 12.1079 12.6792 12.5721L11.5208 12.3439C11.5389 11.422 11.2536 10.5208 10.711 9.78573C10.1685 9.05067 9.40031 8.52463 8.53053 8.29255C7.66075 8.06046 6.74012 8.13587 5.91725 8.50659C5.09437 8.87732 4.41728 9.52173 3.99526 10.3358L2.71668 8.90038L3.30601 5.68518ZM5.01726 13.1833C4.8557 12.7286 4.81579 12.2378 4.90168 11.7619C5.03434 11.0493 5.43634 10.4196 6.01993 10.01C6.60352 9.60046 7.32132 9.44437 8.01668 9.57581C8.50538 9.66776 8.95915 9.89851 9.32641 10.2418C9.69366 10.5852 9.95968 11.0273 10.0942 11.518C10.2288 12.0088 10.2265 12.5283 10.0875 13.0178C9.94861 13.5072 9.67865 13.9468 9.30834 14.2867C9.00665 14.3322 8.70212 14.355 8.39718 14.3551C6.73785 14.3551 5.9186 13.8193 5.01726 13.1828V13.1833ZM4.15335 14.2349C5.13935 14.9319 6.25685 15.723 8.39718 15.723C10.5375 15.723 11.6559 14.9322 12.6423 14.2342C13.5879 13.5649 14.4046 12.9871 16.1305 12.9871C17.8564 12.9871 18.6722 13.5649 19.6172 14.2342C20.6032 14.9319 21.7207 15.723 23.8613 15.723C26.002 15.723 27.1211 14.9322 28.1074 14.2342C29.0538 13.5649 29.8708 12.9871 31.5973 12.9871C33.3239 12.9871 34.1407 13.5649 35.0866 14.2342C35.9655 14.8557 36.9489 15.5514 38.6667 15.6962V18.4248C37.3805 18.2945 36.6583 17.7884 35.8434 17.2121C34.8571 16.5139 33.7386 15.723 31.5973 15.723C29.4561 15.723 28.3373 16.5139 27.3506 17.2119C26.4046 17.8812 25.5876 18.459 23.8613 18.459C22.1351 18.459 21.3197 17.8812 20.3743 17.2119C19.3883 16.5139 18.2708 15.723 16.1305 15.723C13.9902 15.723 12.8714 16.5139 11.8851 17.2119C10.9394 17.8812 10.1228 18.459 8.39718 18.459C6.6716 18.459 5.85551 17.8812 4.91051 17.2119C4.03335 16.5911 3.04693 15.8998 1.33335 15.7542V13.0192C2.6201 13.1488 3.33885 13.6574 4.15335 14.2342V14.2349Z" fill="#1D2C39"/>
<path d="M11.5423 8.86755L13.5078 9.24836C13.5488 9.25642 13.5905 9.26043 13.6322 9.26033C13.798 9.25992 13.9578 9.19611 14.0802 9.08136C14.2026 8.9666 14.279 8.80915 14.2944 8.63974C14.3097 8.47032 14.263 8.30112 14.1633 8.16515C14.0636 8.02919 13.9181 7.93623 13.7552 7.90443L11.7898 7.52388C11.7029 7.50496 11.6132 7.50404 11.526 7.52117C11.4388 7.5383 11.3557 7.57314 11.2818 7.62364C11.2079 7.67414 11.1446 7.73928 11.0955 7.81525C11.0465 7.89121 11.0127 7.97646 10.9962 8.066C10.9798 8.15553 10.9809 8.24754 10.9995 8.33662C11.0182 8.4257 11.054 8.51007 11.1049 8.58475C11.1557 8.65944 11.2206 8.72294 11.2958 8.77153C11.3709 8.82013 11.4547 8.85283 11.5423 8.86772V8.86755Z" fill="#1D2C39"/>
<path d="M20.9609 9.30111L18.9958 8.92039C18.9089 8.90147 18.8192 8.90055 18.732 8.91768C18.6447 8.93481 18.5617 8.96965 18.4878 9.02015C18.4139 9.07065 18.3506 9.13579 18.3015 9.21176C18.2525 9.28772 18.2187 9.37297 18.2022 9.4625C18.1857 9.55204 18.1869 9.64405 18.2055 9.73313C18.2242 9.82221 18.26 9.90657 18.3109 9.98126C18.3617 10.0559 18.4266 10.1194 18.5018 10.168C18.5769 10.2166 18.6607 10.2493 18.7483 10.2642L20.7135 10.645C20.7545 10.6531 20.7962 10.6571 20.8379 10.657C21.0038 10.6566 21.1635 10.5928 21.2859 10.478C21.4084 10.3633 21.4848 10.2058 21.5001 10.0364C21.5155 9.867 21.4688 9.6978 21.3691 9.56183C21.2694 9.42587 21.1238 9.33291 20.9609 9.30111Z" fill="#1D2C39"/>
<path d="M35.0514 2.75854C34.7977 2.82825 34.5599 2.94884 34.3518 3.11336C34.1438 3.27787 33.9695 3.48305 33.8392 3.71704L33.7083 3.95113C33.511 4.30225 33.42 4.70568 33.4469 5.11005L33.5803 7.15727C33.5875 7.26963 33.6217 7.3784 33.6798 7.47394C33.7379 7.56947 33.8181 7.64881 33.9133 7.70492C34.0085 7.76102 34.1156 7.79215 34.2254 7.79554C34.3351 7.79894 34.4439 7.77449 34.5422 7.72437L36.3333 6.81067C36.6869 6.63051 36.9805 6.34696 37.1771 5.9958V5.99511L37.3076 5.76128C37.5046 5.40937 37.5954 5.00544 37.5687 4.60056C37.5419 4.19568 37.3987 3.80803 37.1572 3.48663C36.9157 3.16523 36.5868 2.92451 36.212 2.79491C35.8371 2.66531 35.4333 2.65265 35.0514 2.75854ZM36.151 5.08038L36.0202 5.31447C35.9548 5.43143 35.857 5.52583 35.7393 5.58567L34.8438 6.04248L34.7771 5.01891C34.7682 4.88429 34.7986 4.75001 34.8643 4.63314L34.9955 4.39871C35.0389 4.32068 35.0969 4.25227 35.1663 4.19745C35.2356 4.14263 35.3149 4.1025 35.3995 4.07938C35.484 4.0557 35.5723 4.04944 35.6591 4.06098C35.746 4.07251 35.8298 4.10161 35.9057 4.14658C36.0589 4.23704 36.1708 4.38623 36.2168 4.56134C36.2629 4.73646 36.2391 4.92315 36.151 5.08038Z" fill="#1D2C39"/>
<path d="M35.2158 9.34984C35.1093 9.37709 35.011 9.43088 34.9297 9.50646C34.8483 9.58204 34.7864 9.67706 34.7494 9.78308C34.7124 9.88911 34.7016 10.0029 34.7177 10.1142C34.7339 10.2256 34.7766 10.3312 34.8421 10.4215L36.0355 12.0681C36.2706 12.3933 36.5945 12.6397 36.9662 12.7761H36.9671L37.2148 12.8669C37.7143 13.0502 38.2643 13.0223 38.7438 12.7895C39.2232 12.5567 39.5929 12.138 39.7715 11.6255C39.9501 11.1131 39.9229 10.5488 39.696 10.0569C39.4691 9.56497 39.061 9.18569 38.5615 9.00247L38.3138 8.91159C37.9422 8.77463 37.5392 8.75428 37.1562 8.85311L35.2158 9.34984ZM37.8652 10.2001L38.1127 10.2907C38.1951 10.3209 38.2709 10.3675 38.3358 10.4279C38.4007 10.4882 38.4533 10.561 38.4908 10.6422C38.5282 10.7235 38.5497 10.8114 38.554 10.9011C38.5583 10.9909 38.5453 11.0806 38.5158 11.1652C38.4863 11.2497 38.4408 11.3275 38.382 11.3941C38.3232 11.4606 38.2522 11.5147 38.1731 11.5531C38.0939 11.5915 38.0082 11.6135 37.9207 11.6179C37.8333 11.6223 37.7459 11.609 37.6634 11.5788L37.4167 11.4883C37.2924 11.4431 37.1842 11.3609 37.1058 11.2522L36.5088 10.4289L37.4792 10.1804C37.607 10.1482 37.7412 10.155 37.8652 10.1999V10.2001Z" fill="#1D2C39"/>
<path d="M30.4323 2.79197C30.0461 2.70428 29.6432 2.73606 29.2746 2.8833C28.906 3.03053 28.5882 3.28661 28.3615 3.61913C28.1347 3.95166 28.0091 4.34571 28.0007 4.75145C27.9922 5.15719 28.1012 5.55639 28.3138 5.89859L28.4551 6.12601C28.6672 6.46774 28.9733 6.73728 29.3347 6.90053L31.1648 7.72839C31.2652 7.77382 31.375 7.79311 31.4844 7.78455C31.5938 7.77599 31.6995 7.73984 31.7921 7.67932C31.8846 7.61879 31.9612 7.53576 32.0149 7.43759C32.0687 7.33942 32.098 7.22915 32.1003 7.11658L32.1413 5.06465C32.1493 4.65964 32.0402 4.26127 31.8278 3.91976L31.6862 3.69268C31.5456 3.46497 31.3624 3.26812 31.1472 3.11351C30.9319 2.95891 30.689 2.84962 30.4323 2.79197ZM30.7874 6.06291L29.8728 5.64876C29.7522 5.59445 29.6501 5.50457 29.5794 5.39056L29.4382 5.16314C29.3906 5.0874 29.3581 5.00276 29.3425 4.91409C29.3269 4.82543 29.3286 4.73447 29.3474 4.64646C29.3661 4.55844 29.4017 4.4751 29.452 4.40123C29.5022 4.32735 29.5662 4.26438 29.6403 4.21596C29.7143 4.16753 29.797 4.13459 29.8835 4.11903C29.97 4.10347 30.0586 4.10559 30.1443 4.12528C30.23 4.14498 30.3111 4.18184 30.3828 4.23377C30.4546 4.2857 30.5157 4.35166 30.5625 4.42787L30.7034 4.6546C30.7743 4.76857 30.8107 4.90153 30.8079 5.03669L30.7874 6.06291Z" fill="#1D2C39"/>
<path d="M7.52868 0.192C7.16863 0.563294 6.7404 0.857658 6.26876 1.05806C5.79712 1.25847 5.29142 1.36094 4.78093 1.35955H4.66668C4.48987 1.35955 4.3203 1.43161 4.19528 1.55988C4.07025 1.68815 4.00001 1.86212 4.00001 2.04352C4.00001 2.22493 4.07025 2.3989 4.19528 2.52717C4.3203 2.65544 4.48987 2.7275 4.66668 2.7275H4.78093C5.46659 2.72942 6.1458 2.5918 6.77926 2.32259C7.41273 2.05338 7.98785 1.65793 8.47135 1.15914C8.59278 1.03014 8.65998 0.85737 8.65846 0.678034C8.65694 0.498697 8.58683 0.327147 8.46322 0.200333C8.33962 0.0735178 8.17241 0.00158424 7.99761 2.58561e-05C7.82282 -0.00153253 7.65441 0.0674084 7.52868 0.192Z" fill="#1D2C39"/>
<path d="M0.666682 5.46341C0.843493 5.46341 1.01306 5.39135 1.13809 5.26307C1.26311 5.1348 1.33335 4.96083 1.33335 4.77943C1.33241 4.49517 1.40913 4.21633 1.55482 3.97454C1.70051 3.73275 1.90933 3.53768 2.1576 3.41148L2.29818 3.33932C2.45634 3.25819 2.5766 3.11592 2.63252 2.94381C2.68844 2.7717 2.67543 2.58386 2.59635 2.42159C2.51727 2.25933 2.3786 2.13594 2.21085 2.07857C2.0431 2.0212 1.86001 2.03455 1.70185 2.11568L1.56118 2.18784C1.09096 2.42706 0.695471 2.79664 0.41954 3.25469C0.143608 3.71275 -0.00172539 4.24096 1.54576e-05 4.77943C1.54576e-05 4.96083 0.0702533 5.1348 0.195277 5.26307C0.320302 5.39135 0.489871 5.46341 0.666682 5.46341Z" fill="#1D2C39"/>
</svg>
