<svg width="31" height="40" viewBox="0 0 31 40" fill="none" xmlns="http://www.w3.org/2000/svg">
<path d="M0.645161 36.129H3.87097V39.3548C3.87097 39.5259 3.93894 39.69 4.05993 39.811C4.18092 39.932 4.34502 40 4.51613 40H23.871C24.0421 40 24.2061 39.932 24.3271 39.811L30.7787 33.3594C30.8997 33.2384 30.9677 33.0743 30.9677 32.9032V4.51613C30.9677 4.34502 30.8998 4.18092 30.7788 4.05993C30.6578 3.93894 30.4937 3.87097 30.3226 3.87097H27.0968V0.645161C27.0968 0.474054 27.0288 0.309955 26.9078 0.188963C26.7868 0.0679721 26.6227 0 26.4516 0H0.645161C0.474054 0 0.309955 0.0679721 0.188963 0.188963C0.0679723 0.309955 0 0.474054 0 0.645161V35.4839C0 35.655 0.0679723 35.8191 0.188963 35.9401C0.309955 36.0611 0.474054 36.129 0.645161 36.129ZM24.5161 37.7974V33.5484H28.7652L24.5161 37.7974ZM29.6774 32.2581H23.871C23.6999 32.2581 23.5358 32.326 23.4148 32.447C23.2938 32.568 23.2258 32.7321 23.2258 32.9032V38.7097H5.16129V5.16129H29.6774V32.2581ZM1.29032 1.29032H25.8064V3.87097H4.51613C4.34502 3.87097 4.18092 3.93894 4.05993 4.05993C3.93894 4.18092 3.87097 4.34502 3.87097 4.51613V34.8387H1.29032V1.29032Z" fill="#1D2C39"/>
<path d="M17.4194 23.2258C18.9506 23.2258 20.4474 22.7717 21.7205 21.9211C22.9937 21.0704 23.986 19.8612 24.572 18.4466C25.1579 17.0319 25.3113 15.4753 25.0125 13.9735C24.7138 12.4717 23.9765 11.0922 22.8937 10.0095C21.811 8.92677 20.4315 8.18942 18.9297 7.89069C17.4279 7.59197 15.8713 7.74529 14.4566 8.33125C13.042 8.91722 11.8329 9.90953 10.9822 11.1827C10.1315 12.4558 9.67742 13.9527 9.67742 15.4839C9.67964 17.5365 10.496 19.5044 11.9474 20.9558C13.3988 22.4072 15.3667 23.2236 17.4194 23.2258ZM17.4194 9.03226C18.6954 9.03226 19.9427 9.41064 21.0037 10.1196C22.0646 10.8285 22.8916 11.8361 23.3799 13.0149C23.8682 14.1938 23.9959 15.491 23.747 16.7425C23.4981 17.994 22.8836 19.1436 21.9813 20.0458C21.0791 20.9481 19.9295 21.5626 18.678 21.8115C17.4265 22.0605 16.1293 21.9327 14.9504 21.4444C13.7716 20.9561 12.7639 20.1292 12.055 19.0682C11.3461 18.0072 10.9677 16.7599 10.9677 15.4839C10.9696 13.7734 11.6499 12.1335 12.8595 10.924C14.069 9.71446 15.7089 9.03414 17.4194 9.03226Z" fill="#1D2C39"/>
<path d="M6.45161 24.5161H28.3871V25.8064H6.45161V24.5161Z" fill="#1D2C39"/>
<path d="M6.45161 27.0968H28.3871V28.3871H6.45161V27.0968Z" fill="#1D2C39"/>
<path d="M6.45161 29.6774H28.3871V30.9677H6.45161V29.6774Z" fill="#1D2C39"/>
<path d="M13.0923 17.8755L15.0277 19.811C15.1487 19.9319 15.3128 19.9999 15.4839 19.9999C15.6549 19.9999 15.819 19.9319 15.94 19.811L17.4194 18.3316L18.8987 19.811C19.0197 19.9319 19.1838 19.9999 19.3548 19.9999C19.5259 19.9999 19.69 19.9319 19.811 19.811L21.7465 17.8755C21.8674 17.7545 21.9353 17.5904 21.9353 17.4194C21.9353 17.2483 21.8674 17.0842 21.7465 16.9632L20.2671 15.4839L21.7465 14.0045C21.8674 13.8835 21.9353 13.7195 21.9353 13.5484C21.9353 13.3773 21.8674 13.2132 21.7465 13.0923L19.811 11.1568C19.69 11.0358 19.5259 10.9679 19.3548 10.9679C19.1838 10.9679 19.0197 11.0358 18.8987 11.1568L17.4194 12.6361L15.94 11.1568C15.819 11.0358 15.6549 10.9679 15.4839 10.9679C15.3128 10.9679 15.1487 11.0358 15.0277 11.1568L13.0923 13.0923C12.9713 13.2132 12.9034 13.3773 12.9034 13.5484C12.9034 13.7195 12.9713 13.8835 13.0923 14.0045L14.5716 15.4839L13.0923 16.9632C12.9713 17.0842 12.9034 17.2483 12.9034 17.4194C12.9034 17.5904 12.9713 17.7545 13.0923 17.8755ZM15.94 15.94C16.0609 15.819 16.1289 15.6549 16.1289 15.4839C16.1289 15.3128 16.0609 15.1487 15.94 15.0277L14.4606 13.5484L15.4839 12.5252L16.9632 14.0045C17.0842 14.1255 17.2483 14.1934 17.4194 14.1934C17.5904 14.1934 17.7545 14.1255 17.8755 14.0045L19.3548 12.5252L20.3781 13.5484L18.8987 15.0277C18.7778 15.1487 18.7098 15.3128 18.7098 15.4839C18.7098 15.6549 18.7778 15.819 18.8987 15.94L20.3781 17.4194L19.3548 18.4426L17.8755 16.9632C17.7545 16.8423 17.5904 16.7743 17.4194 16.7743C17.2483 16.7743 17.0842 16.8423 16.9632 16.9632L15.4839 18.4426L14.4606 17.4194L15.94 15.94Z" fill="#1D2C39"/>
</svg>
