<svg width="40" height="40" viewBox="0 0 40 40" fill="none" xmlns="http://www.w3.org/2000/svg">
<path d="M39.9209 11.0788C39.893 10.8788 39.7641 10.7073 39.5797 10.6248C35.9083 8.98287 32.0602 8.30661 30.7859 8.11544C30.1137 4.6246 28.1332 0.950871 28.0458 0.790088C27.9597 0.631491 27.8053 0.521411 27.6273 0.491724C22.0332 -0.440791 16.7507 0.126327 13.3045 0.766181C10.6861 1.25088 9.06874 1.78424 9.00124 1.80667C8.88178 1.84635 8.77826 1.92346 8.70615 2.02659C7.93684 3.12536 7.17113 4.4989 6.43034 6.10923C6.2951 6.40322 6.42377 6.7512 6.71776 6.88643C7.01199 7.02167 7.3598 6.893 7.49496 6.59901C8.17005 5.13164 8.86209 3.87537 9.5539 2.86114C10.042 2.71152 11.4771 2.29621 13.5182 1.91846C16.8129 1.30674 21.8282 0.762743 27.1479 1.60119C27.6217 2.52347 29.2341 5.81228 29.7048 8.73029C29.7464 8.98779 29.9533 9.18686 30.2122 9.21858C30.2572 9.22413 34.6561 9.77804 38.7919 11.5589C38.8127 11.8217 38.8348 12.2359 38.8269 12.7579C37.5875 12.8457 36.606 13.882 36.606 15.1434C36.606 16.0927 37.1711 16.9329 37.9976 17.3157C37.6634 18.2026 37.232 19.0169 36.7103 19.7458H34.8529C34.5584 16.8524 32.1074 14.5871 29.1372 14.5871C26.167 14.5871 23.7159 16.8524 23.4215 19.7458H15.1307C14.8362 16.8524 12.3852 14.5871 9.41499 14.5871C8.93303 14.5871 8.45498 14.6466 7.99395 14.7637C5.639 15.363 3.94092 17.3669 3.6992 19.7458H1.97206C1.87026 19.3276 1.71261 18.6165 1.56495 17.6906L3.35966 17.2618C3.65193 17.1919 3.84397 16.9123 3.80428 16.6145L3.4606 14.0347C3.43982 13.8791 3.35763 13.7384 3.23216 13.644C3.10685 13.5497 2.94911 13.5095 2.79356 13.5326L1.18853 13.7712C1.18166 13.5614 1.17689 13.3515 1.17424 13.1422C1.96441 12.7902 3.9467 11.9271 5.34751 11.4892C5.53087 11.432 5.67454 11.2884 5.73189 11.1051C5.73501 11.0952 6.04814 10.0995 6.59214 8.71896C6.71081 8.41786 6.56292 8.0777 6.26182 7.95903C5.96072 7.84028 5.62048 7.98825 5.5018 8.28935C5.11211 9.27819 4.84133 10.0634 4.70804 10.4643C2.88044 11.0714 0.449773 12.1822 0.341802 12.2318C0.133596 12.3271 0 12.5353 0 12.7644C0 13.332 0.0155471 13.9085 0.0461726 14.478C0.0550009 14.6426 0.132893 14.796 0.260707 14.9004C0.388522 15.0048 0.554228 15.0502 0.717511 15.0261L2.37754 14.7792L2.57285 16.2449L0.769309 16.6758C0.475242 16.746 0.282895 17.0285 0.325318 17.3278C0.597588 19.2501 0.941655 20.4452 0.956109 20.4952C1.02892 20.7454 1.25814 20.9176 1.51877 20.9176H4.25554C4.57921 20.9176 4.84148 20.6552 4.84148 20.3316C4.84148 18.2376 6.25666 16.415 8.28286 15.8995C8.64943 15.8063 9.03038 15.759 9.41499 15.759C11.7686 15.759 13.7121 17.5461 13.9609 19.8342C13.4483 20.0007 13.021 20.3917 12.8227 20.9097L12.198 22.542C12.0463 22.9385 12.0411 23.3697 12.1723 23.7626L12.0528 23.7231C11.1328 23.4194 10.1366 23.9202 9.83211 24.8402C9.52796 25.7608 10.0291 26.757 10.9489 27.0607L14.115 28.1084L10.7416 29.2248C10.0488 29.4534 9.5646 30.0965 9.53656 30.8242C9.50742 31.5531 9.93984 32.2324 10.6124 32.5143L15.1724 34.4301L10.6124 36.3457C10.1794 36.5276 9.8432 36.8673 9.6657 37.3021C9.4882 37.737 9.49062 38.2148 9.6725 38.6471C9.69882 38.7098 9.72945 38.7697 9.76219 38.8281H7.32504C7.00136 38.8281 6.73909 39.0905 6.73909 39.4141C6.73909 39.7377 7.00136 40 7.32504 40H31.8943C32.218 40 32.4803 39.7377 32.4803 39.4141C32.4803 39.0905 32.218 38.8281 31.8943 38.8281H29.6588C29.6915 38.7699 29.7221 38.7101 29.7484 38.6475C29.9303 38.2149 29.9329 37.7372 29.7555 37.3023C29.5781 36.8675 29.2423 36.5278 28.8094 36.3457L24.25 34.4305L26.057 33.6714C26.3553 33.5461 26.4956 33.2026 26.3703 32.9043C26.245 32.6059 25.9014 32.4658 25.6032 32.591L22.7368 33.7951L21.2227 33.1589L25.0187 31.5643C25.2439 31.4697 25.3868 31.2453 25.3773 31.0012C25.3677 30.757 25.2077 30.5445 24.9758 30.4678L11.3167 25.9481C11.0103 25.8468 10.8433 25.5147 10.9446 25.2081C11.0461 24.9015 11.3781 24.7346 11.6848 24.8357L28.3126 30.3374C28.5429 30.4136 28.704 30.6276 28.7133 30.871C28.723 31.1136 28.5792 31.3399 28.3555 31.4339L27.7509 31.6878C27.4526 31.8131 27.3123 32.1565 27.4375 32.4549C27.5629 32.7533 27.9063 32.8936 28.2047 32.7682L28.8093 32.5143C29.4815 32.232 29.9134 31.5528 29.8843 30.8251C29.8565 30.0967 29.3726 29.4536 28.6805 29.2248L25.3064 28.1084L28.4726 27.0608C29.3925 26.7566 29.8936 25.7605 29.5894 24.8394C29.2841 23.9201 28.288 23.4194 27.3679 23.7232L26.6507 23.9605C26.8589 23.5183 26.8819 23.0063 26.7042 22.542L26.0795 20.9097C25.8387 20.2806 25.2599 19.8394 24.6007 19.7601C24.8831 17.5077 26.8091 15.7591 29.1372 15.7591C31.659 15.7591 33.7107 17.8104 33.7107 20.3318C33.7107 20.6554 33.973 20.9177 34.2966 20.9177H37.0061C37.189 20.9177 37.3614 20.8324 37.4722 20.6867C38.2644 19.6464 38.8826 18.4434 39.3094 17.1113C39.3623 16.9464 39.3395 16.7665 39.2471 16.6199C39.1547 16.4735 39.0023 16.3753 38.8307 16.3519C38.2305 16.2699 37.7779 15.7504 37.7779 15.1434C37.7779 14.4709 38.3251 13.9238 38.9975 13.9238C39.0878 13.9238 39.1776 13.9336 39.2642 13.9529C39.4323 13.9901 39.608 13.9518 39.7452 13.8478C39.8823 13.7439 39.9668 13.5849 39.9763 13.4132C40.052 12.0424 39.9262 11.1175 39.9209 11.0788ZM10.7505 37.745C10.8097 37.6 10.9218 37.4868 11.0661 37.4261L16.685 35.0656L18.1979 35.7013L11.5196 38.5068C11.4467 38.5375 11.3705 38.553 11.2931 38.553C11.0567 38.553 10.8446 38.4118 10.7527 38.193C10.6921 38.049 10.6914 37.89 10.7505 37.745ZM13.7806 38.8281L19.7108 36.3369L25.6404 38.8281H13.7806ZM28.6705 37.7449C28.7296 37.8899 28.7288 38.049 28.6681 38.1934C28.5763 38.4118 28.3643 38.5531 28.1279 38.5531C28.0504 38.5531 27.9742 38.5376 27.9009 38.5066L11.066 31.4337C10.8419 31.3397 10.6979 31.1135 10.7076 30.87C10.7169 30.6276 10.8782 30.4137 11.1094 30.3373L15.9803 28.7255L17.8454 29.3427L14.4452 30.4678C14.2133 30.5445 14.0533 30.7571 14.0437 31.0012C14.0342 31.2453 14.1771 31.4697 14.4023 31.5643L28.3554 37.4261C28.4994 37.4866 28.6113 37.5999 28.6705 37.7449ZM19.71 32.5232L16.2974 31.0892L19.7106 29.9599L23.1236 31.0892L19.71 32.5232ZM27.7358 24.8358C28.0428 24.7344 28.3753 24.9017 28.4769 25.2077C28.5783 25.5145 28.4113 25.8467 28.1047 25.9481L23.4411 27.4911L21.5758 26.8739L27.7358 24.8358ZM19.7105 26.2568L15.9135 25.0005H23.5075L19.7105 26.2568ZM24.9851 21.3285L25.6098 22.9608C25.6862 23.1604 25.6605 23.3757 25.5395 23.5517C25.4184 23.7276 25.2264 23.8286 25.0128 23.8286H13.8895C13.6759 23.8286 13.484 23.7276 13.3629 23.5517C13.2418 23.3757 13.2161 23.1604 13.2926 22.9608L13.9172 21.3286C14.0112 21.0829 14.2512 20.9178 14.5143 20.9178H24.3881C24.6511 20.9178 24.8911 21.0829 24.9851 21.3285Z" fill="#1D2C39"/>
<path d="M7.43126 13.4525C7.79978 13.3461 8.17518 13.2699 8.54831 13.2256C11.9142 12.8201 15.0548 14.8205 16.164 17.9421C16.247 18.1758 16.4682 18.3319 16.7161 18.3319H21.8354C22.0834 18.3319 22.3045 18.1758 22.3875 17.9421C23.2857 15.4147 25.4893 13.6139 28.1385 13.2422C28.4049 13.2049 28.6117 12.991 28.6399 12.7235C28.696 12.1914 28.4025 9.72217 28.3112 8.9781C28.3103 8.97083 28.3093 8.96357 28.3081 8.9563C27.9828 6.93517 27.0635 4.70186 26.3498 3.18418C26.2641 3.00222 26.0912 2.87683 25.8917 2.85214C24.4673 2.67526 22.9804 2.58565 21.4726 2.58565C17.3841 2.58565 13.8621 3.22832 11.6272 3.76747C11.2856 3.85005 10.9628 3.93263 10.668 4.01302C10.5251 4.05193 10.4024 4.14341 10.3243 4.26912C8.48761 7.22494 7.22243 11.0875 7.08415 11.5182C7.08368 11.5195 7.08157 11.5263 7.08118 11.5276L6.70961 12.7146C6.64516 12.9204 6.69899 13.145 6.84985 13.2993C7.00055 13.4533 7.22399 13.5123 7.43126 13.4525ZM25.4258 3.97677C25.9944 5.21851 26.853 7.3019 27.1495 9.13177C27.2848 10.2361 27.4181 11.5027 27.4622 12.1703C26.1393 12.4418 24.8986 13.0342 23.8472 13.9002C22.7835 14.7763 21.9548 15.897 21.433 17.1599H19.459V3.81184C20.111 3.77731 20.7838 3.75747 21.4726 3.75747C22.8191 3.75747 24.1473 3.83122 25.4258 3.97677ZM8.19737 11.8846C8.19768 11.8836 8.19971 11.8772 8.20002 11.8762C8.33073 11.4692 9.50169 7.89339 11.1994 5.08374C11.421 5.02538 11.6566 4.966 11.9024 4.90655C13.209 4.59131 15.5036 4.1195 18.2871 3.89106V17.1599H17.1188C15.8381 14.0575 12.7937 12.001 9.4152 12.001C9.0834 12.001 8.74457 12.0215 8.40909 12.0619C8.3162 12.073 8.22299 12.0857 8.12987 12.1001L8.19737 11.8846Z" fill="#1D2C39"/>
<path d="M9.41245 22.8065C10.7771 22.8065 11.8872 21.6963 11.8872 20.3318C11.8872 18.9673 10.7771 17.8571 9.41245 17.8571C8.04783 17.8571 6.93766 18.9673 6.93766 20.3318C6.93766 21.6963 8.04783 22.8065 9.41245 22.8065ZM9.41245 19.029C10.1308 19.029 10.7154 19.6134 10.7154 20.3318C10.7154 21.0502 10.1309 21.6346 9.41245 21.6346C8.69401 21.6346 8.10955 21.0502 8.10955 20.3318C8.10955 19.6134 8.69401 19.029 9.41245 19.029Z" fill="#1D2C39"/>
<path d="M26.6626 20.3319C26.6626 21.6964 27.7728 22.8066 29.1374 22.8066C30.5019 22.8066 31.6121 21.6964 31.6121 20.3319C31.6121 18.9673 30.5019 17.8572 29.1374 17.8572C27.7728 17.8572 26.6626 18.9672 26.6626 20.3319ZM30.4402 20.3319C30.4402 21.0502 29.8558 21.6347 29.1374 21.6347C28.419 21.6347 27.8345 21.0502 27.8345 20.3319C27.8345 19.6135 28.419 19.029 29.1374 19.029C29.8558 19.029 30.4402 19.6134 30.4402 20.3319Z" fill="#1D2C39"/>
</svg>
