<svg width="16" height="10" viewBox="0 0 16 10" fill="none" xmlns="http://www.w3.org/2000/svg">
<path d="M0.585786 0.585786C1.36683 -0.195262 2.63316 -0.195262 3.41421 0.585786L9.07107 6.24264C9.85212 7.02369 9.85212 8.29002 9.07107 9.07107C8.29002 9.85212 7.02369 9.85212 6.24264 9.07107L0.585787 3.41421C-0.195262 2.63317 -0.195262 1.36683 0.585786 0.585786Z" fill="#C4C4C4"/>
<path d="M14.7279 0.585789C15.509 1.36684 15.509 2.63317 14.7279 3.41422L9.07107 9.07107C8.29002 9.85212 7.02369 9.85212 6.24264 9.07107C5.46159 8.29002 5.46161 7.02369 6.24266 6.24264L11.8995 0.585789C12.6806 -0.195259 13.9469 -0.195259 14.7279 0.585789Z" fill="#C4C4C4"/>
</svg>
