<svg width="15" height="14" viewBox="0 0 15 14" fill="none" xmlns="http://www.w3.org/2000/svg">
<path d="M7.29483 6.66731L13.5677 0.440262C13.6559 0.35267 13.7753 0.303717 13.8997 0.304173C14.024 0.304629 14.1431 0.354455 14.2307 0.442692C14.3182 0.530929 14.3672 0.650347 14.3667 0.774677C14.3663 0.899008 14.3165 1.01806 14.2282 1.10566L8.28798 7.00244L14.1848 12.9426C14.2724 13.0308 14.3214 13.1503 14.3209 13.2746C14.3207 13.3362 14.3084 13.3971 14.2846 13.4539C14.2608 13.5106 14.2261 13.5622 14.1824 13.6056C14.1387 13.6489 14.0869 13.6833 14.03 13.7066C13.973 13.73 13.912 13.7419 13.8504 13.7417C13.7261 13.7412 13.607 13.6914 13.5194 13.6031L7.2924 7.33028C7.24902 7.28659 7.21468 7.23478 7.19133 7.17782C7.16797 7.12086 7.15607 7.05985 7.15629 6.99829C7.15652 6.93673 7.16887 6.87581 7.19264 6.81902C7.21641 6.76223 7.25114 6.71068 7.29483 6.66731ZM1.04244 7.30737L7.26949 13.5802C7.31286 13.6239 7.36442 13.6586 7.42121 13.6824C7.478 13.7062 7.53891 13.7185 7.60047 13.7188C7.66203 13.719 7.72304 13.7071 7.78 13.6837C7.83696 13.6604 7.88877 13.626 7.93246 13.5827C7.97615 13.5393 8.01087 13.4877 8.03463 13.4309C8.0584 13.3742 8.07075 13.3132 8.07098 13.2517C8.0712 13.1901 8.0593 13.1291 8.03595 13.0722C8.0126 13.0152 7.97826 12.9634 7.93489 12.9197L2.03803 6.97953L7.97827 1.08275C8.06651 0.995156 8.11633 0.8761 8.11679 0.75177C8.11725 0.62744 8.06829 0.508022 7.9807 0.419785C7.89311 0.331548 7.77405 0.281721 7.64972 0.281266C7.52539 0.28081 7.40597 0.329762 7.31774 0.417355L1.04487 6.64441C1.00118 6.68777 0.966454 6.73932 0.942683 6.79611C0.918914 6.8529 0.906563 6.91382 0.906338 6.97538C0.906112 7.03695 0.918016 7.09795 0.941368 7.15491C0.964722 7.21188 0.999068 7.26368 1.04244 7.30737Z" fill="#1D2C39"/>
</svg>
