<svg width="15" height="14" viewBox="0 0 15 14" fill="none" xmlns="http://www.w3.org/2000/svg">
<path d="M7.95646 7.33149L1.70646 13.5815C1.61855 13.6694 1.49931 13.7188 1.37498 13.7188C1.25065 13.7188 1.13141 13.6694 1.04349 13.5815C0.955579 13.4936 0.906189 13.3743 0.906189 13.25C0.906189 13.1257 0.955579 13.0064 1.04349 12.9185L6.96209 7.00001L1.04349 1.08149C0.955579 0.993578 0.906189 0.87434 0.906189 0.750009C0.906189 0.688447 0.918314 0.627487 0.941873 0.570611C0.965432 0.513735 0.999963 0.462056 1.04349 0.418525C1.08703 0.374994 1.1387 0.340463 1.19558 0.316904C1.25246 0.293345 1.31342 0.281219 1.37498 0.281219C1.49931 0.281219 1.61855 0.33061 1.70646 0.418525L7.95646 6.66853C8 6.71205 8.03453 6.76373 8.0581 6.82061C8.08166 6.87749 8.09378 6.93845 8.09378 7.00001C8.09378 7.06157 8.08166 7.12253 8.0581 7.17941C8.03453 7.23629 8 7.28797 7.95646 7.33149ZM14.2065 6.66853L7.95646 0.418525C7.91293 0.374994 7.86125 0.340463 7.80438 0.316904C7.7475 0.293345 7.68654 0.281219 7.62498 0.281219C7.56342 0.281219 7.50246 0.293345 7.44558 0.316904C7.3887 0.340463 7.33703 0.374994 7.29349 0.418525C7.24996 0.462056 7.21543 0.513735 7.19187 0.570611C7.16831 0.627487 7.15619 0.688447 7.15619 0.750009C7.15619 0.811572 7.16831 0.872531 7.19187 0.929407C7.21543 0.986283 7.24996 1.03796 7.29349 1.08149L13.2121 7.00001L7.29349 12.9185C7.20558 13.0064 7.15619 13.1257 7.15619 13.25C7.15619 13.3743 7.20558 13.4936 7.29349 13.5815C7.38141 13.6694 7.50065 13.7188 7.62498 13.7188C7.74931 13.7188 7.86855 13.6694 7.95646 13.5815L14.2065 7.33149C14.25 7.28797 14.2845 7.23629 14.3081 7.17941C14.3317 7.12253 14.3438 7.06157 14.3438 7.00001C14.3438 6.93845 14.3317 6.87749 14.3081 6.82061C14.2845 6.76373 14.25 6.71205 14.2065 6.66853Z" fill="#1D2C39"/>
</svg>
