<svg width="19" height="13" viewBox="0 0 19 13" fill="none" xmlns="http://www.w3.org/2000/svg">
<path d="M0.585786 3.41421C1.36683 2.63316 2.63316 2.63316 3.41421 3.41421L9.07107 9.07106C9.85212 9.85211 9.85212 11.1184 9.07107 11.8995C8.29002 12.6805 7.02369 12.6805 6.24264 11.8995L0.585787 6.24264C-0.195262 5.46159 -0.195262 4.19526 0.585786 3.41421Z" fill="#E22626"/>
<path d="M17.5564 0.585786C18.3374 1.36684 18.3374 2.63316 17.5564 3.41421L9.07107 11.8995C8.29002 12.6805 7.02369 12.6805 6.24264 11.8995C5.46159 11.1184 5.46161 9.85212 6.24266 9.07107L14.7279 0.585786C15.509 -0.195262 16.7753 -0.195262 17.5564 0.585786Z" fill="#E22626"/>
</svg>
