<svg width="160" height="42" viewBox="0 0 160 42" fill="none" xmlns="http://www.w3.org/2000/svg">
<path d="M94.8019 4.67958C94.9496 4.61751 95.0757 4.5129 95.1645 4.3789C95.2532 4.24489 95.3005 4.08749 95.3005 3.9265V3.26457C95.3005 3.04812 95.215 2.84053 95.0629 2.68748C94.9107 2.53442 94.7043 2.44843 94.4891 2.44843H87.811C83.6786 2.44678 79.6302 3.62218 76.1343 5.83859L76.9992 7.21972C80.2361 5.16749 83.9847 4.07917 87.811 4.08072H92.5156C91.7496 4.6062 91.0656 5.24336 90.486 5.97129L86.7961 10.6099H79.8832V12.2422H95.3005V10.6099H93.6777V8.97758C93.6777 8.79557 93.6172 8.61878 93.5058 8.47532C93.3944 8.33185 93.2386 8.22995 93.063 8.1858L91.1796 7.71221L91.7534 6.99092C92.5614 5.97624 93.6096 5.18156 94.8019 4.67958ZM92.0548 9.6148V10.6099H88.8746L90.0643 9.11431L92.0548 9.6148Z" fill="#1D2C39"/>
<path d="M77.4594 17.2697C77.4832 17.4167 77.5464 17.5544 77.6423 17.6679C77.7383 17.7813 77.8633 17.8662 78.0037 17.9133L78.8027 18.1811C80.0085 18.5849 81.298 18.6656 82.5443 18.4154L82.8969 18.3445C83.6492 18.191 84.3431 17.8268 84.8987 17.294C85.4543 16.7611 85.8489 16.0813 86.0372 15.3327L86.1172 15.0108C86.1753 14.7771 86.1737 14.5324 86.1125 14.2996C86.0514 14.0667 85.9326 13.8531 85.7674 13.6788C85.6021 13.5044 85.3957 13.375 85.1673 13.3024C84.939 13.2299 84.6961 13.2166 84.4612 13.2638H84.4611L83.4718 13.4628C81.9549 13.7702 80.5249 14.4132 79.2858 15.3454L77.7735 16.4861C77.6551 16.5755 77.5632 16.6957 77.5078 16.8339C77.4524 16.972 77.4357 17.1227 77.4594 17.2697ZM80.2594 16.6512C81.3046 15.865 82.5106 15.3227 83.7901 15.0634L84.4651 14.9277L84.4628 14.9369C84.3498 15.386 84.113 15.7939 83.7797 16.1136C83.4463 16.4333 83.03 16.6518 82.5786 16.7439L82.2259 16.8148C81.5025 16.9601 80.7578 16.9624 80.0335 16.8217L80.2594 16.6512Z" fill="#1D2C39"/>
<path d="M88.809 22.852C89.2572 22.852 89.6205 22.4866 89.6205 22.0359C89.6205 21.5851 89.2572 21.2197 88.809 21.2197C88.3609 21.2197 87.9976 21.5851 87.9976 22.0359C87.9976 22.4866 88.3609 22.852 88.809 22.852Z" fill="#1D2C39"/>
<path d="M95.3005 13.8744H92.8662V15.5067H95.3005V13.8744Z" fill="#1D2C39"/>
<path d="M88.809 17.139C87.5182 17.1405 86.2807 17.6569 85.368 18.5749C84.4553 19.4929 83.9419 20.7376 83.9404 22.0359H74.2032V23.6682H76.2023C75.9165 24.1636 75.5066 24.5749 75.0135 24.8613C74.5203 25.1477 73.9612 25.2991 73.3918 25.3005V26.9328C74.398 26.9303 75.379 26.6154 76.2006 26.0311C77.0223 25.4468 77.6445 24.6215 77.9823 23.6682H80.1613C80.4991 24.6215 81.1214 25.4468 81.943 26.0311C82.7646 26.6154 83.7456 26.9303 84.7519 26.9328H88.809C89.8155 26.9315 90.7968 26.617 91.6185 26.0326C92.4402 25.4481 93.062 24.6222 93.3985 23.6682H95.3005V22.0359H93.6777C93.6762 20.7376 93.1628 19.4929 92.2501 18.5749C91.3373 17.6569 90.0998 17.1405 88.809 17.139ZM81.9413 23.6682H84.2196C84.4322 24.2703 84.7599 24.8248 85.1841 25.3005H84.7519C84.1824 25.2991 83.6233 25.1477 83.1301 24.8613C82.637 24.5749 82.2271 24.1636 81.9413 23.6682ZM88.809 25.3005C88.1671 25.3005 87.5396 25.109 87.0058 24.7503C86.472 24.3916 86.056 23.8817 85.8104 23.2852C85.5647 22.6887 85.5004 22.0323 85.6257 21.399C85.7509 20.7657 86.06 20.184 86.514 19.7275C86.9679 19.2709 87.5462 18.96 88.1758 18.834C88.8054 18.7081 89.458 18.7727 90.0511 19.0198C90.6442 19.2669 91.1511 19.6853 91.5078 20.2222C91.8644 20.759 92.0548 21.3902 92.0548 22.0359C92.0538 22.9014 91.7115 23.7312 91.103 24.3432C90.4946 24.9552 89.6696 25.2995 88.809 25.3005Z" fill="#1D2C39"/>
<path d="M64.6359 10.519C64.2141 9.72726 63.6049 9.05225 62.8621 8.55357C62.6539 8.41394 62.4599 8.25399 62.2829 8.07606L60.7686 6.55296C58.7181 4.48312 56.0723 3.11437 53.2057 2.64046L53.2041 2.64015L53.2033 2.64001L53.2029 2.63996C52.4472 2.51227 51.6823 2.44821 50.916 2.44843H46.6144V4.08072H50.916C51.3137 4.08072 51.7108 4.10255 52.1044 4.1412L50.8178 10.6099H46.6144V12.2422H52.7468C55.8092 12.2443 58.7801 11.192 61.1652 9.26013C61.4098 9.50212 61.6765 9.7203 61.9619 9.91174C62.4825 10.2611 62.9094 10.7342 63.205 11.289C63.2438 11.3617 63.2787 11.4361 63.3125 11.511C61.9967 11.7276 60.7809 12.3522 59.835 13.2974C59.7543 13.3785 59.6916 13.4759 59.6508 13.5831C59.6101 13.6904 59.5923 13.805 59.5986 13.9196C59.605 14.0342 59.6352 14.1462 59.6875 14.2482C59.7398 14.3503 59.8128 14.4401 59.9019 14.5118L63.6545 17.5313V22.0359H62.8431C62.8431 20.7372 62.3302 19.4916 61.4171 18.5733C60.5041 17.6549 59.2657 17.139 57.9745 17.139C56.6832 17.139 55.4449 17.6549 54.5318 18.5733C53.6188 19.4916 53.1059 20.7372 53.1059 22.0359H46.6144V23.6682H49.3267C49.6645 24.6215 50.2868 25.4468 51.1084 26.0311C51.9301 26.6154 52.911 26.9303 53.9173 26.9328H57.9745C58.9809 26.9315 59.9623 26.617 60.784 26.0326C61.6057 25.4481 62.2274 24.6222 62.5639 23.6682H64.466C64.6812 23.6682 64.8876 23.5822 65.0397 23.4291C65.1919 23.2761 65.2774 23.0685 65.2774 22.852V13.093C65.2776 12.1949 65.0573 11.3107 64.6359 10.519ZM52.4728 10.6099L53.7072 4.40386C55.9482 4.92348 57.998 6.06842 59.621 7.70714L60.0097 8.09807C57.9354 9.72738 55.3787 10.6116 52.7468 10.6099H52.4728ZM51.1067 23.6682H53.385C53.5976 24.2703 53.9253 24.8248 54.3495 25.3005H53.9173C53.3479 25.2991 52.7887 25.1477 52.2956 24.8613C51.8025 24.5749 51.3926 24.1636 51.1067 23.6682ZM57.9745 25.3005C57.3325 25.3005 56.705 25.109 56.1712 24.7503C55.6375 24.3916 55.2215 23.8817 54.9758 23.2852C54.7301 22.6887 54.6659 22.0323 54.7911 21.399C54.9163 20.7657 55.2255 20.184 55.6794 19.7275C56.1333 19.2709 56.7117 18.96 57.3413 18.834C57.9709 18.7081 58.6235 18.7727 59.2166 19.0198C59.8097 19.2669 60.3166 19.6853 60.6732 20.2222C61.0299 20.759 61.2202 21.3902 61.2202 22.0359C61.2192 22.9014 60.877 23.7312 60.2685 24.3432C59.66 24.9552 58.835 25.2995 57.9745 25.3005ZM61.6953 13.8644C62.2847 13.4696 62.9538 13.2112 63.6545 13.108V15.441L61.6953 13.8644Z" fill="#1D2C39"/>
<path d="M57.9745 22.852C58.4226 22.852 58.7859 22.4866 58.7859 22.0359C58.7859 21.5851 58.4226 21.2197 57.9745 21.2197C57.5263 21.2197 57.163 21.5851 57.163 22.0359C57.163 22.4866 57.5263 22.852 57.9745 22.852Z" fill="#1D2C39"/>
<path d="M57.4007 13.2974C57.2192 13.4809 57.0033 13.6264 56.7656 13.7255C56.5278 13.8245 56.2729 13.8752 56.0155 13.8744H55.5402V15.5067H56.0155C56.4861 15.508 56.9522 15.4154 57.387 15.2343C57.8217 15.0532 58.2165 14.7871 58.5483 14.4515L57.4007 13.2974Z" fill="#1D2C39"/>
<path d="M49.8601 13.8744H46.6144V15.5067H49.8601V13.8744Z" fill="#1D2C39"/>
<path d="M71.893 18.7713H75.8261C75.9789 18.7713 76.1287 18.7279 76.2581 18.6461C76.3875 18.5642 76.4912 18.4473 76.5574 18.3087C76.6237 18.1702 76.6496 18.0156 76.6323 17.8629C76.615 17.7101 76.5552 17.5654 76.4597 17.4453L73.7492 14.0376L78.732 10.4578C78.8581 10.3672 78.9557 10.2422 79.0134 10.0976C79.0711 9.95289 79.0864 9.79464 79.0575 9.6415C79.0286 9.48836 78.9567 9.34675 78.8504 9.23341C78.744 9.12008 78.6075 9.03975 78.4572 9.00194L72.7325 7.56248L74.1839 0.993179C74.2208 0.825967 74.2045 0.651302 74.1373 0.493926C74.07 0.336551 73.9553 0.204442 73.8092 0.116312C73.6632 0.0281822 73.4933 -0.0115012 73.3236 0.00288369C73.1539 0.0172686 72.993 0.0849927 72.8637 0.196462L67.8084 4.5548L64.2779 0.293651C64.1711 0.164811 64.0275 0.0721811 63.8665 0.0283649C63.7056 -0.0154514 63.5351 -0.00832636 63.3783 0.0487713C63.2215 0.105869 63.086 0.210166 62.9902 0.347472C62.8945 0.484777 62.8431 0.648422 62.8431 0.816142V6.52915H64.466V3.07035L67.0884 6.2355C67.1572 6.31857 67.2417 6.38706 67.3371 6.43698C67.4325 6.48691 67.5367 6.51727 67.6439 6.52631C67.751 6.53536 67.8588 6.5229 67.9611 6.48966C68.0634 6.45642 68.1581 6.40306 68.2398 6.33269L72.0716 3.02921L70.9768 7.9844C70.9309 8.19207 70.9674 8.40955 71.0786 8.59052C71.1898 8.77148 71.3669 8.90163 71.5721 8.95323L76.3589 10.1569L72.1087 13.2103C72.019 13.2748 71.9433 13.357 71.8862 13.4519C71.8291 13.5468 71.7918 13.6524 71.7766 13.7622C71.7614 13.8721 71.7687 13.9839 71.7979 14.0909C71.8272 14.1978 71.8778 14.2977 71.9467 14.3843L74.1378 17.139H70.9575C70.8412 17.139 70.7263 17.1641 70.6205 17.2127C70.5148 17.2612 70.4206 17.3321 70.3444 17.4204C70.2682 17.5088 70.2118 17.6125 70.179 17.7247C70.1462 17.8369 70.1377 17.9548 70.1541 18.0706L70.561 20.9356L68.335 18.2488C68.2391 18.1331 68.1132 18.0463 67.9712 17.9981C67.8293 17.9499 67.6768 17.9421 67.5308 17.9757C67.3847 18.0093 67.2508 18.083 67.1438 18.1884C67.0368 18.2939 66.9609 18.4272 66.9245 18.5734L65.3017 25.1025L66.876 25.4984L68.1114 20.5285L71.1456 24.1907C71.2586 24.3271 71.4128 24.4227 71.5848 24.463C71.7568 24.5033 71.9372 24.4861 72.0985 24.4139C72.2599 24.3418 72.3935 24.2187 72.4789 24.0632C72.5644 23.9078 72.5972 23.7286 72.5722 23.5528L71.893 18.7713Z" fill="#1D2C39"/>
<path d="M11.5627 8.60504H4.148V11.3124H6.27488C7.63013 11.3124 8.8287 11.5439 9.87059 12.007C10.9125 12.47 11.7115 13.1252 12.2677 13.9728C12.8318 14.8124 13.1138 15.7777 13.1138 16.8685C13.1138 18.5557 12.4871 19.9251 11.2337 20.9767C9.9881 22.0283 8.31167 22.554 6.20437 22.554H0V5.41502H11.5627V8.60504ZM4.148 14.4907V19.3758H6.26313C7.10134 19.3758 7.7633 19.1404 8.249 18.6695C8.74253 18.1987 8.98929 17.5905 8.98929 16.845C8.98929 16.1387 8.74644 15.5697 8.26075 15.1381C7.77505 14.7065 7.10134 14.4907 6.23963 14.4907H4.148Z" fill="white"/>
<path d="M25.076 5.41502H29.2005V22.554H25.076V11.748L18.9304 22.554H14.8059V5.41502H18.9304V16.2329L25.076 5.41502Z" fill="white"/>
<path d="M44.8055 8.60504H39.6704V22.554H35.5459V8.60504H30.5048V5.41502H44.8055V8.60504Z" fill="white"/>
<path d="M108.767 19.3522H103.115L102.128 22.554H97.7212L103.996 5.41493H107.874L114.196 22.554H109.766L108.767 19.3522ZM104.102 16.1621H107.78L105.935 10.2176L104.102 16.1621Z" fill="white"/>
<path d="M115.453 22.554V5.41493H121.599C123.8 5.41493 125.473 5.81908 126.616 6.62738C127.768 7.43567 128.344 8.60888 128.344 10.147C128.344 11.0338 128.14 11.7911 127.733 12.4189C127.325 13.0467 126.726 13.5097 125.935 13.8079C126.828 14.0433 127.513 14.4828 127.991 15.1263C128.469 15.7698 128.708 16.5545 128.708 17.4805C128.708 19.1599 128.175 20.4234 127.11 21.2709C126.052 22.1106 124.482 22.5383 122.398 22.554H115.453ZM119.578 15.2675V19.3757H122.28C123.024 19.3757 123.596 19.207 123.996 18.8695C124.395 18.5242 124.595 18.0416 124.595 17.4217C124.595 15.9934 123.886 15.2754 122.468 15.2675H119.578ZM119.578 12.5601H121.728C122.629 12.5523 123.271 12.3875 123.655 12.0657C124.039 11.744 124.231 11.2692 124.231 10.6414C124.231 9.91942 124.023 9.40148 123.608 9.08758C123.193 8.76583 122.523 8.60496 121.599 8.60496H119.578V12.5601Z" fill="white"/>
<path d="M144.09 8.60496H138.954V22.554H134.83V8.60496H129.789V5.41493H144.09V8.60496Z" fill="white"/>
<path d="M160 14.3376C160 16.0091 159.691 17.4884 159.072 18.7754C158.453 20.0624 157.572 21.0551 156.428 21.7535C155.292 22.4441 153.995 22.7894 152.538 22.7894C151.081 22.7894 149.789 22.4559 148.661 21.7888C147.533 21.1139 146.651 20.1526 146.017 18.9049C145.39 17.6571 145.061 16.2249 145.03 14.6083V13.6431C145.03 11.9637 145.335 10.4844 145.946 9.20529C146.565 7.9183 147.446 6.92558 148.59 6.22715C149.742 5.52872 151.05 5.1795 152.515 5.1795C153.964 5.1795 155.257 5.5248 156.393 6.21538C157.528 6.90596 158.41 7.89083 159.036 9.16998C159.671 10.4413 159.992 11.9009 160 13.5489V14.3376ZM155.805 13.6195C155.805 11.9166 155.519 10.6257 154.947 9.74677C154.383 8.86 153.572 8.41661 152.515 8.41661C150.447 8.41661 149.354 9.97043 149.236 13.0781L149.225 14.3376C149.225 16.017 149.503 17.3079 150.059 18.2103C150.615 19.1128 151.442 19.564 152.538 19.564C153.58 19.564 154.383 19.1207 154.947 18.2339C155.511 17.3471 155.797 16.0719 155.805 14.4082V13.6195Z" fill="white"/>
<path d="M24.9902 38.9329V32.593H27.3164C28.1211 32.593 28.7383 32.7375 29.168 33.0266C29.5977 33.3118 29.8125 33.7317 29.8125 34.2864C29.8125 34.6028 29.7168 34.886 29.5254 35.136C29.334 35.3821 29.0547 35.5618 28.6875 35.675C29.1016 35.7532 29.4336 35.9309 29.6836 36.2083C29.9375 36.4856 30.0645 36.8079 30.0645 37.175C30.0645 37.7336 29.8574 38.1672 29.4434 38.4758C29.0332 38.7805 28.4512 38.9329 27.6973 38.9329H24.9902ZM25.6875 36.0149V38.3469H27.7207C28.248 38.3469 28.6543 38.2454 28.9395 38.0422C29.2246 37.8391 29.3672 37.5461 29.3672 37.1633C29.3672 36.8118 29.2246 36.5325 28.9395 36.3254C28.6543 36.1184 28.248 36.0149 27.7207 36.0149H25.6875ZM25.6875 35.429H27.4629C28.5645 35.4133 29.1152 35.0383 29.1152 34.304C29.1152 33.9172 28.9629 33.636 28.6582 33.4602C28.3574 33.2805 27.9102 33.1907 27.3164 33.1907H25.6875V35.429Z" fill="white"/>
<path d="M32.4023 34.8958H34.2305C34.6992 34.8958 35.1094 34.9817 35.4609 35.1536C35.8164 35.3215 36.084 35.5559 36.2637 35.8567C36.4473 36.1575 36.5391 36.5071 36.5391 36.9055C36.5391 37.5188 36.3281 38.011 35.9062 38.3821C35.4883 38.7493 34.9219 38.9329 34.207 38.9329H31.7051V32.593H32.4023V34.8958ZM32.4023 35.4934V38.3411H34.2188C34.7227 38.3411 35.1172 38.2141 35.4023 37.9602C35.6914 37.7063 35.8359 37.3586 35.8359 36.9172C35.8359 36.4954 35.6953 36.1555 35.4141 35.8977C35.1367 35.636 34.7559 35.5012 34.2715 35.4934H32.4023ZM38.6895 38.9329H37.9863V32.593H38.6895V38.9329Z" fill="white"/>
<path d="M42.3633 36.0266H41.3906V38.9329H40.6816V32.593H41.3906V35.4055H42.3516L44.6777 32.593H45.5625L42.9609 35.6692L45.8496 38.9329H44.9238L42.3633 36.0266Z" fill="white"/>
<path d="M48.873 37.925L50.7246 32.593H51.4805L48.7734 40.011L48.6328 40.3391C48.2852 41.1086 47.748 41.4934 47.0215 41.4934C46.8535 41.4934 46.6738 41.4661 46.4824 41.4114L46.4766 40.8313L46.8398 40.8665C47.1836 40.8665 47.4609 40.7805 47.6719 40.6086C47.8867 40.4407 48.0684 40.1497 48.2168 39.7356L48.5273 38.8801L46.1367 32.593H46.9043L48.873 37.925Z" fill="white"/>
<path d="M57.4395 38.9329H56.7363V33.1965H53.3203V38.9329H52.6172V32.593H57.4395V38.9329Z" fill="white"/>
<path d="M66.2402 38.9329C66.1699 38.7336 66.125 38.4387 66.1055 38.0481C65.8594 38.3684 65.5449 38.6165 65.1621 38.7922C64.7832 38.9641 64.3809 39.05 63.9551 39.05C63.3457 39.05 62.8516 38.8801 62.4727 38.5403C62.0977 38.2004 61.9102 37.7708 61.9102 37.2512C61.9102 36.634 62.166 36.1458 62.6777 35.7864C63.1934 35.427 63.9102 35.2473 64.8281 35.2473H66.0996V34.5266C66.0996 34.0735 65.959 33.718 65.6777 33.4602C65.4004 33.1985 64.9941 33.0676 64.459 33.0676C63.9707 33.0676 63.5664 33.1926 63.2461 33.4426C62.9258 33.6926 62.7656 33.9934 62.7656 34.345L62.0625 34.3391C62.0625 33.8352 62.2969 33.3997 62.7656 33.0325C63.2344 32.6614 63.8105 32.4758 64.4941 32.4758C65.2012 32.4758 65.7578 32.6536 66.1641 33.009C66.5742 33.3606 66.7852 33.8528 66.7969 34.4856V37.4856C66.7969 38.0989 66.8613 38.5579 66.9902 38.8625V38.9329H66.2402ZM64.0371 38.429C64.5059 38.429 64.9238 38.3157 65.291 38.0891C65.6621 37.8625 65.9316 37.5598 66.0996 37.1809V35.7864H64.8457C64.1465 35.7942 63.5996 35.9231 63.2051 36.1731C62.8105 36.4192 62.6133 36.759 62.6133 37.1926C62.6133 37.5481 62.7441 37.843 63.0059 38.0774C63.2715 38.3118 63.6152 38.429 64.0371 38.429Z" fill="white"/>
<path d="M68.748 38.9329V32.593H71.0742C71.8789 32.593 72.4961 32.7375 72.9258 33.0266C73.3555 33.3118 73.5703 33.7317 73.5703 34.2864C73.5703 34.6028 73.4746 34.886 73.2832 35.136C73.0918 35.3821 72.8125 35.5618 72.4453 35.675C72.8594 35.7532 73.1914 35.9309 73.4414 36.2083C73.6953 36.4856 73.8223 36.8079 73.8223 37.175C73.8223 37.7336 73.6152 38.1672 73.2012 38.4758C72.791 38.7805 72.209 38.9329 71.4551 38.9329H68.748ZM69.4453 36.0149V38.3469H71.4785C72.0059 38.3469 72.4121 38.2454 72.6973 38.0422C72.9824 37.8391 73.125 37.5461 73.125 37.1633C73.125 36.8118 72.9824 36.5325 72.6973 36.3254C72.4121 36.1184 72.0059 36.0149 71.4785 36.0149H69.4453ZM69.4453 35.429H71.2207C72.3223 35.4133 72.873 35.0383 72.873 34.304C72.873 33.9172 72.7207 33.636 72.416 33.4602C72.1152 33.2805 71.668 33.1907 71.0742 33.1907H69.4453V35.429Z" fill="white"/>
<path d="M79.8691 33.1907H77.5605V38.9329H76.8574V33.1907H74.6367V32.593H79.8691V33.1907Z" fill="white"/>
<path d="M80.3906 35.6692C80.3906 35.0598 80.5078 34.511 80.7422 34.0227C80.9805 33.5344 81.3145 33.1555 81.7441 32.886C82.1777 32.6125 82.668 32.4758 83.2148 32.4758C84.0586 32.4758 84.7422 32.7727 85.2656 33.3665C85.7891 33.9563 86.0508 34.7395 86.0508 35.7161V35.8625C86.0508 36.4758 85.9316 37.0286 85.6934 37.5208C85.459 38.009 85.127 38.386 84.6973 38.6516C84.2676 38.9172 83.7773 39.05 83.2266 39.05C82.3867 39.05 81.7031 38.7551 81.1758 38.1653C80.6523 37.5715 80.3906 36.7864 80.3906 35.8098V35.6692ZM81.0938 35.8625C81.0938 36.6204 81.2891 37.2434 81.6797 37.7317C82.0742 38.2161 82.5898 38.4583 83.2266 38.4583C83.8594 38.4583 84.3711 38.2161 84.7617 37.7317C85.1562 37.2434 85.3535 36.6008 85.3535 35.804V35.6692C85.3535 35.1848 85.2637 34.7415 85.084 34.3391C84.9043 33.9368 84.6523 33.6262 84.3281 33.4075C84.0039 33.1848 83.6328 33.0735 83.2148 33.0735C82.5898 33.0735 82.0801 33.3196 81.6855 33.8118C81.291 34.3 81.0938 34.9407 81.0938 35.7336V35.8625Z" fill="white"/>
<path d="M91.0137 37.9836L93.5332 32.593H94.4004V38.9329H93.6973V33.7297L91.2598 38.9329H90.7617L88.2773 33.6125V38.9329H87.5801V32.593H88.5L91.0137 37.9836Z" fill="white"/>
<path d="M95.8945 35.6692C95.8945 35.0598 96.0117 34.511 96.2461 34.0227C96.4844 33.5344 96.8184 33.1555 97.248 32.886C97.6816 32.6125 98.1719 32.4758 98.7188 32.4758C99.5625 32.4758 100.246 32.7727 100.77 33.3665C101.293 33.9563 101.555 34.7395 101.555 35.7161V35.8625C101.555 36.4758 101.436 37.0286 101.197 37.5208C100.963 38.009 100.631 38.386 100.201 38.6516C99.7715 38.9172 99.2812 39.05 98.7305 39.05C97.8906 39.05 97.207 38.7551 96.6797 38.1653C96.1562 37.5715 95.8945 36.7864 95.8945 35.8098V35.6692ZM96.5977 35.8625C96.5977 36.6204 96.793 37.2434 97.1836 37.7317C97.5781 38.2161 98.0938 38.4583 98.7305 38.4583C99.3633 38.4583 99.875 38.2161 100.266 37.7317C100.66 37.2434 100.857 36.6008 100.857 35.804V35.6692C100.857 35.1848 100.768 34.7415 100.588 34.3391C100.408 33.9368 100.156 33.6262 99.832 33.4075C99.5078 33.1848 99.1367 33.0735 98.7188 33.0735C98.0938 33.0735 97.584 33.3196 97.1895 33.8118C96.7949 34.3 96.5977 34.9407 96.5977 35.7336V35.8625Z" fill="white"/>
<path d="M105.562 33.0149C106.367 33.0149 107.02 33.2786 107.52 33.8059C108.02 34.3293 108.27 35.0247 108.27 35.8918V36.0442C108.27 36.6184 108.154 37.136 107.924 37.5969C107.697 38.054 107.369 38.4114 106.939 38.6692C106.514 38.9231 106.023 39.05 105.469 39.05C104.633 39.05 103.955 38.7727 103.436 38.218C102.92 37.6594 102.662 36.9153 102.662 35.9856V35.4231C102.662 34.1106 102.912 33.0618 103.412 32.2766C103.912 31.4915 104.623 31.0227 105.545 30.8704C106.127 30.7766 106.535 30.6497 106.77 30.4895C107.008 30.3293 107.127 30.1106 107.127 29.8333H107.73C107.73 30.1614 107.662 30.4329 107.525 30.6477C107.389 30.8625 107.184 31.0364 106.91 31.1692C106.637 31.2981 106.219 31.4075 105.656 31.4973C105.012 31.5989 104.492 31.8743 104.098 32.3235C103.707 32.7688 103.453 33.3665 103.336 34.1165C103.586 33.7883 103.898 33.5227 104.273 33.3196C104.652 33.1165 105.082 33.0149 105.562 33.0149ZM103.365 35.8977V36.0442C103.365 36.759 103.559 37.3411 103.945 37.7903C104.332 38.2356 104.84 38.4583 105.469 38.4583C106.102 38.4583 106.609 38.2336 106.992 37.7844C107.375 37.3313 107.566 36.7375 107.566 36.0032V35.8508C107.566 35.1907 107.371 34.6516 106.98 34.2336C106.594 33.8157 106.086 33.6067 105.457 33.6067C104.828 33.6067 104.322 33.8196 103.939 34.2454C103.557 34.6672 103.365 35.218 103.365 35.8977Z" fill="white"/>
<path d="M113.678 32.593H114.381V38.9329H113.678V33.7239L110.256 38.9329H109.559V32.593H110.256V37.8079L113.678 32.593Z" fill="white"/>
<path d="M121.137 32.593V38.9329H120.434V33.1965H117.838L117.727 35.5696C117.68 36.4485 117.592 37.1204 117.463 37.5852C117.334 38.0461 117.143 38.386 116.889 38.6047C116.635 38.8235 116.297 38.9329 115.875 38.9329H115.605V38.3118L115.822 38.3C116.225 38.2922 116.514 38.0969 116.689 37.7141C116.865 37.3313 116.98 36.6477 117.035 35.6633L117.164 32.593H121.137Z" fill="white"/>
<path d="M125.479 39.05C124.939 39.05 124.451 38.9172 124.014 38.6516C123.58 38.386 123.242 38.0168 123 37.5442C122.758 37.0676 122.637 36.5344 122.637 35.9446V35.6926C122.637 35.0833 122.754 34.5344 122.988 34.0461C123.227 33.5579 123.557 33.175 123.979 32.8977C124.4 32.6165 124.857 32.4758 125.35 32.4758C126.119 32.4758 126.729 32.7395 127.178 33.2668C127.631 33.7903 127.857 34.5071 127.857 35.4172V35.8098H123.334V35.9446C123.334 36.6633 123.539 37.2629 123.949 37.7434C124.363 38.22 124.883 38.4583 125.508 38.4583C125.883 38.4583 126.213 38.3899 126.498 38.2532C126.787 38.1165 127.049 37.8977 127.283 37.5969L127.723 37.9309C127.207 38.677 126.459 39.05 125.479 39.05ZM125.35 33.0735C124.822 33.0735 124.377 33.2668 124.014 33.6536C123.654 34.0403 123.436 34.5598 123.357 35.2122H127.16V35.136C127.141 34.5266 126.967 34.0305 126.639 33.6477C126.311 33.2649 125.881 33.0735 125.35 33.0735Z" fill="white"/>
<path d="M133.389 32.593H134.092V38.9329H133.389V33.7239L129.967 38.9329H129.27V32.593H129.967V37.8079L133.389 32.593ZM133.354 30.3079C133.354 30.7571 133.199 31.1204 132.891 31.3977C132.586 31.675 132.176 31.8137 131.66 31.8137C131.152 31.8137 130.742 31.677 130.43 31.4036C130.121 31.1262 129.967 30.761 129.967 30.3079H130.564C130.564 30.6321 130.66 30.8801 130.852 31.052C131.047 31.2239 131.316 31.3098 131.66 31.3098C132.004 31.3098 132.271 31.22 132.463 31.0403C132.658 30.8606 132.756 30.6165 132.756 30.3079H133.354Z" fill="white"/>
</svg>
