<svg width="190" height="50" viewBox="0 0 190 50" fill="none" xmlns="http://www.w3.org/2000/svg">
<path d="M112.577 5.84411C112.753 5.77041 112.902 5.64618 113.008 5.48705C113.113 5.32792 113.169 5.14101 113.169 4.94982V4.16379C113.169 3.90675 113.068 3.66024 112.887 3.47849C112.706 3.29673 112.461 3.19462 112.206 3.19462H104.276C99.3683 3.19266 94.5609 4.58845 90.4095 7.22044L91.4366 8.86053C95.2805 6.42351 99.7318 5.13113 104.276 5.13296H109.862C108.953 5.75697 108.14 6.5136 107.452 7.37802L103.07 12.8863H94.8614V14.8247H113.169V12.8863H111.242V10.948C111.242 10.7319 111.17 10.5219 111.038 10.3516C110.906 10.1812 110.721 10.0602 110.512 10.0077L108.276 9.44536L108.957 8.58883C109.917 7.3839 111.161 6.44022 112.577 5.84411ZM109.315 11.7047V12.8863H105.539L106.951 11.1104L109.315 11.7047Z" fill="#E22626"/>
<path d="M91.9831 20.7949C92.0113 20.9695 92.0864 21.133 92.2003 21.2677C92.3143 21.4024 92.4627 21.5032 92.6295 21.5591L93.5782 21.8772C95.0101 22.3566 96.5414 22.4525 98.0214 22.1555L98.4401 22.0712C99.3335 21.8889 100.158 21.4564 100.817 20.8237C101.477 20.1909 101.946 19.3836 102.169 18.4947L102.264 18.1124C102.333 17.8349 102.331 17.5444 102.259 17.2678C102.186 16.9913 102.045 16.7377 101.849 16.5307C101.653 16.3236 101.407 16.1699 101.136 16.0837C100.865 15.9976 100.577 15.9818 100.298 16.0379H100.298L99.1228 16.2742C97.3214 16.6392 95.6234 17.4028 94.1519 18.5098L92.3561 19.8644C92.2154 19.9705 92.1063 20.1133 92.0406 20.2773C91.9748 20.4413 91.9549 20.6203 91.9831 20.7949ZM95.3081 20.0604C96.5493 19.1268 97.9814 18.4828 99.5007 18.175L100.302 18.0137L100.3 18.0246C100.165 18.558 99.8843 19.0424 99.4884 19.422C99.0925 19.8017 98.5981 20.0611 98.0621 20.1705L97.6433 20.2547C96.7842 20.4272 95.9 20.4299 95.0398 20.2628L95.3081 20.0604Z" fill="#E22626"/>
<path d="M105.461 27.4239C105.993 27.4239 106.424 26.99 106.424 26.4547C106.424 25.9195 105.993 25.4856 105.461 25.4856C104.929 25.4856 104.497 25.9195 104.497 26.4547C104.497 26.99 104.929 27.4239 105.461 27.4239Z" fill="#E22626"/>
<path d="M113.169 16.763H110.279V18.7014H113.169V16.763Z" fill="#E22626"/>
<path d="M105.461 20.6397C103.928 20.6414 102.458 21.2546 101.375 22.3448C100.291 23.435 99.681 24.913 99.6793 26.4547H88.1163V28.3931H90.4903C90.1509 28.9813 89.6641 29.4699 89.0785 29.8099C88.4929 30.15 87.829 30.3298 87.1528 30.3314V32.2698C88.3477 32.2668 89.5126 31.8929 90.4883 31.199C91.464 30.5051 92.2029 29.5252 92.6041 28.3931H95.1916C95.5927 29.5252 96.3316 30.5051 97.3073 31.199C98.283 31.8929 99.4479 32.2668 100.643 32.2698H105.461C106.656 32.2682 107.821 31.8948 108.797 31.2008C109.773 30.5067 110.511 29.5259 110.911 28.3931H113.169V26.4547H111.242C111.241 24.913 110.631 23.435 109.547 22.3448C108.463 21.2546 106.994 20.6414 105.461 20.6397ZM97.3053 28.3931H100.011C100.263 29.1081 100.652 29.7666 101.156 30.3314H100.643C99.9667 30.3298 99.3027 30.15 98.7171 29.8099C98.1315 29.4699 97.6447 28.9813 97.3053 28.3931ZM105.461 30.3314C104.698 30.3314 103.953 30.1041 103.319 29.6781C102.686 29.2521 102.192 28.6466 101.9 27.9383C101.608 27.2299 101.532 26.4504 101.681 25.6984C101.829 24.9464 102.196 24.2557 102.735 23.7135C103.274 23.1713 103.961 22.8021 104.709 22.6525C105.456 22.503 106.231 22.5797 106.936 22.8731C107.64 23.1666 108.242 23.6634 108.666 24.301C109.089 24.9385 109.315 25.688 109.315 26.4547C109.314 27.4825 108.907 28.4679 108.185 29.1947C107.462 29.9214 106.483 30.3303 105.461 30.3314Z" fill="#E22626"/>
<path d="M76.7552 12.7784C76.2543 11.8382 75.5308 11.0367 74.6488 10.4445C74.4016 10.2787 74.1712 10.0887 73.961 9.87743L72.1628 8.06875C69.7278 5.61081 66.5859 3.98542 63.1818 3.42265L63.1799 3.42229L63.179 3.42213L63.1784 3.42206C62.2811 3.27043 61.3727 3.19436 60.4628 3.19462H55.3546V5.13296H60.4628C60.9351 5.13296 61.4066 5.15889 61.874 5.20478L60.3462 12.8863H55.3546V14.8247H62.6369C66.2735 14.8273 69.8014 13.5776 72.6338 11.2835C72.9241 11.5709 73.2409 11.83 73.5798 12.0573C74.198 12.4722 74.705 13.0339 75.056 13.6928C75.102 13.7791 75.1435 13.8675 75.1837 13.9564C73.6211 14.2137 72.1774 14.9553 71.0541 16.0777C70.9583 16.1741 70.8838 16.2898 70.8354 16.4171C70.787 16.5444 70.7659 16.6806 70.7734 16.8166C70.7809 16.9527 70.8169 17.0857 70.8789 17.2069C70.941 17.328 71.0278 17.4347 71.1336 17.5198L75.5898 21.1055V26.4547H74.6262C74.6262 24.9125 74.0171 23.4334 72.9329 22.3429C71.8486 21.2524 70.3781 20.6397 68.8447 20.6397C67.3114 20.6397 65.8408 21.2524 64.7566 22.3429C63.6724 23.4334 63.0633 24.9125 63.0633 26.4547H55.3546V28.3931H58.5755C58.9767 29.5252 59.7156 30.5051 60.6913 31.199C61.667 31.8929 62.8319 32.2668 64.0268 32.2698H68.8447C70.0399 32.2682 71.2052 31.8948 72.181 31.2008C73.1568 30.5067 73.8951 29.5259 74.2947 28.3931H76.5534C76.8089 28.3931 77.054 28.291 77.2347 28.1092C77.4154 27.9275 77.5169 27.6809 77.517 27.4239V15.835C77.5172 14.7686 77.2555 13.7186 76.7552 12.7784ZM62.3115 12.8863L63.7773 5.51669C66.4385 6.13374 68.8726 7.49336 70.8 9.43934L71.2616 9.90357C68.7983 11.8384 65.7622 12.8884 62.6369 12.8863H62.3115ZM60.6893 28.3931H63.3947C63.6472 29.1081 64.0363 29.7666 64.5401 30.3314H64.0268C63.3506 30.3298 62.6866 30.15 62.101 29.8099C61.5154 29.4699 61.0287 28.9813 60.6893 28.3931ZM68.8447 30.3314C68.0824 30.3314 67.3372 30.1041 66.7034 29.6781C66.0695 29.2521 65.5755 28.6466 65.2838 27.9383C64.9921 27.2299 64.9158 26.4504 65.0645 25.6984C65.2132 24.9464 65.5803 24.2557 66.1193 23.7135C66.6584 23.1713 67.3451 22.8021 68.0928 22.6525C68.8405 22.503 69.6154 22.5797 70.3197 22.8731C71.024 23.1666 71.626 23.6634 72.0495 24.301C72.473 24.9385 72.6991 25.688 72.6991 26.4547C72.6979 27.4825 72.2914 28.4679 71.5689 29.1947C70.8463 29.9214 69.8666 30.3303 68.8447 30.3314ZM73.2632 16.7511C73.9631 16.2822 74.7577 15.9754 75.5898 15.8528V18.6232L73.2632 16.7511Z" fill="#E22626"/>
<path d="M68.8447 27.4239C69.3769 27.4239 69.8083 26.99 69.8083 26.4547C69.8083 25.9195 69.3769 25.4856 68.8447 25.4856C68.3126 25.4856 67.8812 25.9195 67.8812 26.4547C67.8812 26.99 68.3126 27.4239 68.8447 27.4239Z" fill="#E22626"/>
<path d="M68.1633 16.0777C67.9478 16.2957 67.6915 16.4685 67.4092 16.5861C67.1268 16.7037 66.8241 16.7639 66.5185 16.763H65.954V18.7014H66.5185C67.0773 18.7029 67.6308 18.593 68.1471 18.3779C68.6634 18.1628 69.1321 17.8468 69.5261 17.4483L68.1633 16.0777Z" fill="#E22626"/>
<path d="M59.2089 16.763H55.3546V18.7014H59.2089V16.763Z" fill="#E22626"/>
<path d="M85.373 22.578H90.0435C90.225 22.5781 90.4028 22.5265 90.5565 22.4293C90.7101 22.3321 90.8334 22.1933 90.912 22.0287C90.9906 21.8642 91.0215 21.6806 91.0009 21.4993C90.9804 21.3179 90.9093 21.146 90.7959 21.0034L87.5773 16.9568L93.4942 12.7058C93.644 12.5982 93.76 12.4498 93.8285 12.278C93.897 12.1062 93.9152 11.9182 93.8809 11.7364C93.8465 11.5545 93.7612 11.3864 93.6348 11.2518C93.5085 11.1172 93.3465 11.0218 93.1679 10.9769L86.3698 9.26756L88.0934 1.46651C88.1373 1.26795 88.1179 1.06053 88.0381 0.873647C87.9582 0.686763 87.8219 0.529884 87.6485 0.42523C87.4751 0.320576 87.2734 0.273452 87.0718 0.290534C86.8703 0.307616 86.6792 0.388038 86.5257 0.520408L80.5225 5.69593L76.33 0.63582C76.2032 0.482822 76.0327 0.372824 75.8415 0.320793C75.6504 0.268761 75.4479 0.277222 75.2618 0.345025C75.0756 0.412829 74.9147 0.536682 74.8009 0.699732C74.6872 0.862782 74.6262 1.05711 74.6262 1.25628V8.04048H76.5534V3.93315L79.6675 7.69177C79.7492 7.79041 79.8496 7.87174 79.9628 7.93103C80.0761 7.99031 80.1999 8.02637 80.3271 8.03711C80.4543 8.04784 80.5824 8.03305 80.7039 7.99358C80.8254 7.9541 80.9378 7.89074 81.0347 7.80718L85.5851 3.88429L84.2849 9.76859C84.2305 10.0152 84.2739 10.2735 84.4059 10.4883C84.538 10.7032 84.7482 10.8578 84.9919 10.9191L90.6762 12.3484L85.6292 15.9744C85.5226 16.0509 85.4327 16.1485 85.3648 16.2612C85.297 16.3739 85.2528 16.4993 85.2348 16.6298C85.2168 16.7602 85.2254 16.893 85.2601 17.02C85.2948 17.147 85.3549 17.2656 85.4367 17.3685L88.0387 20.6397H84.262C84.124 20.6397 83.9875 20.6695 83.8619 20.7272C83.7363 20.7848 83.6245 20.869 83.534 20.9739C83.4436 21.0788 83.3766 21.202 83.3376 21.3352C83.2986 21.4684 83.2886 21.6085 83.3081 21.7459L83.7913 25.1481L81.1479 21.9576C81.034 21.8201 80.8845 21.717 80.7159 21.6598C80.5473 21.6026 80.3663 21.5934 80.1928 21.6333C80.0194 21.6732 79.8603 21.7606 79.7333 21.8859C79.6062 22.0112 79.5161 22.1694 79.4729 22.343L77.5458 30.0963L79.4153 30.5665L80.8823 24.6647L84.4854 29.0135C84.6196 29.1756 84.8028 29.2891 85.007 29.337C85.2112 29.3848 85.4254 29.3643 85.617 29.2787C85.8087 29.193 85.9673 29.0468 86.0688 28.8622C86.1703 28.6776 86.2092 28.4648 86.1795 28.256L85.373 22.578Z" fill="#E22626"/>
<path d="M13.7307 10.5056H4.92575V13.7206H7.45142C9.06078 13.7206 10.4841 13.9955 11.7213 14.5453C12.9586 15.0952 13.9075 15.8733 14.5679 16.8797C15.2377 17.8769 15.5726 19.0231 15.5726 20.3184C15.5726 22.322 14.8284 23.9482 13.34 25.1969C11.8609 26.4456 9.87011 27.07 7.36769 27.07H0V6.71742H13.7307V10.5056ZM4.92575 17.4948V23.2958H7.43746C8.43285 23.2958 9.21892 23.0163 9.79568 22.4571C10.3818 21.898 10.6748 21.1758 10.6748 20.2905C10.6748 19.4518 10.3864 18.7761 9.80964 18.2636C9.23287 17.7511 8.43285 17.4948 7.40956 17.4948H4.92575Z" fill="#1D2C39"/>
<path d="M29.7778 6.71742H34.6756V27.07H29.7778V14.2378L22.4798 27.07H17.582V6.71742H22.4798V19.5636L29.7778 6.71742Z" fill="#1D2C39"/>
<path d="M53.2065 10.5056H47.1086V27.07H42.2108V10.5056H36.2245V6.71742H53.2065V10.5056Z" fill="#1D2C39"/>
<path d="M129.161 23.2678H122.449L121.277 27.0699H116.044L123.495 6.71731H128.1L135.607 27.0699H130.347L129.161 23.2678ZM123.621 19.4796H127.989L125.798 12.4205L123.621 19.4796Z" fill="#1D2C39"/>
<path d="M137.101 27.0699V6.71731H144.398C147.012 6.71731 148.999 7.19724 150.357 8.15709C151.724 9.11694 152.408 10.5101 152.408 12.3366C152.408 13.3897 152.166 14.289 151.682 15.0345C151.199 15.78 150.487 16.3298 149.547 16.6839C150.608 16.9635 151.422 17.4854 151.989 18.2495C152.557 19.0137 152.841 19.9456 152.841 21.0452C152.841 23.0395 152.208 24.5398 150.943 25.5463C149.687 26.5434 147.822 27.0513 145.347 27.0699H137.101ZM141.998 18.4173V23.2957H145.208C146.092 23.2957 146.771 23.0954 147.245 22.6947C147.719 22.2846 147.957 21.7115 147.957 20.9753C147.957 19.2793 147.115 18.4266 145.431 18.4173H141.998ZM141.998 15.2022H144.552C145.622 15.1929 146.385 14.9972 146.84 14.6151C147.296 14.233 147.524 13.6693 147.524 12.9237C147.524 12.0664 147.278 11.4513 146.785 11.0786C146.292 10.6965 145.496 10.5055 144.398 10.5055H141.998V15.2022Z" fill="#1D2C39"/>
<path d="M171.106 10.5055H165.008V27.0699H160.111V10.5055H154.124V6.71731H171.106V10.5055Z" fill="#1D2C39"/>
<path d="M190 17.313C190 19.2979 189.633 21.0545 188.898 22.5828C188.163 24.1111 187.116 25.29 185.758 26.1194C184.409 26.9394 182.87 27.3495 181.139 27.3495C179.409 27.3495 177.874 26.9534 176.534 26.1613C175.195 25.3599 174.148 24.2183 173.395 22.7366C172.651 21.2549 172.26 19.5542 172.223 17.6345V16.4882C172.223 14.494 172.585 12.7374 173.311 11.2184C174.046 9.69006 175.092 8.51121 176.451 7.68182C177.818 6.85244 179.372 6.43774 181.111 6.43774C182.832 6.43774 184.367 6.84778 185.716 7.66785C187.065 8.48791 188.112 9.65744 188.856 11.1764C189.609 12.6861 189.991 14.4194 190 16.3764V17.313ZM185.018 16.4603C185.018 14.4381 184.679 12.9051 184 11.8614C183.33 10.8083 182.367 10.2818 181.111 10.2818C178.655 10.2818 177.358 12.127 177.218 15.8173L177.204 17.313C177.204 19.3072 177.534 20.8402 178.195 21.9119C178.855 22.9835 179.837 23.5194 181.139 23.5194C182.376 23.5194 183.33 22.9929 184 21.9398C184.67 20.8868 185.009 19.3725 185.018 17.3968V16.4603Z" fill="#1D2C39"/>
<path d="M29.6759 46.5199V38.9913H32.4382C33.3938 38.9913 34.1267 39.163 34.637 39.5062C35.1472 39.8448 35.4023 40.3435 35.4023 41.0022C35.4023 41.3779 35.2887 41.7142 35.0614 42.0111C34.8341 42.3033 34.5024 42.5167 34.0664 42.6512C34.5581 42.744 34.9524 42.9551 35.2493 43.2844C35.5508 43.6138 35.7015 43.9965 35.7015 44.4325C35.7015 45.0958 35.4557 45.6107 34.964 45.9772C34.4769 46.339 33.7858 46.5199 32.8905 46.5199H29.6759ZM30.5039 43.0548V45.8241H32.9183C33.5446 45.8241 34.027 45.7035 34.3656 45.4623C34.7042 45.2211 34.8735 44.8732 34.8735 44.4186C34.8735 44.0011 34.7042 43.6694 34.3656 43.4236C34.027 43.1777 33.5446 43.0548 32.9183 43.0548H30.5039ZM30.5039 42.359H32.6122C33.9203 42.3405 34.5743 41.8951 34.5743 41.0231C34.5743 40.5638 34.3934 40.2299 34.0316 40.0211C33.6744 39.8077 33.1433 39.701 32.4382 39.701H30.5039V42.359Z" fill="black"/>
<path d="M38.4778 41.7258H40.6487C41.2053 41.7258 41.6924 41.8279 42.1099 42.032C42.532 42.2314 42.8497 42.5098 43.0631 42.8669C43.2811 43.2241 43.3901 43.6393 43.3901 44.1124C43.3901 44.8407 43.1396 45.4252 42.6387 45.8658C42.1423 46.3019 41.4697 46.5199 40.6208 46.5199H37.6498V38.9913H38.4778V41.7258ZM38.4778 42.4355V45.8171H40.6348C41.2332 45.8171 41.7017 45.6664 42.0403 45.3649C42.3835 45.0634 42.5552 44.6505 42.5552 44.1263C42.5552 43.6254 42.3882 43.2218 42.0542 42.9156C41.7249 42.6049 41.2726 42.4448 40.6974 42.4355H38.4778ZM45.9437 46.5199H45.1088V38.9913H45.9437V46.5199Z" fill="black"/>
<path d="M50.3064 43.0687H49.1514V46.5199H48.3094V38.9913H49.1514V42.3312H50.2925L53.0548 38.9913H54.1055L51.0161 42.6443L54.4464 46.5199H53.347L50.3064 43.0687Z" fill="black"/>
<path d="M58.0367 45.3231L60.2355 38.9913H61.1331L57.9185 47.8002L57.7515 48.1898C57.3386 49.1036 56.7008 49.5605 55.838 49.5605C55.6385 49.5605 55.4252 49.5281 55.1979 49.4631L55.1909 48.7743L55.6223 48.816C56.0305 48.816 56.3599 48.714 56.6104 48.5099C56.8655 48.3104 57.0812 47.9648 57.2574 47.4731L57.6262 46.4573L54.7874 38.9913H55.6989L58.0367 45.3231Z" fill="black"/>
<path d="M68.2094 46.5199H67.3744V39.708H63.3179V46.5199H62.4829V38.9913H68.2094V46.5199Z" fill="black"/>
<path d="M78.6603 46.5199C78.5768 46.2833 78.5234 45.9331 78.5002 45.4692C78.208 45.8496 77.8346 46.1442 77.38 46.3529C76.9301 46.557 76.4523 46.6591 75.9467 46.6591C75.223 46.6591 74.6362 46.4573 74.1863 46.0537C73.741 45.6501 73.5183 45.1399 73.5183 44.5229C73.5183 43.79 73.8221 43.2102 74.4298 42.7834C75.0421 42.3567 75.8933 42.1433 76.9834 42.1433H78.4933V41.2875C78.4933 40.7494 78.3263 40.3273 77.9923 40.0211C77.663 39.7103 77.1805 39.5549 76.545 39.5549C75.9652 39.5549 75.4851 39.7034 75.1047 40.0002C74.7244 40.2971 74.5342 40.6543 74.5342 41.0718L73.6992 41.0648C73.6992 40.4664 73.9775 39.9492 74.5342 39.5132C75.0908 39.0725 75.775 38.8522 76.5868 38.8522C77.4264 38.8522 78.0874 39.0632 78.5698 39.4854C79.0569 39.9028 79.3074 40.4873 79.3213 41.2388V44.8013C79.3213 45.5295 79.3978 46.0746 79.5509 46.4364V46.5199H78.6603ZM76.0441 45.9215C76.6007 45.9215 77.097 45.787 77.5331 45.5179C77.9738 45.2489 78.2938 44.8894 78.4933 44.4395V42.7834H77.0043C76.174 42.7927 75.5245 42.9458 75.056 43.2427C74.5875 43.5349 74.3533 43.9385 74.3533 44.4534C74.3533 44.8755 74.5087 45.2257 74.8195 45.504C75.1349 45.7823 75.5431 45.9215 76.0441 45.9215Z" fill="black"/>
<path d="M81.6383 46.5199V38.9913H84.4006C85.3562 38.9913 86.0891 39.163 86.5994 39.5062C87.1096 39.8448 87.3647 40.3435 87.3647 41.0022C87.3647 41.3779 87.2511 41.7142 87.0238 42.0111C86.7965 42.3033 86.4648 42.5167 86.0288 42.6512C86.5205 42.744 86.9148 42.9551 87.2117 43.2844C87.5132 43.6138 87.6639 43.9965 87.6639 44.4325C87.6639 45.0958 87.4181 45.6107 86.9264 45.9772C86.4393 46.339 85.7482 46.5199 84.8529 46.5199H81.6383ZM82.4663 43.0548V45.8241H84.8807C85.507 45.8241 85.9894 45.7035 86.328 45.4623C86.6666 45.2211 86.8359 44.8732 86.8359 44.4186C86.8359 44.0011 86.6666 43.6694 86.328 43.4236C85.9894 43.1777 85.507 43.0548 84.8807 43.0548H82.4663ZM82.4663 42.359H84.5746C85.8827 42.3405 86.5367 41.8951 86.5367 41.0231C86.5367 40.5638 86.3558 40.2299 85.994 40.0211C85.6368 39.8077 85.1057 39.701 84.4006 39.701H82.4663V42.359Z" fill="black"/>
<path d="M94.8446 39.701H92.1031V46.5199H91.2682V39.701H88.6311V38.9913H94.8446V39.701Z" fill="black"/>
<path d="M95.4639 42.6443C95.4639 41.9207 95.603 41.2689 95.8813 40.6891C96.1643 40.1093 96.5609 39.6593 97.0712 39.3392C97.5861 39.0145 98.1682 38.8522 98.8176 38.8522C99.8196 38.8522 100.631 39.2047 101.253 39.9098C101.875 40.6102 102.185 41.5403 102.185 42.7V42.8739C102.185 43.6022 102.044 44.2585 101.761 44.843C101.483 45.4229 101.088 45.8705 100.578 46.1859C100.068 46.5013 99.4856 46.6591 98.8315 46.6591C97.8342 46.6591 97.0225 46.3088 96.3962 45.6084C95.7747 44.9033 95.4639 43.9709 95.4639 42.8113V42.6443ZM96.2988 42.8739C96.2988 43.7738 96.5308 44.5137 96.9946 45.0935C97.4631 45.6687 98.0754 45.9563 98.8315 45.9563C99.583 45.9563 100.191 45.6687 100.655 45.0935C101.123 44.5137 101.357 43.7506 101.357 42.8043V42.6443C101.357 42.0691 101.251 41.5426 101.037 41.0648C100.824 40.587 100.525 40.2183 100.14 39.9585C99.7546 39.6941 99.314 39.5619 98.8176 39.5619C98.0754 39.5619 97.4701 39.8541 97.0016 40.4386C96.5331 41.0184 96.2988 41.7792 96.2988 42.7208V42.8739Z" fill="black"/>
<path d="M108.079 45.3927L111.071 38.9913H112.1V46.5199H111.266V40.3412L108.371 46.5199H107.78L104.829 40.202V46.5199H104.001V38.9913H105.094L108.079 45.3927Z" fill="black"/>
<path d="M113.875 42.6443C113.875 41.9207 114.014 41.2689 114.292 40.6891C114.575 40.1093 114.972 39.6593 115.482 39.3392C115.997 39.0145 116.579 38.8522 117.229 38.8522C118.23 38.8522 119.042 39.2047 119.664 39.9098C120.285 40.6102 120.596 41.5403 120.596 42.7V42.8739C120.596 43.6022 120.455 44.2585 120.172 44.843C119.893 45.4229 119.499 45.8705 118.989 46.1859C118.479 46.5013 117.896 46.6591 117.242 46.6591C116.245 46.6591 115.433 46.3088 114.807 45.6084C114.186 44.9033 113.875 43.9709 113.875 42.8113V42.6443ZM114.71 42.8739C114.71 43.7738 114.942 44.5137 115.406 45.0935C115.874 45.6687 116.486 45.9563 117.242 45.9563C117.994 45.9563 118.602 45.6687 119.065 45.0935C119.534 44.5137 119.768 43.7506 119.768 42.8043V42.6443C119.768 42.0691 119.661 41.5426 119.448 41.0648C119.235 40.587 118.936 40.2183 118.551 39.9585C118.166 39.6941 117.725 39.5619 117.229 39.5619C116.486 39.5619 115.881 39.8541 115.412 40.4386C114.944 41.0184 114.71 41.7792 114.71 42.7208V42.8739Z" fill="black"/>
<path d="M125.355 39.4923C126.311 39.4923 127.086 39.8054 127.679 40.4316C128.273 41.0532 128.57 41.8789 128.57 42.9087V43.0896C128.57 43.7715 128.433 44.3861 128.16 44.9335C127.891 45.4762 127.501 45.9006 126.991 46.2068C126.485 46.5083 125.903 46.6591 125.244 46.6591C124.251 46.6591 123.447 46.3297 122.83 45.671C122.217 45.0077 121.911 44.124 121.911 43.02V42.3521C121.911 40.7935 122.208 39.548 122.802 38.6156C123.396 37.6832 124.24 37.1266 125.335 36.9457C126.026 36.8344 126.51 36.6836 126.789 36.4934C127.072 36.3032 127.213 36.0435 127.213 35.7141H127.93C127.93 36.1038 127.849 36.4261 127.686 36.6813C127.524 36.9364 127.281 37.1428 126.956 37.3005C126.631 37.4536 126.135 37.5835 125.467 37.6902C124.701 37.8108 124.084 38.1378 123.616 38.6713C123.152 39.2001 122.851 39.9098 122.711 40.8004C123.008 40.4108 123.379 40.0953 123.825 39.8541C124.275 39.6129 124.785 39.4923 125.355 39.4923ZM122.746 42.9156V43.0896C122.746 43.9385 122.976 44.6296 123.435 45.1631C123.894 45.6919 124.497 45.9563 125.244 45.9563C125.996 45.9563 126.599 45.6896 127.053 45.1561C127.508 44.618 127.735 43.913 127.735 43.0409V42.86C127.735 42.076 127.503 41.4359 127.039 40.9396C126.58 40.4432 125.977 40.1951 125.23 40.1951C124.483 40.1951 123.883 40.4479 123.428 40.9535C122.974 41.4545 122.746 42.1085 122.746 42.9156Z" fill="black"/>
<path d="M134.992 38.9913H135.827V46.5199H134.992V40.3342L130.929 46.5199H130.101V38.9913H130.929V45.184L134.992 38.9913Z" fill="black"/>
<path d="M143.85 38.9913V46.5199H143.015V39.708H139.932L139.8 42.526C139.745 43.5697 139.64 44.3676 139.487 44.9196C139.334 45.4669 139.107 45.8705 138.805 46.1302C138.504 46.39 138.103 46.5199 137.602 46.5199H137.281V45.7823L137.539 45.7684C138.017 45.7592 138.36 45.5272 138.569 45.0726C138.777 44.618 138.914 43.8063 138.979 42.6373L139.132 38.9913H143.85Z" fill="black"/>
<path d="M149.006 46.6591C148.366 46.6591 147.786 46.5013 147.266 46.1859C146.751 45.8705 146.35 45.4321 146.062 44.8708C145.775 44.3049 145.631 43.6718 145.631 42.9713V42.6721C145.631 41.9485 145.77 41.2968 146.049 40.7169C146.332 40.1371 146.724 39.6825 147.224 39.3531C147.725 39.0192 148.268 38.8522 148.853 38.8522C149.766 38.8522 150.49 39.1653 151.024 39.7915C151.562 40.4131 151.831 41.2643 151.831 42.3451V42.8113H146.459V42.9713C146.459 43.8248 146.703 44.5369 147.19 45.1074C147.681 45.6733 148.298 45.9563 149.041 45.9563C149.486 45.9563 149.878 45.8751 150.216 45.7128C150.56 45.5504 150.87 45.2906 151.149 44.9335L151.671 45.3301C151.058 46.2161 150.17 46.6591 149.006 46.6591ZM148.853 39.5619C148.226 39.5619 147.698 39.7915 147.266 40.2507C146.839 40.71 146.58 41.3269 146.487 42.1016H151.003V42.0111C150.979 41.2875 150.773 40.6984 150.383 40.2438C149.994 39.7892 149.484 39.5619 148.853 39.5619Z" fill="black"/>
<path d="M158.399 38.9913H159.234V46.5199H158.399V40.3342L154.336 46.5199H153.508V38.9913H154.336V45.184L158.399 38.9913ZM158.357 36.2777C158.357 36.8112 158.174 37.2426 157.808 37.5719C157.446 37.9012 156.959 38.0659 156.346 38.0659C155.743 38.0659 155.256 37.9036 154.885 37.5789C154.519 37.2495 154.336 36.8158 154.336 36.2777H155.045C155.045 36.6627 155.159 36.9573 155.386 37.1614C155.618 37.3655 155.938 37.4675 156.346 37.4675C156.755 37.4675 157.072 37.3608 157.3 37.1475C157.532 36.9341 157.648 36.6442 157.648 36.2777H158.357Z" fill="black"/>
</svg>
