<svg width="31" height="30" viewBox="0 0 31 30" fill="none" xmlns="http://www.w3.org/2000/svg">
<circle cx="15.5" cy="15" r="15" fill="#48C95F"/>
<path d="M21.4451 9.04687C19.9634 7.57031 17.9878 6.75 15.9024 6.75C11.5671 6.75 8.05488 10.25 8.05488 14.5703C8.05488 15.9375 8.43902 17.3047 9.09756 18.4531L8 22.5L12.1707 21.4062C13.3232 22.0078 14.5854 22.3359 15.9024 22.3359C20.2378 22.3359 23.75 18.8359 23.75 14.5156C23.6951 12.4922 22.9268 10.5234 21.4451 9.04687ZM19.689 17.3594C19.5244 17.7969 18.7561 18.2344 18.372 18.2891C18.0427 18.3437 17.6037 18.3438 17.1646 18.2344C16.8902 18.125 16.5061 18.0156 16.0671 17.7969C14.0915 16.9766 12.8293 15.0078 12.7195 14.8438C12.6098 14.7344 11.8963 13.8047 11.8963 12.8203C11.8963 11.8359 12.3902 11.3984 12.5549 11.1797C12.7195 10.9609 12.939 10.9609 13.1037 10.9609C13.2134 10.9609 13.378 10.9609 13.4878 10.9609C13.5976 10.9609 13.7622 10.9062 13.9268 11.2891C14.0915 11.6719 14.4756 12.6562 14.5305 12.7109C14.5854 12.8203 14.5854 12.9297 14.5305 13.0391C14.4756 13.1484 14.4207 13.2578 14.311 13.3672C14.2012 13.4766 14.0915 13.6406 14.0366 13.6953C13.9268 13.8047 13.8171 13.9141 13.9268 14.0781C14.0366 14.2969 14.4207 14.8984 15.0244 15.4453C15.7927 16.1016 16.3963 16.3203 16.6159 16.4297C16.8354 16.5391 16.9451 16.4844 17.0549 16.375C17.1646 16.2656 17.5488 15.8281 17.6585 15.6094C17.7683 15.3906 17.9329 15.4453 18.0976 15.5C18.2622 15.5547 19.25 16.0469 19.4146 16.1562C19.6341 16.2656 19.7439 16.3203 19.7988 16.375C19.8537 16.5391 19.8537 16.9219 19.689 17.3594Z" fill="white"/>
</svg>
