<svg width="46" height="50" viewBox="0 0 46 50" fill="none" xmlns="http://www.w3.org/2000/svg">
<path d="M41.6667 30.6166V4.1667C41.6667 2.75 40.5834 1.6667 39.1667 1.6667H28.3334C28.3334 0.75 27.5834 0 26.6667 0H15C14.0833 0 13.3333 0.75 13.3333 1.6667H2.5C1.0833 1.6667 0 2.75 0 4.1667V47.5C0 48.9167 1.0833 50 2.5 50H35C41 50 45.8333 45.1667 45.8333 39.1667C45.8334 35.6849 44.2055 32.5962 41.6667 30.6166ZM39.1667 3.3333C39.6667 3.3333 40 3.6666 40 4.1666V29.5472C39.4689 29.2716 38.9118 29.0388 38.3333 28.8529V6.6667C38.3333 5.75 37.5833 5 36.6666 5H28.3333V3.3333H39.1667ZM24.1725 39.5058C24.1729 39.5223 24.1737 39.5388 24.1743 39.5552C24.2443 41.5581 24.8528 43.4197 25.8609 45H5V6.6667H13.3333C13.3333 7.5834 14.0833 8.3334 15 8.3334H26.6667C27.5834 8.3334 28.3334 7.5834 28.3334 6.6667H36.6667V28.46C36.5504 28.4421 36.4333 28.4267 36.3157 28.4125C36.3075 28.4115 36.2992 28.4106 36.291 28.4097C36.1991 28.3988 36.1069 28.3892 36.0144 28.3807C35.991 28.3785 35.9678 28.3765 35.9444 28.3745C35.866 28.3678 35.7874 28.3619 35.7085 28.3569C35.6798 28.3551 35.651 28.3531 35.6223 28.3515C35.5459 28.3472 35.4693 28.3439 35.3926 28.3412C35.3645 28.3402 35.3366 28.3389 35.3086 28.3381C35.2061 28.3353 35.1033 28.3335 35.0001 28.3335C29.0001 28.3335 24.1668 33.1668 24.1668 39.1668C24.1667 39.2802 24.169 39.3931 24.1725 39.5058ZM15 1.6667H26.6667V6.6666H15V1.6667ZM2.5 48.3333C2 48.3333 1.6667 48 1.6667 47.5V4.1667C1.6667 3.6667 2 3.3334 2.5 3.3334H13.3333V5H5C4.0833 5 3.3333 5.75 3.3333 6.6667V45C3.3333 45.9167 4.0833 46.6667 5 46.6667H27.1706C27.7787 47.3015 28.4638 47.8617 29.2109 48.3334L2.5 48.3333ZM35 48.3333C32.3518 48.3333 29.9753 47.2246 28.3059 45.4441C28.2724 45.3754 28.227 45.3103 28.1667 45.25C26.7615 43.6887 25.9415 41.6886 25.8435 39.5923C25.8433 39.5871 25.8431 39.582 25.8429 39.5769C25.8367 39.4404 25.8334 39.3037 25.8334 39.1666C25.8334 34.0833 29.9167 29.9999 35.0001 29.9999C35.1074 29.9999 35.2144 30.0023 35.3211 30.0061C35.3309 30.0063 35.3405 30.0068 35.3503 30.0071C35.3744 30.008 35.3985 30.0094 35.4227 30.0104C35.4937 30.0137 35.5645 30.0179 35.6352 30.0227C35.6995 30.0272 35.764 30.0319 35.8283 30.0382C35.8373 30.039 35.8463 30.0399 35.8552 30.0408C36.3201 30.0876 36.7852 30.1782 37.2501 30.3333C37.3473 30.3657 37.4445 30.3723 37.5417 30.3592C38.417 30.6124 39.2645 30.9991 40.0748 31.5209C42.5455 33.1586 44.1667 35.9639 44.1667 39.1666C44.1667 44.25 40.0834 48.3333 35 48.3333Z" fill="#1D2C39"/>
<path d="M40.5 34.4167C40.0833 34.0834 39.5833 34.1667 39.3333 34.5834L34.6667 41.25L31.4167 38.5833C31.0834 38.25 30.5 38.3333 30.25 38.6666C29.9167 38.9999 30 39.5833 30.3333 39.8333L34.3333 43.0833C34.4166 43.1666 34.6666 43.25 34.8333 43.25C34.8333 43.25 34.9166 43.25 34.9166 43.3333C35.1666 43.3333 35.3333 43.1666 35.4999 43L40.6666 35.5833C41 35.1667 40.9167 34.6667 40.5 34.4167Z" fill="#1D2C39"/>
<path d="M27.5 27.5C29.0458 27.5 30.3547 26.4335 30.7271 25H32C33.25 25 34.1667 24.0833 34.25 22.8333V19.5833C34.25 18.3333 33.25 17.4166 32.0833 17.4166H30.3083L27.0833 12.9166C26.5833 12.1666 25.75 11.7499 24.8333 11.7499H21.2273C21.1132 11.6962 20.9808 11.6666 20.8333 11.6666C20.6858 11.6666 20.5535 11.6963 20.4393 11.7499H16.8333C15.9166 11.7499 15.0833 12.1666 14.5833 12.9166L11.3583 17.4166H9.6667C8.4167 17.4166 7.5 18.4166 7.5 19.5833V22.8333C7.5 24.0833 8.4167 25 9.6667 25H10.9396C11.312 26.4335 12.6208 27.5 14.1667 27.5C15.7125 27.5 17.0214 26.4335 17.3938 25H24.2729C24.6454 26.4335 25.9542 27.5 27.5 27.5ZM27.5 25.8333C26.5833 25.8333 25.8333 25.0833 25.8333 24.1666C25.8333 23.2499 26.5833 22.4999 27.5 22.4999C28.4167 22.4999 29.1667 23.25 29.1667 24.1667C29.1667 25.0834 28.4167 25.8333 27.5 25.8333ZM25.6667 13.75L28.2741 17.4167H21.6667V13.3334H24.75C25.1667 13.3333 25.5 13.5 25.6667 13.75ZM15.8334 13.75C16.0834 13.5 16.4167 13.3333 16.7501 13.3333H20.0001V17.4166H13.3075L15.8334 13.75ZM14.1667 25.8333C13.25 25.8333 12.5 25.0833 12.5 24.1666C12.5 23.2499 13.25 22.4999 14.1667 22.4999C15.0834 22.4999 15.8334 23.2499 15.8334 24.1666C15.8334 25.0833 15.0834 25.8333 14.1667 25.8333ZM14.25 20.8333C14.2348 20.8333 14.2198 20.8341 14.2047 20.8343C14.192 20.8342 14.1795 20.8333 14.1667 20.8333C12.6208 20.8333 11.312 21.8998 10.9396 23.3333H9.6667C9.4167 23.3333 9.1667 23.0833 9.1667 22.8333V19.5833C9.1667 19.3333 9.4167 19.0833 9.6667 19.0833H11.2919C11.4024 19.1358 11.5268 19.1666 11.6667 19.1666H30C30.1399 19.1666 30.2643 19.1358 30.3748 19.0833H32.0833C32.3333 19.0833 32.5833 19.3333 32.5833 19.5833V22.8333C32.5833 23.0833 32.3333 23.3333 32.0833 23.3333H30.75C30.3333 21.9166 29.25 20.8333 27.6667 20.8333C27.6363 20.8333 27.6062 20.8345 27.576 20.8353C27.5507 20.8347 27.5255 20.8333 27.5 20.8333C25.9541 20.8333 24.6453 21.8998 24.2729 23.3333H17.5C17.0834 21.9167 15.8334 20.8333 14.25 20.8333Z" fill="#1D2C39"/>
<path d="M20.8334 31.6667H8.3334C7.8334 31.6667 7.5001 32 7.5001 32.5C7.5001 33 7.8334 33.3333 8.3334 33.3333H20.8334C21.3334 33.3333 21.6667 33 21.6667 32.5C21.6667 32 21.3334 31.6667 20.8334 31.6667Z" fill="#1D2C39"/>
<path d="M20.8334 35.8333H8.3334C7.8334 35.8333 7.5001 36.1666 7.5001 36.6666C7.5001 37.1666 7.8334 37.4999 8.3334 37.4999H20.8334C21.3334 37.4999 21.6667 37.1666 21.6667 36.6666C21.6667 36.1666 21.3334 35.8333 20.8334 35.8333Z" fill="#1D2C39"/>
<path d="M20.8334 40H8.3334C7.8334 40 7.5001 40.3333 7.5001 40.8333C7.5001 41.3333 7.8334 41.6666 8.3334 41.6666H20.8334C21.3334 41.6666 21.6667 41.3333 21.6667 40.8333C21.6667 40.3333 21.3334 40 20.8334 40Z" fill="#1D2C39"/>
</svg>
