<svg width="50" height="50" viewBox="0 0 50 50" fill="none" xmlns="http://www.w3.org/2000/svg">
<path d="M41.6666 36.0299L39.5442 34.7583C38.8973 34.3713 38.1571 34.1671 37.4031 34.1667H34.209C33.5551 34.1655 32.904 34.2497 32.2717 34.4165L22.6477 36.9999C21.5954 37.2905 20.7503 38.0741 20.3817 39.1016L11.9165 34.5219C11.2301 34.1313 10.4264 33.9986 9.65087 34.1476C9.35831 34.1992 9.0747 34.2924 8.80818 34.4242C8.20637 34.7123 7.70711 35.1778 7.3767 35.7577C7.0878 36.2626 6.93603 36.8343 6.93603 37.4158C6.92708 38.6031 7.55615 39.7034 8.58316 40.2983L23.7549 49.3758C24.414 49.7839 25.1733 50 25.9485 50H37.69C38.2145 50.0004 38.7341 49.9011 39.2216 49.7083L41.6666 48.7427V50H50V33.3333H41.6666V36.0299ZM38.6092 48.1584C38.3174 48.2735 38.0062 48.3329 37.6924 48.3333H25.9485C25.4789 48.3329 25.0187 48.2007 24.6208 47.9517L9.4283 38.8635C8.91194 38.5653 8.59578 38.0127 8.59985 37.4166C8.60107 37.1244 8.67797 36.8372 8.82324 36.5833C8.98925 36.2956 9.23909 36.0649 9.53897 35.9225C9.67122 35.8582 9.81119 35.8126 9.95564 35.7874C10.061 35.7678 10.168 35.7577 10.2751 35.7577C10.5615 35.7568 10.8431 35.8317 11.0917 35.9741L20.271 40.9342C20.2816 40.9851 20.2816 41.0352 20.295 41.086C20.6897 42.5407 22.0093 43.551 23.5168 43.5527C23.9807 43.5103 24.4401 43.4281 24.8901 43.3077L33.5482 40.9908L33.1185 39.3807L24.4885 41.6874C24.1085 41.7749 23.6181 41.875 23.5168 41.8835C22.7641 41.8848 22.1041 41.3818 21.9059 40.6559C21.8791 40.555 21.8632 40.4517 21.8575 40.3475C21.8575 40.3475 21.851 40.1457 21.8575 40.0749C21.921 39.3779 22.4092 38.7927 23.0835 38.6051L32.7034 36.0315C33.1946 35.9001 33.7007 35.8333 34.209 35.8333H37.4031C37.8556 35.8333 38.2995 35.9562 38.6873 36.1886L41.6666 37.9724V46.9499L38.6092 48.1584ZM43.3333 35H48.3333V48.3333H43.3333V35Z" fill="#1D2C39"/>
<path d="M34.3701 6.66669L29.8999 2.19689C28.4965 0.785349 26.5869 -0.00566605 24.5967 3.05568e-05H14.1199C13.4733 0.000844358 12.8357 0.151804 12.2567 0.43989L10.389 1.37413C10.0146 1.56253 9.59879 1.65245 9.18009 1.63577L8.33333 1.60607V3.05568e-05H0V18.3334H8.33333V15.8334H9.75016L10.2543 16.1666C11.665 17.1033 13.3077 17.6323 15 17.6941V28.3333H50V6.66669H34.3701ZM6.66666 16.6667H1.66667V1.6667H6.66666V16.6667ZM11.1768 14.7799L10.2498 14.1667H8.33333V3.27355L9.11905 3.30162C9.81689 3.32644 10.5094 3.1763 11.134 2.86502L13.0001 1.93077C13.3476 1.75703 13.7313 1.6667 14.1199 1.6667H24.5967C26.1446 1.66222 27.6302 2.27745 28.7215 3.37487L32.0133 6.66669H25.1367L23.114 4.6444L21.936 5.82237L27.8227 11.7094C28.4765 12.3605 28.4786 13.4184 27.8275 14.0727C27.1761 14.7266 26.1181 14.7286 25.4643 14.0776L20.5477 9.16099L19.9642 9.66108C18.3533 11.0291 15.9985 11.0641 14.3473 9.74408L13.8643 9.35264L12.8141 10.6474L13.3024 11.0433C13.8131 11.4514 14.3864 11.7745 15 11.9999V16.0266C13.6361 15.966 12.314 15.5351 11.1768 14.7799ZM23.031 13.9999L24.2883 15.2576C25.5937 16.5434 27.6892 16.5454 28.9966 15.2617C27.7734 17.1558 28.256 19.6765 30.0923 20.9847C31.9287 22.2929 34.469 21.9255 35.8594 20.151C37.2497 18.3761 36.9987 15.8216 35.2889 14.3518C33.5795 12.8821 31.016 13.0168 29.4702 14.6574C30.0394 13.7634 30.1412 12.6494 29.7432 11.6667H40.9025C41.261 13.7634 42.9032 15.4057 45 15.7642V19.2359C42.9032 19.5943 41.261 21.2366 40.9025 23.3333H24.0975C23.739 21.2366 22.0967 19.5943 20 19.2359V15.7642C21.191 15.5636 22.2681 14.9365 23.031 13.9999ZM30 17.5C30 16.1194 31.1194 15 32.5 15C33.8806 15 35 16.1194 35 17.5C35 18.8806 33.8806 20 32.5 20C31.1194 20 30 18.8806 30 17.5ZM48.3333 26.6667H16.6667V12.3491C17.9879 12.4483 19.305 12.1114 20.4167 11.3908L21.8384 12.8125C21.213 13.6621 20.2217 14.1647 19.1667 14.1667H18.3333V20.8333H19.1667C21.0075 20.8333 22.5 22.3259 22.5 24.1667V25H42.5V24.1667C42.5 22.3259 43.9925 20.8333 45.8333 20.8333H46.6666V14.1667H45.8333C43.9925 14.1667 42.5 12.6742 42.5 10.8334V10H28.47L26.8034 8.33336H48.3333V26.6667Z" fill="#1D2C39"/>
</svg>
