<svg width="50" height="50" viewBox="0 0 50 50" fill="none" xmlns="http://www.w3.org/2000/svg">
<path d="M45.1532 9.8984L38.454 8.94113L35.8936 3.30886C34.9806 1.2992 32.9636 0 30.7556 0H16.3137C13.9339 0 11.7976 1.50568 10.9968 3.74673L9.08792 9.09351C3.77174 11.2129 0 16.4024 0 22.4653C0 29.3694 4.87097 35.2565 11.6177 36.5847C10.4379 37.5194 9.67742 38.9605 9.67742 40.5806C9.67742 45.7742 13.9032 50 19.0968 50H25.8064V48.3871H27.4193C28.5669 48.3871 29.5701 47.7799 30.1419 46.875L33.6258 47.746L34.4362 44.9081L34.5911 44.9461C34.7161 44.9767 34.8428 44.9912 34.9669 44.9912C35.6459 44.9912 36.2798 44.5558 36.5016 43.8888L37.6032 40.5856C37.7452 40.159 37.7024 39.6881 37.4847 39.2945C37.267 38.901 36.8919 38.6147 36.4548 38.5082L36.2782 38.4655L37.3015 34.8832L28.4411 32.9146L26.9613 38.8348L26.358 37.6291C25.9443 36.8026 25.1152 36.2904 24.1927 36.2904C23.821 36.2904 23.4468 36.3784 23.1113 36.5461C21.9185 37.1428 21.4322 38.5993 22.029 39.792L23.1008 41.9355H20.7194L19.5396 38.7888C19.2984 38.1453 18.9226 37.5791 18.4653 37.0969H18.5484C22.55 37.0969 25.8064 33.8405 25.8064 29.8388V22.5806H37.1177C37.8549 23.554 39.0113 24.1935 40.3226 24.1935C41.6339 24.1935 42.7911 23.554 43.5274 22.5806H47.5806C48.9145 22.5806 50 21.4951 50 20.1612V15.4871C49.9999 12.696 47.9169 10.2935 45.1532 9.8984ZM12.5161 4.28872C13.0879 2.68793 14.6137 1.61296 16.3137 1.61296H30.7557C32.3331 1.61296 33.7735 2.54039 34.4266 3.97663L37.3525 10.4137L44.9259 11.4952C46.8993 11.7774 48.388 13.4936 48.388 15.4872V17.742H43.5283C42.7912 16.7686 41.6348 16.1291 40.3235 16.1291C39.0122 16.1291 37.855 16.7686 37.1187 17.742H35.4839V10.2936L32.6186 4.56297C32.2065 3.73798 31.3767 3.22584 30.4549 3.22584H16.4863C15.4427 3.22584 14.5194 3.89194 14.1895 4.88306L13.1113 8.12982C12.396 8.1935 11.6993 8.3177 11.0178 8.48225L12.5161 4.28872ZM27.3782 17.7419C27.1871 15.2451 26.1218 12.9935 24.4831 11.2903H33.871V17.7419H27.3782ZM29.8387 8.87094V8.06447H32.5661L33.3726 9.67734H30.6451C30.2008 9.67743 29.8387 9.31532 29.8387 8.87094ZM29.8387 6.45159C28.9492 6.45159 28.2258 7.17496 28.2258 8.06447V8.87094C28.2258 9.15478 28.2839 9.42419 28.3742 9.67742H22.4967C20.8822 8.6613 18.979 8.06455 16.9347 8.06455H14.8322L15.7201 5.3912C15.8306 5.06053 16.1387 4.8388 16.4863 4.8388H30.4548C30.7621 4.8388 31.0387 5.00976 31.1758 5.28476L31.7596 6.45167L29.8387 6.45159ZM1.61288 22.4653C1.61288 15.4137 7.34918 9.67742 14.4008 9.67742H16.9354C21.5556 9.67742 25.3612 13.2266 25.7701 17.742H16.0532C15.2056 17.742 14.5161 17.0524 14.5161 16.2049C14.5161 15.5428 14.9378 14.9565 15.5669 14.7468L16.3838 14.4742L15.8733 12.9444L15.0564 13.2169C13.7685 13.6468 12.9032 14.8476 12.9032 16.2049C12.9032 16.7807 13.0701 17.3138 13.3403 17.7791C12.2895 18.5395 11.5693 19.6823 11.3564 20.9678H11.2903C9.51129 20.9678 8.06447 22.4146 8.06447 24.1936C8.06447 25.9727 9.51121 27.4195 11.2903 27.4195V27.5558C11.2903 30.2122 11.8943 32.8243 13.0322 35.2098L12.1782 35.059C6.05648 33.9782 1.61288 28.6814 1.61288 22.4653ZM27.4193 46.7742H25.8064V43.5483H27.4193C28.3088 43.5483 29.0322 44.2717 29.0322 45.1612C29.0322 46.0507 28.3088 46.7742 27.4193 46.7742ZM34.9717 43.3782L34.1516 43.179C33.9298 43.125 33.7467 42.9854 33.6363 42.7862C33.5258 42.5862 33.504 42.3572 33.5766 42.1403L34.1652 40.3725C34.2967 39.9773 34.7128 39.7435 35.1208 39.8434L36.0716 40.0749L34.9717 43.3782ZM29.6242 34.829L35.2798 36.0863L34.6669 38.2306C33.7548 38.3355 32.9403 38.9524 32.6362 39.8629L32.0475 41.6306C31.8338 42.271 31.8992 42.9766 32.2258 43.5669C32.3976 43.8774 32.6379 44.1403 32.9193 44.346L32.5032 45.8032L30.6274 45.3338C30.6306 45.275 30.6451 45.2201 30.6451 45.1613C30.6451 43.8121 29.8105 42.6572 28.6322 42.1766L28.0693 41.05L29.6242 34.829ZM23.4718 39.071C23.2725 38.6734 23.4347 38.1879 23.8323 37.9887C24.2242 37.7928 24.721 37.9629 24.9145 38.3493L26.708 41.9355H24.9048L23.4718 39.071ZM18.0298 39.3548L19.2241 42.5387L17.1717 44.5911L18.3121 45.7314L20.4951 43.5484H24.1935V48.3871H19.0967C14.7919 48.3871 11.2902 44.8855 11.2902 40.5775C11.2902 38.6581 12.8515 37.0968 14.7709 37.0968C16.2137 37.0967 17.5234 38.004 18.0298 39.3548ZM18.5484 35.4839H14.9903C13.629 33.0645 12.9032 30.3355 12.9032 27.5556V25.8064H11.2903C10.4008 25.8064 9.67742 25.0831 9.67742 24.1936C9.67742 23.3041 10.4008 22.5807 11.2903 22.5807H12.9032V21.7742C12.9032 20.6025 13.5234 19.5298 14.5081 18.9331C14.9669 19.1936 15.4887 19.3548 16.0532 19.3548H22.5807C23.0113 19.3548 23.4162 19.5226 23.7202 19.8267C24.0258 20.1315 24.1936 20.5364 24.1936 20.967V29.8388C24.1936 30.3992 24.1089 30.9404 23.9557 31.4516H21.9048C20.7274 31.4516 19.6863 30.7008 19.3137 29.5838L17.7838 30.0943C18.3757 31.8709 20.0322 33.0645 21.9047 33.0645H23.1741C22.1532 34.525 20.4621 35.4839 18.5484 35.4839ZM25.8064 20.9677C25.8064 20.3895 25.6436 19.8412 25.3605 19.3548H36.3717C36.3185 19.6153 36.2903 19.8855 36.2903 20.1613C36.2903 20.4372 36.3185 20.7073 36.3717 20.9678L25.8064 20.9677ZM40.3226 22.5806C38.9887 22.5806 37.9032 21.4951 37.9032 20.1612C37.9032 18.8274 38.9887 17.7419 40.3226 17.7419C41.6565 17.7419 42.7419 18.8274 42.7419 20.1612C42.7419 21.4951 41.6564 22.5806 40.3226 22.5806ZM47.5806 20.9677H44.2734C44.3266 20.7072 44.3548 20.4371 44.3548 20.1612C44.3548 19.8854 44.3266 19.6153 44.2734 19.3548H48.387V20.1612C48.387 20.6056 48.0249 20.9677 47.5806 20.9677Z" fill="#1D2C39"/>
<path d="M19.3549 23.3871C19.3549 22.9427 19.717 22.5806 20.1613 22.5806C20.6057 22.5806 20.9678 22.9427 20.9678 23.3871V24.1936H22.5807V23.3871C22.5807 22.0532 21.4952 20.9677 20.1613 20.9677C18.8274 20.9677 17.742 22.0532 17.742 23.3871V24.1936H19.3549V23.3871Z" fill="#1D2C39"/>
<path d="M38.7096 37.0967H49.9999V25.8064H38.7096V37.0967ZM40.3226 27.4193H48.3871V35.4839H40.3226V27.4193Z" fill="#1D2C39"/>
<path d="M43.5483 31.9242L42.5056 30.8814L41.3653 32.0217L43.5483 34.2048L47.3443 30.4088L46.204 29.2685L43.5483 31.9242Z" fill="#1D2C39"/>
<path d="M38.7096 49.9999H49.9999V38.7096H38.7096V49.9999ZM40.3226 40.3226H48.3871V48.3871H40.3226V40.3226Z" fill="#1D2C39"/>
<path d="M43.5483 44.8274L42.5056 43.7846L41.3653 44.925L43.5483 47.108L47.3443 43.3121L46.204 42.1718L43.5483 44.8274Z" fill="#1D2C39"/>
</svg>
