<svg width="50" height="50" viewBox="0 0 50 50" fill="none" xmlns="http://www.w3.org/2000/svg">
<path d="M8.30711 44.4268C8.12557 44.245 7.87362 44.1406 7.61678 44.1406C7.35995 44.1406 7.10799 44.245 6.92635 44.4268C6.74471 44.6085 6.64022 44.8604 6.64022 45.1172C6.64022 45.374 6.74462 45.626 6.92635 45.8075C7.10799 45.9892 7.35995 46.0938 7.61678 46.0938C7.87362 46.0938 8.12557 45.9893 8.30711 45.8075C8.48875 45.626 8.59334 45.374 8.59334 45.1172C8.59334 44.8604 8.48885 44.6084 8.30711 44.4268Z" fill="#1D2C39"/>
<path d="M45.8512 17.865C45.6695 17.6833 45.4186 17.5789 45.1608 17.5789C44.9039 17.5789 44.652 17.6833 44.4703 17.865C44.2888 18.0466 44.1842 18.2986 44.1842 18.5554C44.1842 18.8123 44.2887 19.0642 44.4703 19.2458C44.652 19.4274 44.9039 19.532 45.1608 19.532C45.4186 19.532 45.6695 19.4275 45.8512 19.2458C46.0337 19.0642 46.1382 18.8123 46.1382 18.5554C46.1382 18.2986 46.0337 18.0466 45.8512 17.865Z" fill="#1D2C39"/>
<path d="M49.7126 0.286035C49.5294 0.102929 49.281 0 49.0219 0L24.9991 0.00126953C24.4598 0.00126953 24.0226 0.438573 24.0226 0.97783V3.7705L14.7659 6.25087C14.2449 6.39052 13.9357 6.92596 14.0754 7.44686L18.8729 25.3513L14.7226 29.5016C14.1944 28.7303 13.3075 28.2231 12.3043 28.2231H2.92958C1.31416 28.2231 0 29.5373 0 31.1527V47.0702C0 48.6856 1.31416 49.9999 2.92958 49.9999H12.3044C13.6767 49.9999 14.8312 49.0511 15.1476 47.7753L16.3088 48.7879C17.2051 49.5695 18.3536 50 19.5429 50H49.0221C49.5613 50 49.9986 49.5627 49.9986 49.0234V0.976561C49.9984 0.717577 49.8957 0.46914 49.7126 0.286035ZM13.2807 47.0703C13.2807 47.6087 12.8427 48.0469 12.3042 48.0469H2.92949C2.39101 48.0469 1.95293 47.6088 1.95293 47.0703V31.1528C1.95293 30.6143 2.39101 30.1762 2.92949 30.1762H6.64032V41.4257C6.64032 41.965 7.07762 42.4023 7.61688 42.4023C8.15614 42.4023 8.59344 41.965 8.59344 41.4257V30.1762H12.3043C12.8427 30.1762 13.2808 30.6143 13.2808 31.1528V47.0703H13.2807ZM16.2146 7.88465L24.0226 5.79247V9.41112L23.3681 9.58651C23.1178 9.65359 22.9046 9.81717 22.7752 10.0415C22.6457 10.2658 22.6105 10.5323 22.6776 10.7825C23.0529 12.183 22.2188 13.6276 20.8183 14.0029C20.5678 14.0701 20.3543 14.234 20.2249 14.4588C20.0955 14.6835 20.0606 14.9505 20.1283 15.2008L23.9348 29.2963H21.9749L20.9648 25.3448C20.9327 25.219 20.8764 25.1031 20.8011 25.0023L16.2146 7.88465ZM24.0226 13.8895V22.1298L22.2415 15.5346C22.9855 15.1505 23.5944 14.5757 24.0226 13.8895ZM38.0523 48.0468H19.5427C18.8255 48.0468 18.1328 47.7872 17.5922 47.3158L15.2339 45.2591V31.7526L19.4973 27.4891L20.2706 30.5145C20.3811 30.9468 20.7705 31.2492 21.2167 31.2492L40.4162 31.2503C41.1701 31.2503 41.7834 31.8636 41.7834 32.6175C41.7834 33.3714 41.1701 33.9847 40.4162 33.9847H30.5784C30.0391 33.9847 29.6018 34.422 29.6018 34.9613C29.6018 35.5005 30.0391 35.9378 30.5784 35.9378H43.4729C44.2268 35.9378 44.8401 36.5511 44.8401 37.305C44.8401 38.0589 44.2268 38.6722 43.4729 38.6722H30.5784C30.0391 38.6722 29.6018 39.1095 29.6018 39.6488C29.6018 40.188 30.0391 40.6253 30.5784 40.6253H41.3833C42.1372 40.6253 42.7505 41.2386 42.7505 41.9925C42.7505 42.7464 42.1372 43.3597 41.3833 43.3597H30.5784C30.0391 43.3597 29.6018 43.797 29.6018 44.3362C29.6018 44.8755 30.0391 45.3128 30.5784 45.3128H38.0523C38.8062 45.3128 39.4195 45.9261 39.4195 46.68C39.4194 47.4335 38.8061 48.0468 38.0523 48.0468ZM48.0455 48.0468H41.0768C41.2661 47.6295 41.3725 47.1669 41.3725 46.6796C41.3725 46.1923 41.2661 45.7297 41.0768 45.3124H41.3833C43.2141 45.3124 44.7035 43.823 44.7035 41.9922C44.7035 41.4582 44.5761 40.9536 44.3511 40.5062C45.7569 40.12 46.793 38.8315 46.793 37.3048C46.793 36.5642 46.549 35.8795 46.1376 35.3268V22.9499C46.1376 22.4106 45.7003 21.9733 45.161 21.9733C44.6218 21.9733 44.1845 22.4106 44.1845 22.9499V34.0623C43.955 34.012 43.717 33.9847 43.4727 33.9847H43.4406C43.63 33.5674 43.7363 33.1048 43.7363 32.6175C43.7363 30.7867 42.2469 29.2973 40.4161 29.2973H38.8463C40.5132 28.5825 41.6839 26.9256 41.6839 25C41.6839 22.4229 39.5874 20.3263 37.0104 20.3263C34.4334 20.3263 32.3369 22.4229 32.3369 25C32.3369 26.9256 33.5077 28.5825 35.1744 29.2973H29.8363V10.7288C31.5808 10.3486 32.9574 8.97215 33.3374 7.22753H40.6832C41.0633 8.97215 42.4399 10.3486 44.1844 10.7288V13.7649C44.1844 14.3042 44.6217 14.7415 45.1609 14.7415C45.7002 14.7415 46.1375 14.3042 46.1375 13.7649V9.85691C46.1375 9.31766 45.7002 8.88035 45.1609 8.88035C43.711 8.88035 42.5317 7.70077 42.5317 6.25096C42.5317 5.71171 42.0944 5.2744 41.5551 5.2744H32.4657C31.9264 5.2744 31.4891 5.71171 31.4891 6.25096C31.4891 7.70086 30.3096 8.88035 28.8598 8.88035C28.3206 8.88035 27.8832 9.31766 27.8832 9.85691V29.2972H25.9758V1.9542L48.0455 1.95312V48.0468ZM37.0106 27.7205C35.5105 27.7205 34.2902 26.5 34.2902 25.0001C34.2902 23.5001 35.5106 22.2795 37.0106 22.2795C38.5106 22.2795 39.731 23.5 39.731 25C39.731 26.4999 38.5107 27.7205 37.0106 27.7205Z" fill="#1D2C39"/>
</svg>
